<svg width="40" height="40" viewBox="0 0 40 40" fill="none" xmlns="http://www.w3.org/2000/svg">
<path d="M20 40C31.0457 40 40 31.0457 40 20C40 8.95431 31.0457 0 20 0C8.95431 0 0 8.95431 0 20C0 31.0457 8.95431 40 20 40Z" fill="url(#paint0_linear_4_269)"/>
<g clip-path="url(#clip0_4_269)">
<path d="M24.9387 21.7237C24.8016 21.7107 24.6645 21.6911 24.534 21.6715C24.671 21.6911 24.8081 21.7041 24.9387 21.7237Z" fill="white"/>
<path d="M20.0495 18.9691C18.9855 16.8999 16.0873 13.0421 13.3914 11.1426C10.8131 9.31493 9.82742 9.63478 9.1812 9.92199C8.43707 10.2614 8.29999 11.4103 8.29999 12.0826C8.29999 12.7549 8.67206 17.6179 8.91357 18.4273C9.70993 21.1036 12.5494 22.0109 15.1604 21.7237C15.2909 21.7041 15.428 21.6845 15.5651 21.6715C15.428 21.6911 15.2975 21.7107 15.1604 21.7237C11.3287 22.2916 7.92792 23.6885 12.3927 28.6559C17.3014 33.7408 19.1161 27.5658 20.0495 24.4391C20.9829 27.5658 22.06 33.5189 27.6214 28.6559C31.799 24.4391 28.7702 22.2916 24.9386 21.7237C24.8015 21.7107 24.6644 21.6911 24.5339 21.6715C24.671 21.6911 24.808 21.7041 24.9386 21.7237C27.5496 22.0174 30.389 21.1101 31.1854 18.4273C31.4269 17.6179 31.799 12.7615 31.799 12.0826C31.799 11.4037 31.6619 10.2614 30.9178 9.92199C30.2716 9.62825 29.2859 9.31493 26.7075 11.1361C24.0117 13.0356 21.1135 16.8934 20.0495 18.9626V18.9691Z" fill="white"/>
</g>
<defs>
<linearGradient id="paint0_linear_4_269" x1="20" y1="0" x2="20" y2="40" gradientUnits="userSpaceOnUse">
<stop stop-color="#0088FE"/>
<stop offset="1" stop-color="#59B9FF"/>
</linearGradient>
<clipPath id="clip0_4_269">
<rect width="23.499" height="20.888" fill="white" transform="translate(8.29999 9.70001)"/>
</clipPath>
</defs>
</svg>
