<svg width="82" height="80" viewBox="0 0 82 80" fill="none" xmlns="http://www.w3.org/2000/svg">
<g clip-path="url(#clip0_560_1646)">
<path d="M70.1831 41.3231C70.7046 41.8453 71.0624 42.5077 71.2111 43.2265C71.3598 43.9454 71.2928 44.6884 71.0186 45.3617C70.7443 46.035 70.2752 46.6083 69.6703 47.0091C69.0655 47.41 68.3523 47.6204 67.6207 47.6137L59.4331 47.5484L59.4436 49.0109C59.4706 51.7909 58.407 54.3948 56.4506 56.3511C54.4943 58.3074 51.8928 59.3687 49.1128 59.3417L29.2702 59.1661C26.4926 59.1416 23.8695 58.0364 21.8783 56.0451C19.887 54.0539 18.7819 51.4308 18.7573 48.6532L18.7419 47.1812L10.5471 47.1087C9.52449 47.0996 8.60055 46.6801 7.924 46.0035C7.24745 45.327 6.82789 44.403 6.81884 43.3804C6.81411 42.8941 6.90533 42.4132 7.08728 41.9655C7.26923 41.5177 7.53833 41.1118 7.87919 40.7709C8.22006 40.43 8.62599 40.1609 9.07376 39.979C9.52154 39.797 10.0024 39.7058 10.4887 39.7105L18.6693 39.7829L18.6587 38.3157C18.6365 35.5405 19.6954 32.9366 21.6517 30.9803C23.608 29.0239 26.2119 27.9603 28.9895 27.9849L48.8369 28.1605C51.6144 28.1851 54.2268 29.4257 56.1557 31.3546C58.0846 33.2835 59.3252 35.8958 59.3498 38.6734L59.3675 40.1431L67.5623 40.2156C68.5849 40.2247 69.5065 40.6466 70.1831 41.3231ZM74.8971 36.6091C72.9106 34.6226 70.2899 33.5151 67.5005 33.4928L65.1628 33.4697C64.2749 30.9029 62.8079 28.5663 60.8769 26.643C57.6069 23.373 53.1982 21.4768 48.7845 21.4378L28.9395 21.2645C26.6855 21.237 24.4564 21.6576 22.3816 22.5018C20.3068 23.3459 18.4278 24.5969 16.8535 26.182C14.916 28.1195 13.5052 30.4516 12.7074 33.0055L10.4269 32.9877C9.05637 32.9713 7.70106 33.2269 6.43944 33.7398C5.17782 34.2528 4.03497 35.0128 3.07711 35.9759C1.12785 37.9251 0.0666059 40.5314 0.0912706 43.3185C0.111137 46.1008 1.22109 48.7287 3.20755 50.7151C5.19402 52.7016 7.81709 53.8068 10.6042 53.8314L12.8871 53.8516C13.7477 56.4489 15.2105 58.815 17.1547 60.7543C18.7561 62.3664 20.6561 63.6502 22.7444 64.5312C24.8327 65.4121 27.0678 65.8728 29.3202 65.8865L49.1628 66.0621C51.4152 66.0883 53.6425 65.6671 55.7156 64.823C57.7886 63.9788 59.6661 62.7285 61.2393 61.1445C63.1815 59.2023 64.59 56.8725 65.3877 54.3186L67.6683 54.3364C69.0395 54.3548 70.3959 54.1007 71.6588 53.589C72.9217 53.0773 74.0659 52.3181 75.0252 51.3555C76.9768 49.4039 78.0381 46.7976 78.0134 44.0105C78.0075 42.6404 77.7289 41.2803 77.1939 40.0096C76.6588 38.7389 75.8781 37.5829 74.8971 36.6091ZM43.365 38.872C42.1448 40.1738 41.4821 41.8729 41.4981 43.6802C41.5165 45.4899 42.2023 47.2033 43.4481 48.5246L34.7372 48.4451C35.9499 47.1484 36.6164 45.4305 36.6017 43.6392C36.5859 41.8463 35.8888 40.1145 34.6518 38.7949L43.365 38.872ZM51.0457 36.4694C50.4745 35.8954 49.7026 35.5678 48.8999 35.5587L29.0574 35.3831C28.2557 35.3805 27.4914 35.6961 26.9322 36.2607C26.3665 36.8264 26.0521 37.5822 26.0592 38.3812L26.0746 39.8485L29.5133 39.8789C30.5358 39.888 31.4574 40.3099 32.134 40.9864C32.8105 41.663 33.2324 42.5846 33.2415 43.6071C33.2462 44.0935 33.155 44.5743 32.9731 45.0221C32.7911 45.4699 32.522 45.8758 32.1811 46.2167C31.8403 46.5575 31.4343 46.8266 30.9866 47.0086C30.5388 47.1905 30.058 47.2817 29.5716 47.277L26.1401 47.2538L26.1531 48.7187C26.1601 49.5177 26.5188 50.277 27.0826 50.8408C27.6464 51.4046 28.4034 51.7656 29.2071 51.7727L49.0521 51.946C49.8514 51.9485 50.6137 51.6347 51.1726 51.073C51.7371 50.5138 52.0528 49.7495 52.0502 48.9479L52.0348 47.4758L48.5961 47.4454C47.5736 47.4363 46.6496 47.0168 45.9731 46.3402C45.2965 45.6637 44.877 44.7397 44.8679 43.7172C44.8632 43.2308 44.9544 42.75 45.1364 42.3022C45.3183 41.8544 45.5874 41.4485 45.9283 41.1076C46.2691 40.7668 46.6751 40.4977 47.1228 40.3157C47.5706 40.1338 48.0514 40.0425 48.5378 40.0473L51.9622 40.0776L51.954 38.6127C51.9449 37.8112 51.6183 37.0404 51.0457 36.4694Z" fill="#1C2778"/>
</g>
<defs>
<clipPath id="clip0_560_1646">
<rect width="81.4286" height="80" fill="white" transform="translate(0.0356445)"/>
</clipPath>
</defs>
</svg>
