<svg width="38" height="41" viewBox="0 0 38 41" fill="none" xmlns="http://www.w3.org/2000/svg">
<path d="M37.7044 9.31128C37.1213 5.01348 33.3437 1.6265 28.8656 0.97019C28.1101 0.859291 25.2475 0.455688 18.6166 0.455688H18.567C11.9342 0.455688 10.5113 0.859291 9.75575 0.97019C5.40234 1.60832 1.42669 4.6517 0.462117 9.00039C-0.00183059 11.1421 -0.051343 13.5164 0.034845 15.6944C0.157709 18.8178 0.181548 21.9357 0.467618 25.0463C0.665384 27.1126 1.01039 29.1624 1.50004 31.1803C2.41693 34.9073 6.1285 38.0089 9.76489 39.2742C13.6582 40.5938 17.8451 40.8129 21.8569 39.9069C22.2982 39.8051 22.734 39.6869 23.1644 39.5524C24.1399 39.2451 25.2824 38.9015 26.1222 38.298C26.1338 38.2894 26.1432 38.2785 26.1499 38.266C26.1565 38.2533 26.1603 38.2394 26.1607 38.2252V35.2109C26.1605 35.1977 26.1574 35.1846 26.1514 35.1727C26.1454 35.1608 26.1369 35.1504 26.1263 35.1422C26.1157 35.134 26.1035 35.1282 26.0904 35.1253C26.0774 35.1225 26.0638 35.1225 26.0507 35.1255C23.4805 35.7342 20.8466 36.0393 18.204 36.0345C13.6562 36.0345 12.4331 33.8947 12.0828 33.0038C11.8013 32.2339 11.6225 31.4308 11.551 30.615C11.5502 30.6012 11.5528 30.5876 11.5584 30.575C11.564 30.5625 11.5725 30.5514 11.5832 30.5428C11.594 30.5341 11.6066 30.528 11.6201 30.5251C11.6336 30.5222 11.6476 30.5224 11.6611 30.5259C14.1885 31.1304 16.7794 31.4356 19.3794 31.4349C20.0048 31.4349 20.6282 31.4349 21.2536 31.4185C23.8685 31.3458 26.6247 31.2131 29.1975 30.715C29.2617 30.7022 29.3259 30.6913 29.3809 30.675C33.439 29.9023 37.301 27.477 37.6934 21.3357C37.7081 21.094 37.7448 18.8032 37.7448 18.5523C37.7466 17.6997 38.0216 12.5037 37.7044 9.31128Z" fill="url(#paint0_linear_4_262)"/>
<path d="M31.4286 14.0399V24.7414H27.0728V14.3551C27.0728 12.1685 26.1369 11.0534 24.2333 11.0534C22.1406 11.0534 21.0924 12.3726 21.0924 14.9783V20.6634H16.7629V14.9783C16.7629 12.3726 15.7128 11.0534 13.6201 11.0534C11.7277 11.0534 10.7824 12.1685 10.7824 14.3551V24.7414H6.42856V14.0399C6.42856 11.8533 7.00195 10.1162 8.14879 8.82853C9.33175 7.5439 10.8835 6.88428 12.8096 6.88428C15.0389 6.88428 16.7236 7.71883 17.8467 9.38609L18.9305 11.1572L20.0161 9.38609C21.1392 7.71883 22.8238 6.88428 25.0494 6.88428C26.9736 6.88428 28.5254 7.5439 29.7121 8.82853C30.8577 10.115 31.4298 11.8521 31.4286 14.0399Z" fill="white"/>
<defs>
<linearGradient id="paint0_linear_4_262" x1="18.9286" y1="0.455688" x2="18.9286" y2="40.4557" gradientUnits="userSpaceOnUse">
<stop stop-color="#6364FF"/>
<stop offset="1" stop-color="#563ACC"/>
</linearGradient>
</defs>
</svg>
