<svg width="32" height="36" viewBox="0 0 32 36" fill="none" xmlns="http://www.w3.org/2000/svg">
<g clip-path="url(#clip0_409_615)">
<path d="M4.03022 25.6946C5.48763 27.0701 6.94504 28.3398 8.65373 29.3449C8.33712 31.3023 10.0609 32.7148 10.4127 32.8206C10.6137 33.0322 13.6642 34.0162 14.8352 33.1591C18.2526 34.7991 22.5745 37.021 26.2432 35.4869C26.2934 35.4869 26.3437 35.4339 26.394 35.4339C26.8463 35.2752 27.198 34.9049 27.198 34.2172C27.0975 31.096 27.9519 28.0805 28.957 25.1709C29.8113 22.6316 31.118 20.0394 31.4195 17.2885C31.7713 14.1143 31.118 10.8873 29.4595 8.40088L29.5601 8.29508C29.9621 7.55445 30.4144 6.81381 30.8164 6.07318C31.2185 5.38545 31.8216 4.59192 31.9221 3.79838C32.1231 2.10551 30.7662 1.73519 29.5601 1.25907C28.5047 0.835855 26.4442 -0.486702 25.3386 0.201028C24.7355 0.571344 24.434 1.41778 24.1325 1.99971C23.7304 2.74034 23.3284 3.48097 22.9766 4.1687C19.5592 3.79838 16.0413 5.43835 13.1767 7.44864C8.75425 10.517 6.69377 17.9762 1.46718 19.2988C0.462073 19.5633 0.361562 20.6213 0.813862 21.309C1.16565 23.2135 2.72357 24.4303 4.03022 25.6999V25.6946ZM4.53278 22.6792C6.49274 23.0495 8.50297 23.6314 10.4127 24.3192C9.91012 25.0069 9.50808 25.8004 9.20654 26.594C8.25169 25.9591 7.39734 25.2185 6.49274 24.425C5.99019 23.9489 5.23635 23.3669 4.53278 22.6792ZM11.9706 30.4347C10.7444 29.4401 11.2168 27.3822 12.8752 25.319C13.9808 25.8481 15.0362 26.3771 16.0413 27.0119C15.2372 29.2867 13.8401 31.297 11.9706 30.4347ZM23.3786 33.3655C21.1171 33.3126 18.7551 32.1487 16.7951 31.1965C17.3982 30.35 17.8505 29.4507 18.2526 28.4456C20.112 29.8739 21.871 31.461 23.3786 33.3655ZM26.394 2.84085C26.8965 2.99956 27.3991 3.31697 27.8011 3.47568C28.1529 3.58148 28.7057 3.74019 29.158 3.8989C28.957 4.32212 28.6555 4.74533 28.5047 5.00985C28.2534 5.48597 27.9519 5.96209 27.7006 6.43821C27.2483 6.06789 26.796 5.69758 26.2934 5.38016C25.9919 5.16855 25.6904 5.00985 25.3386 4.90404C25.6904 4.16341 25.9919 3.42278 26.394 2.84085ZM24.0822 7.17884C29.4093 9.40073 29.7108 15.9077 27.9016 20.8805C27.3991 22.256 26.8965 23.6314 26.4442 25.0069C21.9664 20.1399 15.2322 17.3361 8.95024 16.1193C9.60356 15.22 10.2569 14.2677 10.9102 13.4213C13.7748 9.77105 19.3029 5.22145 24.0772 7.17884H24.0822ZM7.14607 18.4999C13.7295 19.3993 21.2176 22.5205 25.5899 27.9694C25.2883 29.0804 25.0873 30.1913 24.9365 31.3023C19.911 25.2714 12.7747 21.727 5.38712 20.1928C5.99019 19.6638 6.59325 19.0819 7.14607 18.4999Z" fill="#2A39A9"/>
</g>
<defs>
<clipPath id="clip0_409_615">
<rect width="31.3846" height="36" fill="white" transform="translate(0.557617)"/>
</clipPath>
</defs>
</svg>
