<svg width="25" height="26" viewBox="0 0 25 26" fill="none" xmlns="http://www.w3.org/2000/svg">
<path d="M22.3843 18.6357C22.2828 18.8906 22.0886 19.0932 21.8443 19.1991C21.7241 19.2526 21.595 19.281 21.4643 19.2826H16.4643C16.1991 19.2826 15.9447 19.1727 15.7572 18.977C15.5697 18.7813 15.4643 18.5159 15.4643 18.2391C15.4643 17.9624 15.5697 17.697 15.7572 17.5013C15.9447 17.3056 16.1991 17.1957 16.4643 17.1957H19.0543L13.4643 11.3626L10.1743 14.8061C10.0813 14.9039 9.97073 14.9815 9.84887 15.0345C9.72701 15.0875 9.59631 15.1147 9.46429 15.1147C9.33228 15.1147 9.20158 15.0875 9.07972 15.0345C8.95786 14.9815 8.84726 14.9039 8.75429 14.8061L2.75429 8.54522C2.66057 8.44821 2.58617 8.3328 2.5354 8.20564C2.48463 8.07849 2.4585 7.9421 2.4585 7.80435C2.4585 7.6666 2.48463 7.53021 2.5354 7.40305C2.58617 7.27589 2.66057 7.16048 2.75429 7.06348C2.84726 6.96568 2.95786 6.88804 3.07972 6.83507C3.20158 6.78209 3.33228 6.75482 3.46429 6.75482C3.59631 6.75482 3.72701 6.78209 3.84887 6.83507C3.97073 6.88804 4.08133 6.96568 4.17429 7.06348L9.46429 12.5939L12.7543 9.15043C12.8473 9.05263 12.9579 8.975 13.0797 8.92203C13.2016 8.86905 13.3323 8.84177 13.4643 8.84177C13.5963 8.84177 13.727 8.86905 13.8489 8.92203C13.9707 8.975 14.0813 9.05263 14.1743 9.15043L20.4643 15.7243V13.0217C20.4643 12.745 20.5697 12.4796 20.7572 12.2839C20.9447 12.0882 21.1991 11.9783 21.4643 11.9783C21.7295 11.9783 21.9839 12.0882 22.1714 12.2839C22.3589 12.4796 22.4643 12.745 22.4643 13.0217V18.2391C22.4627 18.3755 22.4355 18.5102 22.3843 18.6357Z" fill="#F2C94C"/>
</svg>
