<svg width="21" height="21" viewBox="0 0 21 21" fill="none" xmlns="http://www.w3.org/2000/svg">
<path d="M10.5 13.8333C10.0398 13.8333 9.66667 13.4602 9.66667 13L9.66667 7.04166L8.10426 8.60407C7.77226 8.93606 7.23255 8.93133 6.90643 8.59356V8.59356C6.5883 8.26407 6.5929 7.74043 6.91676 7.41657L9.79289 4.54043C10.1834 4.14991 10.8166 4.14991 11.2071 4.54044L14.0832 7.41657C14.4071 7.74043 14.4117 8.26407 14.0936 8.59356V8.59356C13.7674 8.93133 13.2277 8.93606 12.8957 8.60407L11.3333 7.04166L11.3333 13C11.3333 13.4602 10.9602 13.8333 10.5 13.8333V13.8333ZM5.5 17.1667C5.04167 17.1667 4.64944 17.0036 4.32333 16.6775C3.99722 16.3514 3.83389 15.9589 3.83333 15.5V13.8333C3.83333 13.3731 4.20643 13 4.66667 13V13C5.1269 13 5.5 13.3731 5.5 13.8333V15.5L15.5 15.5V13.8333C15.5 13.3731 15.8731 13 16.3333 13V13C16.7936 13 17.1667 13.3731 17.1667 13.8333V15.5C17.1667 15.9583 17.0036 16.3508 16.6775 16.6775C16.3514 17.0042 15.9589 17.1672 15.5 17.1667H5.5Z" fill="#2A39A9"/>
</svg>
