<svg width="24" height="25" viewBox="0 0 24 25" fill="none" xmlns="http://www.w3.org/2000/svg">
<path d="M3 4.493C3 3.945 3.445 3.5 3.993 3.5H20.007C20.555 3.5 21 3.945 21 4.493V20.507C20.9997 20.7703 20.895 21.0227 20.7089 21.2089C20.5227 21.395 20.2703 21.4997 20.007 21.5H3.993C3.72964 21.5 3.47707 21.3954 3.29084 21.2092C3.10462 21.0229 3 20.7704 3 20.507V4.493ZM5 5.5V19.5H19V5.5H5ZM10.622 8.915L15.501 12.167C15.5559 12.2035 15.6009 12.253 15.632 12.3111C15.6631 12.3692 15.6794 12.4341 15.6794 12.5C15.6794 12.5659 15.6631 12.6308 15.632 12.6889C15.6009 12.747 15.5559 12.7965 15.501 12.833L10.621 16.085C10.5608 16.1249 10.491 16.1477 10.4189 16.1512C10.3468 16.1546 10.2751 16.1384 10.2114 16.1043C10.1477 16.0703 10.0945 16.0197 10.0573 15.9578C10.02 15.896 10.0003 15.8252 10 15.753V9.247C10.0001 9.17465 10.0199 9.10369 10.0572 9.04168C10.0944 8.97967 10.1478 8.92893 10.2116 8.89486C10.2755 8.86079 10.3473 8.84467 10.4196 8.84822C10.4919 8.85177 10.5618 8.87485 10.622 8.915Z" fill="white"/>
</svg>
