<?xml version="1.0" encoding="UTF-8" standalone="no"?>
<svg
   width="86.197365"
   height="86.785866"
   viewBox="0 0 86.197365 86.785866"
   fill="none"
   version="1.1"
   id="svg6"
   xmlns="http://www.w3.org/2000/svg"
   xmlns:svg="http://www.w3.org/2000/svg">
  <g
     clip-path="url(#clip0_65_3610)"
     id="g2"
     transform="translate(-0.64503169,-0.51199698)">
    <path
       d="m 53.8619,14.2364 c 3.183,0.8751 6.3592,2.2641 9.273,4.3194 6.6619,4.7006 10.5312,11.9737 11.1974,21.0302 0.8513,11.6024 -1.4905,20.523 -6.9546,26.5165 -3.9232,4.3028 -9.2259,7.1902 -15.336,8.3471 C 45.9786,75.5999 39.7036,74.9369 33.8963,72.5369 19.3375,66.5169 11.9488,58.6803 12.5342,49.8823 13.7556,31.4643 23.7317,16.9547 37.3517,13.7789 41.6786,12.7712 47.7821,12.5656 53.8619,14.2364 Z M 65.0191,64.1135 C 69.9247,58.7333 72.0141,50.5354 71.2234,39.7518 70.6178,31.4941 67.3978,27.4996 61.429,23.2863 53.8249,17.9193 44.0709,15.3005 38.1323,16.6862 25.8178,19.5569 18.2137,31.7593 17.0765,48.8845 c -0.6225,9.3549 8.7985,17.0987 18.0142,20.9109 10.5784,4.3758 22.8862,2.0387 29.9284,-5.6819 z"
       fill="#2a39a9"
       id="path1" />
  </g>
  <path
     d="M 42.993068,7.152643 44.566468,1.6794311e-8 46.607768,0.10495702 l -0.3681,1.70535598 0.0699,0.00359 c 0.3006,-0.57333 0.6365,-1.01865998 1.008,-1.33600698 0.3808,-0.316865 0.8601,-0.460441 1.438,-0.430727 0.3542,0.018212 0.6496,0.089474 0.8862,0.213786 0.2459,0.124793 0.4431,0.289138 0.5915,0.493018 0.1488,0.19457 0.2541,0.41960998 0.3157,0.67510998 0.0616,0.2555 0.0853,0.52307 0.0709,0.8027 -0.0106,0.20506 -0.0353,0.41406 -0.0743,0.62701 -0.0297,0.21342 -0.0811,0.48648 -0.1543,0.81916 l -0.8408,3.81185 -2.0413,-0.10496 0.8957,-4.06136 c 0.0253,-0.12954 0.0507,-0.25907 0.0761,-0.38861 0.0351,-0.13838 0.0572,-0.29611 0.0663,-0.47321 0.0048,-0.09321 -0.0041,-0.1918 -0.0268,-0.29577 -0.0227,-0.10397 -0.0645,-0.19958 -0.1254,-0.28682 -0.061,-0.08725 -0.1462,-0.15705 -0.2556,-0.2094 -0.0997,-0.0612 -0.2287,-0.09587 -0.3872,-0.10402 -0.2423,-0.01246 -0.4549,0.03268 -0.6378,0.13543 -0.1828,0.10275 -0.359,0.25724 -0.5285,0.46347 -0.1097,0.13455 -0.2456,0.32382 -0.4077,0.56782 -0.1523,0.23515 -0.2594,0.50067 -0.3213,0.79655 l -0.8226,3.72868 z"
     fill="#2a39a9"
     id="path3" />
  <path
     d="m 1.2537483,44.978903 c -0.46604999,-0.024 -0.79907999,-0.1813 -0.99908399,-0.472 -0.190685,-0.2901 -0.274285,-0.6636 -0.250802,-1.1203 0.00671,-0.1305 0.026095,-0.3258 0.058157,-0.5858 0.041861,-0.2689 0.087185,-0.5142 0.135971,-0.736 l 0.98791799,-4.4912 1.64982,0.0848 -1.08938,4.5561 c -0.02248,0.0736 -0.04173,0.1754 -0.05776,0.3055 -0.01603,0.13 -0.0262,0.2369 -0.03052,0.3208 -0.00767,0.1491 0.01873,0.272 0.07918,0.3686 0.06094,0.0872 0.17063,0.1349 0.32909,0.143 0.13981,0.0072 0.26804,-0.0329 0.38469,-0.1204 0.12644,-0.0963 0.24525,-0.2257 0.3564,-0.3882 0.07052,-0.0991 0.13292,-0.2221 0.18719,-0.3688 0.0636,-0.1463 0.10879,-0.2982 0.13558,-0.4557 l 0.89397,-4.2998 1.57991,0.0813 -0.99511,4.631 c -0.02248,0.0736 -0.04639,0.1752 -0.07174,0.3047 -0.01603,0.13 -0.02573,0.2277 -0.02908,0.2929 -0.00671,0.1305 0.01526,0.2485 0.06591,0.3539 0.05998,0.1058 0.1692,0.1629 0.32765,0.171 0.16778,0.0086 0.34083,-0.0853 0.51915,-0.2817 0.17833,-0.1964 0.3367,-0.4593 0.47513,-0.7887 0.14822,-0.3381 0.27088,-0.7243 0.36798,-1.1586 0.10689,-0.4431 0.17256,-0.9023 0.197,-1.3777 0.01678,-0.3262 0.01001,-0.649 -0.0203,-0.9683 -0.02099,-0.3188 -0.06744,-0.5969 -0.13935,-0.8343 l 1.44768,-0.3461 c 0.1264,0.2682 0.22196,0.5909 0.28668,0.968 0.07404,0.3777 0.09884,0.8042 0.07439,1.2795 -0.04313,0.8389 -0.19476,1.6068 -0.45489,2.3037 -0.25081,0.6974 -0.57951,1.2739 -0.98612,1.7297 -0.31792,0.3668 -0.66857,0.6431 -1.05196,0.829 -0.3829,0.1766 -0.7701,0.2548 -1.16158,0.2347 -0.25167,-0.0129 -0.46389,-0.0659 -0.63668,-0.1589 -0.16346,-0.0925 -0.29753,-0.2116 -0.40219,-0.3571 -0.09534,-0.1451 -0.16152,-0.3121 -0.19854,-0.5009 -0.0277,-0.1883 -0.03162,-0.3848 -0.01176,-0.5894 l -0.09787,-0.005 c -0.38827,1.0081 -1.00652,1.4903 -1.85473,1.4467 z"
     fill="#2a39a9"
     id="path4" />
  <path
     d="m 82.147168,49.137903 c -1.0719,-0.0551 -1.8503,-0.3662 -2.3352,-0.9331 -0.4843,-0.5763 -0.7019,-1.3445 -0.6525,-2.3046 0.0345,-0.6711 0.1684,-1.2764 0.4018,-1.8157 0.2333,-0.5394 0.5418,-0.9955 0.9255,-1.3683 0.3929,-0.3723 0.8559,-0.6523 1.3889,-0.8398 0.533,-0.1876 1.1211,-0.2648 1.7642,-0.2317 0.3636,0.0187 0.7016,0.0781 1.0142,0.1783 0.3219,0.1006 0.5998,0.2411 0.8335,0.4213 0.2342,0.171 0.4147,0.3858 0.5416,0.6447 0.1273,0.2495 0.1824,0.5421 0.1651,0.8776 -0.0148,0.289 -0.0903,0.5748 -0.2263,0.8575 -0.136,0.2828 -0.3874,0.5362 -0.754,0.7603 -0.3569,0.2153 -0.8612,0.3903 -1.513,0.525 -0.642,0.1259 -1.4766,0.1811 -2.5038,0.1657 -0.0122,0.0554 -0.0192,0.1018 -0.0212,0.1391 -0.0014,0.0279 -0.0031,0.0606 -0.005,0.0978 -0.0201,0.3915 0.0717,0.6953 0.2756,0.9114 0.2038,0.2161 0.5527,0.3368 1.0468,0.3622 0.1957,0.0101 0.3738,6e-4 0.5341,-0.0286 0.1697,-0.0286 0.3315,-0.0857 0.4855,-0.1713 0.1637,-0.0944 0.324,-0.2123 0.4808,-0.3538 0.1666,-0.1503 0.3493,-0.3418 0.5482,-0.5746 l 1.2299,0.8904 c -0.2003,0.2607 -0.4186,0.5065 -0.6547,0.7373 -0.2264,0.222 -0.4842,0.419 -0.7734,0.5911 -0.2887,0.1627 -0.6128,0.2862 -0.9723,0.3705 -0.3595,0.0844 -0.7676,0.1148 -1.2243,0.0913 z m 1.209,-6.0639 c -0.4474,-0.023 -0.8366,0.0925 -1.1674,0.3465 -0.3303,0.2447 -0.5768,0.6759 -0.7394,1.2937 l -0.052,0.1936 c 0.6451,-0.0042 1.1515,-0.0389 1.5194,-0.1041 0.3771,-0.0647 0.6571,-0.1485 0.84,-0.2512 0.1921,-0.1023 0.3149,-0.2174 0.3682,-0.3455 0.0533,-0.1281 0.0829,-0.2481 0.0886,-0.36 0.0249,-0.4847 -0.2609,-0.7423 -0.8574,-0.773 z"
     fill="#2a39a9"
     id="path5" />
  <path
     d="m 42.629868,86.776003 c -0.727,-0.0374 -1.3512,-0.1676 -1.8724,-0.3907 -0.5114,-0.2319 -0.8785,-0.5451 -1.1012,-0.9397 l 1.2047,-1.0736 c 0.1902,0.2995 0.4586,0.5329 0.8051,0.7003 0.3563,0.1585 0.7489,0.2488 1.1777,0.2708 0.4194,0.0216 0.7537,-0.0267 1.0027,-0.1447 0.2589,-0.1269 0.395,-0.3208 0.4084,-0.5818 0.0101,-0.1957 -0.0526,-0.3391 -0.1881,-0.4302 -0.1351,-0.1004 -0.3086,-0.1794 -0.5205,-0.2371 l -1.0232,-0.2769 c -0.2674,-0.0698 -0.5199,-0.1575 -0.7575,-0.2632 -0.2282,-0.1052 -0.427,-0.2369 -0.5965,-0.3952 -0.1689,-0.1675 -0.2989,-0.3658 -0.3899,-0.5948 -0.0817,-0.2285 -0.1144,-0.5012 -0.0981,-0.8181 0.0206,-0.4008 0.118,-0.7509 0.2923,-1.0504 0.184,-0.3083 0.4258,-0.5575 0.7253,-0.7477 0.3093,-0.1991 0.667,-0.3395 1.0731,-0.4215 0.4065,-0.0912 0.8428,-0.1248 1.3089,-0.1009 0.6431,0.0331 1.2163,0.156 1.7193,0.3688 0.5036,0.2034 0.8684,0.4699 1.0944,0.7992 l -1.1774,1.089 c -0.148,-0.2132 -0.3768,-0.3979 -0.6865,-0.554 -0.3097,-0.1561 -0.6697,-0.2447 -1.0798,-0.2658 -0.3635,-0.0187 -0.6605,0.0315 -0.8909,0.1505 -0.2211,0.1195 -0.3383,0.3097 -0.3517,0.5707 -0.0101,0.1957 0.0433,0.3387 0.1601,0.4288 0.1267,0.0812 0.3007,0.1509 0.522,0.209 l 1.0644,0.2931 c 0.5991,0.1616 1.0637,0.3958 1.3937,0.7025 0.33,0.3067 0.48,0.7536 0.4498,1.3408 -0.0206,0.4009 -0.123,0.7554 -0.3071,1.0637 -0.1836,0.299 -0.4349,0.5524 -0.754,0.7603 -0.3186,0.1985 -0.7001,0.3471 -1.1444,0.4458 -0.4345,0.0898 -0.9221,0.1208 -1.4627,0.093 z"
     fill="#2a39a9"
     id="path6" />
  <defs
     id="defs6">
    <clipPath
       id="clip0_65_3610">
      <rect
         width="62"
         height="62"
         fill="#ffffff"
         transform="translate(12.5,13)"
         id="rect6"
         x="0"
         y="0" />
    </clipPath>
  </defs>
</svg>
