<svg width="23" height="19" viewBox="0 0 23 19" fill="none" xmlns="http://www.w3.org/2000/svg">
<path d="M19.4248 0.605758C19.8223 0.212926 20.3512 -0.00424764 20.8999 6.29632e-05C21.4487 0.00437357 21.9744 0.229832 22.366 0.628863C22.7577 1.02789 22.9848 1.56929 22.9993 2.1388C23.0138 2.70832 22.8146 3.26141 22.4438 3.68137L11.1862 18.2979C10.9926 18.5143 10.759 18.688 10.4993 18.8086C10.2396 18.9292 9.95908 18.9942 9.67462 18.9996C9.39016 19.0051 9.10756 18.951 8.84372 18.8404C8.57988 18.7299 8.34021 18.5653 8.13905 18.3564L0.673503 10.6059C0.465599 10.4048 0.298846 10.1622 0.183189 9.89276C0.0675327 9.62328 0.00534242 9.33238 0.000329319 9.0374C-0.00468378 8.74243 0.0475831 8.44943 0.154011 8.17588C0.260439 7.90233 0.418848 7.65384 0.619787 7.44523C0.820727 7.23662 1.06008 7.07216 1.32357 6.96167C1.58706 6.85118 1.86929 6.79692 2.15341 6.80212C2.43754 6.80733 2.71775 6.87189 2.97732 6.99196C3.23689 7.11203 3.47051 7.28515 3.66423 7.50099L9.57234 13.6317L19.3712 0.6702C19.3889 0.647649 19.4049 0.626134 19.4248 0.605758Z" fill="#6FCF97"/>
</svg>
