<svg width="18" height="25" viewBox="0 0 18 25" fill="none" xmlns="http://www.w3.org/2000/svg">
<path d="M13.9091 24.5C13.4705 24.5 13.0882 24.3007 12.762 23.902C12.4358 23.5033 12.2727 23.036 12.2727 22.5V2.5C12.2727 1.964 12.4358 1.49667 12.762 1.098C13.0882 0.699333 13.4705 0.5 13.9091 0.5H16.3636C16.8022 0.5 17.1845 0.699333 17.5107 1.098C17.8369 1.49667 18 1.964 18 2.5V22.5C18 23.036 17.8369 23.5033 17.5107 23.902C17.1845 24.3007 16.8022 24.5 16.3636 24.5H13.9091ZM1.63636 24.5C1.19782 24.5 0.815454 24.3007 0.489272 23.902C0.163091 23.5033 0 23.036 0 22.5V2.5C0 1.964 0.163091 1.49667 0.489272 1.098C0.815454 0.699333 1.19782 0.5 1.63636 0.5H4.09091C4.52945 0.5 4.91182 0.699333 5.238 1.098C5.56418 1.49667 5.72727 1.964 5.72727 2.5V22.5C5.72727 23.036 5.56418 23.5033 5.238 23.902C4.91182 24.3007 4.52945 24.5 4.09091 24.5H1.63636Z" fill="white"/>
</svg>
