<svg width="80" height="54" viewBox="0 0 80 54" fill="none" xmlns="http://www.w3.org/2000/svg">
<rect width="80" height="54" rx="27" fill="#D6346F"/>
<path d="M39.5 39.5C46.6797 39.5 52.5 33.6797 52.5 26.5C52.5 19.3203 46.6797 13.5 39.5 13.5C32.3203 13.5 26.5 19.3203 26.5 26.5C26.5 33.6797 32.3203 39.5 39.5 39.5Z" fill="white"/>
<g clip-path="url(#clip0_870_2312)">
<path d="M42.7101 27.6204C42.621 27.6119 42.5319 27.5992 42.447 27.5864C42.5361 27.5992 42.6252 27.6076 42.7101 27.6204Z" fill="#D6346F"/>
<path d="M39.5322 25.83C38.8406 24.485 36.9568 21.9774 35.2045 20.7427C33.5285 19.5547 32.8879 19.7626 32.4678 19.9493C31.9841 20.17 31.895 20.9167 31.895 21.3537C31.895 21.7907 32.1369 24.9517 32.2938 25.4778C32.8115 27.2174 34.6571 27.8071 36.3543 27.6204C36.4391 27.6077 36.5282 27.595 36.6173 27.5865C36.5282 27.5992 36.4434 27.612 36.3543 27.6204C33.8637 27.9896 31.6532 28.8976 34.5553 32.1264C37.7459 35.4316 38.9255 31.4178 39.5322 29.3855C40.1389 31.4178 40.839 35.2873 44.4539 32.1264C47.1694 29.3855 45.2007 27.9896 42.7101 27.6204C42.621 27.612 42.5319 27.5992 42.447 27.5865C42.5361 27.5992 42.6252 27.6077 42.7101 27.6204C44.4073 27.8114 46.2529 27.2216 46.7705 25.4778C46.9275 24.9517 47.1694 21.795 47.1694 21.3537C47.1694 20.9125 47.0803 20.17 46.5966 19.9493C46.1765 19.7584 45.5359 19.5547 43.8599 20.7385C42.1076 21.9732 40.2238 24.4807 39.5322 25.8257V25.83Z" fill="#D6346F"/>
</g>
<defs>
<clipPath id="clip0_870_2312">
<rect width="15.2743" height="13.5772" fill="white" transform="translate(31.895 19.8049)"/>
</clipPath>
</defs>
</svg>
