<svg width="80" height="54" viewBox="0 0 80 54" fill="none" xmlns="http://www.w3.org/2000/svg">
<rect width="80" height="54" rx="27" fill="#2A39A9"/>
<path d="M53.3911 21.2561C52.9752 18.4626 50.281 16.261 47.0872 15.8344C46.5483 15.7623 44.5067 15.5 39.7775 15.5H39.7422C35.0116 15.5 33.9967 15.7623 33.4579 15.8344C30.353 16.2492 27.5175 18.2274 26.8296 21.0541C26.4987 22.4461 26.4634 23.9895 26.5249 25.4052C26.6125 27.4353 26.6295 29.462 26.8335 31.4839C26.9746 32.827 27.2206 34.1593 27.5698 35.471C28.2238 37.8936 30.8709 39.9096 33.4644 40.732C36.2411 41.5898 39.2273 41.7322 42.0885 41.1433C42.4032 41.0771 42.7141 41.0003 43.021 40.9129C43.7168 40.7131 44.5316 40.4898 45.1306 40.0975C45.1388 40.0919 45.1455 40.0848 45.1503 40.0767C45.155 40.0685 45.1577 40.0594 45.158 40.0502V38.0909C45.1579 38.0823 45.1556 38.0738 45.1514 38.0661C45.1471 38.0583 45.141 38.0515 45.1335 38.0462C45.126 38.0409 45.1172 38.0372 45.1079 38.0353C45.0986 38.0334 45.0889 38.0334 45.0796 38.0354C43.2464 38.431 41.3679 38.6294 39.4832 38.6262C36.2397 38.6262 35.3674 37.2353 35.1175 36.6563C34.9168 36.1558 34.7893 35.6338 34.7383 35.1035C34.7377 35.0946 34.7395 35.0857 34.7436 35.0776C34.7475 35.0694 34.7536 35.0622 34.7612 35.0566C34.7689 35.0509 34.7779 35.047 34.7875 35.0451C34.7972 35.0432 34.8072 35.0434 34.8168 35.0456C36.6194 35.4386 38.4672 35.6369 40.3216 35.6365C40.7675 35.6365 41.2122 35.6365 41.6582 35.6258C43.5232 35.5786 45.4889 35.4923 47.3239 35.1685C47.3696 35.1602 47.4154 35.1532 47.4546 35.1425C50.349 34.6403 53.1034 33.0639 53.3832 29.072C53.3937 28.9149 53.4199 27.4259 53.4199 27.2628C53.4211 26.7086 53.6173 23.3312 53.3911 21.2561Z" fill="white"/>
<path d="M48.9151 24.3297V31.2857H45.8086V24.5346C45.8086 23.1134 45.1411 22.3885 43.7834 22.3885C42.2909 22.3885 41.5433 23.246 41.5433 24.9397V28.635H38.4555V24.9397C38.4555 23.246 37.7066 22.3885 36.214 22.3885C34.8643 22.3885 34.1902 23.1134 34.1902 24.5346V31.2857H31.085V24.3297C31.085 22.9085 31.4939 21.7793 32.3118 20.9424C33.1555 20.1073 34.2623 19.6786 35.636 19.6786C37.2259 19.6786 38.4274 20.221 39.2285 21.3048L40.0014 22.456L40.7757 21.3048C41.5767 20.221 42.7782 19.6786 44.3655 19.6786C45.7379 19.6786 46.8446 20.1073 47.691 20.9424C48.508 21.7785 48.916 22.9077 48.9151 24.3297Z" fill="#2A39A9"/>
</svg>
