<svg width="80" height="54" viewBox="0 0 80 54" fill="none" xmlns="http://www.w3.org/2000/svg">
<rect width="80" height="54" rx="27" fill="#2A39A9"/>
<path d="M39 39.5C46.1797 39.5 52 33.6797 52 26.5C52 19.3203 46.1797 13.5 39 13.5C31.8203 13.5 26 19.3203 26 26.5C26 33.6797 31.8203 39.5 39 39.5Z" fill="white"/>
<g clip-path="url(#clip0_870_2308)">
<path d="M42.2101 27.6204C42.121 27.6119 42.0319 27.5992 41.947 27.5864C42.0361 27.5992 42.1252 27.6076 42.2101 27.6204Z" fill="#2A39A9"/>
<path d="M39.0322 25.83C38.3406 24.485 36.4568 21.9774 34.7045 20.7427C33.0285 19.5547 32.3879 19.7626 31.9678 19.9493C31.4841 20.17 31.395 20.9167 31.395 21.3537C31.395 21.7907 31.6369 24.9517 31.7938 25.4778C32.3115 27.2174 34.1571 27.8071 35.8543 27.6204C35.9391 27.6077 36.0282 27.595 36.1173 27.5865C36.0282 27.5992 35.9434 27.612 35.8543 27.6204C33.3637 27.9896 31.1532 28.8976 34.0553 32.1264C37.2459 35.4316 38.4255 31.4178 39.0322 29.3855C39.6389 31.4178 40.339 35.2873 43.9539 32.1264C46.6694 29.3855 44.7007 27.9896 42.2101 27.6204C42.121 27.612 42.0319 27.5992 41.947 27.5865C42.0361 27.5992 42.1252 27.6077 42.2101 27.6204C43.9073 27.8114 45.7529 27.2216 46.2705 25.4778C46.4275 24.9517 46.6694 21.795 46.6694 21.3537C46.6694 20.9125 46.5803 20.17 46.0966 19.9493C45.6765 19.7584 45.0359 19.5547 43.3599 20.7385C41.6076 21.9732 39.7238 24.4807 39.0322 25.8257V25.83Z" fill="#2A39A9"/>
</g>
<defs>
<clipPath id="clip0_870_2308">
<rect width="15.2743" height="13.5772" fill="white" transform="translate(31.395 19.8049)"/>
</clipPath>
</defs>
</svg>
