<svg width="25" height="25" viewBox="0 0 25 25" fill="none" xmlns="http://www.w3.org/2000/svg">
<path d="M22.5405 7.12C22.4391 6.87565 22.2449 6.68147 22.0005 6.58C21.8803 6.52876 21.7512 6.50158 21.6205 6.5H16.6205C16.3553 6.5 16.101 6.60536 15.9134 6.79289C15.7259 6.98043 15.6205 7.23478 15.6205 7.5C15.6205 7.76522 15.7259 8.01957 15.9134 8.20711C16.101 8.39464 16.3553 8.5 16.6205 8.5H19.2105L13.6205 14.09L10.3305 10.79C10.2376 10.6963 10.127 10.6219 10.0051 10.5711C9.88326 10.5203 9.75256 10.4942 9.62054 10.4942C9.48853 10.4942 9.35783 10.5203 9.23597 10.5711C9.11411 10.6219 9.00351 10.6963 8.91054 10.79L2.91054 16.79C2.81682 16.883 2.74242 16.9936 2.69165 17.1154C2.64088 17.2373 2.61475 17.368 2.61475 17.5C2.61475 17.632 2.64088 17.7627 2.69165 17.8846C2.74242 18.0064 2.81682 18.117 2.91054 18.21C3.00351 18.3037 3.11411 18.3781 3.23597 18.4289C3.35783 18.4797 3.48853 18.5058 3.62054 18.5058C3.75256 18.5058 3.88326 18.4797 4.00512 18.4289C4.12698 18.3781 4.23758 18.3037 4.33054 18.21L9.62054 12.91L12.9105 16.21C13.0035 16.3037 13.1141 16.3781 13.236 16.4289C13.3578 16.4797 13.4885 16.5058 13.6205 16.5058C13.7526 16.5058 13.8833 16.4797 14.0051 16.4289C14.127 16.3781 14.2376 16.3037 14.3305 16.21L20.6205 9.91V12.5C20.6205 12.7652 20.7259 13.0196 20.9134 13.2071C21.101 13.3946 21.3553 13.5 21.6205 13.5C21.8858 13.5 22.1401 13.3946 22.3277 13.2071C22.5152 13.0196 22.6205 12.7652 22.6205 12.5V7.5C22.619 7.36932 22.5918 7.24022 22.5405 7.12Z" fill="#79F561"/>
</svg>
