<?xml version="1.0" encoding="utf-8"?>
<!-- Generator: $$$/GeneralStr/196=Adobe Illustrator 27.6.0, SVG Export Plug-In . SVG Version: 6.00 Build 0)  -->
<svg version="1.1" id="Calque_2_00000076574870256153906300000005118343300825104285_"
	 xmlns="http://www.w3.org/2000/svg" xmlns:xlink="http://www.w3.org/1999/xlink" x="0px" y="0px" viewBox="0 0 667.8 273.5"
	 style="enable-background:new 0 0 667.8 273.5;" xml:space="preserve">
<style type="text/css">
	.st0{fill:#AD2A69;}
	.st1{fill:#D6346F;}
</style>
<g id="Calque_1-2">
	<g>
		<g>
			<path class="st0" d="M589.6,31.3c4.2-9.1,8.7-18.9,12-28.5c1.4-2.2,2.7-3.5,4.5-2.5c2.2,1.2,6.5,6.3,7.7,8.8
				c1.2,2.4-1.5,6-3.1,8.6c-9.8,16.7-21.1,32.6-30.9,49.3c-1.7,2.9-2.7,5.8-5.5,8.1c-1.3,1.1-4,0.6-4-1.1c0-0.6,1.5-4.6,1.9-5.5
				C576.8,56.7,584.1,43.3,589.6,31.3L589.6,31.3z"/>
			<path class="st0" d="M652.6,32.3c0.8,0.4,1.8,1.6,2.3,2.4c0.8,1.1,2.2,3.7,2.8,5c0.7,1.8-1.1,2.7-2.6,3.8
				c-7,5.2-15,10.1-21.7,15.7c-3.1,2.6-5.9,5.7-8.9,8.4c-3.3,2.9-6.6,4.9-10,7.5c-7.8,5.9-14.9,13-22.5,19.2c-2,0.9-3.2,0.1-3.8-1.4
				c-0.5-1.3,0.2-2.7,1.4-3.9c2.4-2.7,8.6-7.1,11.7-9.8C614.4,67.9,626.5,55,639.4,43c3.2-2.9,7.1-6.8,10.3-9.4
				C650.5,33,651.8,32,652.6,32.3L652.6,32.3z"/>
			<path class="st0" d="M667.8,69c-0.1,1.2-0.8,2-1.8,2.7c-2.3,1.5-6.8,3.2-9.5,4.6c-12.7,6.7-25,15-37.7,21.6
				c-1.7,0.9-4.2,2.2-5.9,2.3c-3.2,0.3-4.9-1.8-2-5.2c12.5-11,26.3-18.3,39.6-27.3c2.5-1.7,4.9-3.5,7.3-5.2c1-0.7,4.6-3.3,5.4-3.4
				c1-0.1,1.7,0.7,2.4,1.1C665.7,62.9,668,66.6,667.8,69L667.8,69z"/>
			<path class="st0" d="M613.7,120.3c-3.1,0.5-6.5,1.1-9.6,1.9c-3.5,0.9-7.4,2.9-10.7,2.3c-2-0.3-3.4-2.6-1.2-4.8
				c0.3-0.2,2.9-1.8,3.4-2c12.2-5.7,28-9.4,40.7-13.4c3.6-1.1,7.8-3,11.3-3.8c0.6-0.1,1.2-0.3,1.6,0.1c0.9,0.9,1.2,8.5,0.9,10.3
				c-0.2,1.2-0.4,2.1-1.7,2.8c-1.5,0.7-5.4,1.1-7.2,1.5C631.5,117.5,623.1,118.6,613.7,120.3L613.7,120.3z"/>
			<path class="st0" d="M569.1,17.5c-0.2,4.3-3.8,11.5-5.5,16c-2.5,6.9-3.1,12.5-4.8,19.1c-0.6,2.5-1.7,5.2-2.5,7.8
				c-1.1,3.9-2,9.8-5.2,13.1c-2.1,2.1-4.1,0.3-4.3-1.7c-0.1-1,0.4-4.4,0.6-5.7c0.6-3.9,1.8-7.9,2.5-11.8c1.6-9.5,2.4-18.2,5-28
				c0.4-1.5,3-10.2,3.6-10.8c0.9-0.9,9-1.8,9.9-1.2C568.8,14.8,569.2,16.7,569.1,17.5L569.1,17.5z"/>
			<path class="st0" d="M640.5,17.2c-0.1,0.4-4.2,5.8-4.9,6.6c-4.4,5.5-9.3,10.8-13.8,16.3c-7.4,9-14.9,18-22.2,27
				c-1.6,1.9-1.7,2.9-4,4.5c-2.3,1.6-5-0.6-4-2.8c0.2-0.5,0.8-1.4,1.1-1.9c3.1-4.8,7.5-10.6,11-15.3c8-10.7,18.7-22.3,25-33.7
				c1.4-2.6,3.4-8.9,6.8-6.8c1.2,0.7,3.6,3.3,4.4,4.5C640.1,16,640.6,16.8,640.5,17.2L640.5,17.2z"/>
			<path class="st0" d="M592.7,133.8c0-0.1-0.1-1.2-0.1-1.2c0.2-0.8,1.6-2.4,2.3-3c2.4-2.2,6.3-1.8,8.8-2c1.2-0.1,4.1-0.7,5-0.7
				c0.6,0.1,1,0.3,1.2,0.9c0.1,0.2,0.2,4.1,0.2,4.6c0,1,0.1,2.1-1.2,2.2c-1.6,0.2-4.8,0-6.6,0c-3,0-6-0.4-9-0.3
				C593,134.2,592.8,134.1,592.7,133.8L592.7,133.8z"/>
		</g>
		<g>
			<path class="st0" d="M47.9,260c-3.9,3.9-8,8.1-11.5,13c-1.1,0.7-2,0.9-2.8-1.1c-0.9-2.3-2.1-8.8-2.2-11.4s1.9-3.4,3.2-4.3
				c8.2-5.8,16.9-10.2,25.1-15.9c1.4-1,2.5-2.4,4.3-2.4c0.9,0,2.1,2.1,1.8,3.4c-0.1,0.4-1.6,2.4-2,2.8C59.3,249.8,53,254.8,47.9,260
				L47.9,260z"/>
			<path class="st0" d="M34.4,233.9c2.9-1,6.3-2,9.2-3.3c3.3-1.5,6.9-3.9,10.2-3.9c2,0,3.8,2.1,1.9,4.5c-0.2,0.3-2.6,2.2-3,2.4
				c-11.2,7.5-26.2,13.5-38.2,19.5c-3.4,1.7-7.2,4.2-10.6,5.5c-0.5,0.2-1.2,0.5-1.6,0.2c-1-0.8-2.5-8.2-2.5-10
				c0.1-1.2,0.1-2.2,1.3-3c1.4-1,5.1-1.9,6.8-2.6C17.2,239.3,25.4,237,34.4,233.9L34.4,233.9z"/>
			<path class="st0" d="M53.1,217.4c0,0.1,0.2,1.2,0.2,1.2c0,0.8-1.3,2.6-1.8,3.3c-2,2.5-5.9,2.7-8.4,3.3c-1.2,0.3-3.9,1.4-4.9,1.4
				c-0.6,0-1-0.2-1.3-0.7c-0.1-0.2-0.8-4-0.9-4.5c-0.1-1-0.4-2,0.8-2.4c1.6-0.5,4.8-0.8,6.5-1c3-0.4,6-0.5,9-1.1
				C52.7,216.9,52.9,217.1,53.1,217.4L53.1,217.4z"/>
		</g>
		<g>
			<path class="st1" d="M77.6,189.9c0-8.3-0.6-16.6-1-25.1c0-1.6-0.1-3.3-0.1-4.9c0-5.5,0.4-11.1,0.4-16.4l8.4-0.6
				c0,5.5-0.4,11-0.4,16.4c0,1.7,0.1,3.2,0.1,4.5c0.1,5,0.5,10.2,0.7,15.4c11.3-1.1,22.6-3.1,34.3-4c3-0.2,8.6,0,13.1-0.1
				c0-2.6,0-5.6,0.1-8.1c0.2-9.3,1.3-18.8,1.3-27.5l8.4-0.6c0,9.3-1.1,18.9-1.3,27.8c-0.1,3.3-0.1,6.8-0.1,10.9
				c0,11.2,0.4,22.5,0.6,33.9c0.1,1.6,0.7,4,0.7,6.7l-8.4,0.6c0-1.5-0.6-3.6-0.7-6.4c-0.2-9.5-0.5-19.1-0.6-28.6
				c-4.8,0.1-10.5-0.1-13.1,0.1c-11.3,0.8-22.6,2.9-34.1,3.9v1.5c0,11.9-1.7,22.1-1.7,33.4l-8.4,0.6
				C75.9,211.4,77.6,201.3,77.6,189.9L77.6,189.9z"/>
			<path class="st1" d="M168.3,216.1c-2.9-1.9-7-6.1-8.8-9l-0.2-0.1c-1.3-2.3-2.1-5.8-2.3-9.7c-1.8,0.7-3.4,1.3-4,1.4l-0.2,0V189
				l0.2,0c0.5,0,2.4-0.8,4.3-1.7c1.6-12.9,6.7-27.8,11.9-32.9c1.2-1.2,2.6-1.8,5.3-2.7c1.3-0.3,2.5-0.6,3.7-0.6
				c5.3-0.4,11,5.5,14.6,9.7c2.3,2.4,2.9,4.3,2.2,6.1c-0.8,2.3-2.6,3.9-3.5,4.8c-7.3,9.2-15.8,15.4-25.8,21.6
				c-0.4,0.3-1.2,0.7-2.4,1.3c0,3.1,0.2,4.5,1.1,6.3c-0.1,0.7,3.2,4,6.5,6.2l1,0.7c0.8,0.1,3.6,0.4,6.1,0.2l2.1-0.1l7.7-9.4l5.1,5.9
				l-8.9,11.1h0.1c-1.2,1.5-3.1,2.2-6,2.4C174.2,217.9,170,217.2,168.3,216.1L168.3,216.1z M186.5,165.6l0.1-0.2
				c-2.1-2.3-5.5-4.8-8.3-4.6c-0.8,0.1-2.5,0.3-2.8,0.4c-2.1,0.6-2.8-1-2.6-2c-3.9,4.2-7.1,14.8-8.7,24.5
				C172.1,179.5,178.5,176.1,186.5,165.6L186.5,165.6z"/>
			<path class="st1" d="M201.2,215c-2.2-0.2-3-2.5-3-7.6c0-1,0.1-2.2,0.1-2.9c0.7-7.4,2.4-14.3,3.2-20.6c2.2-15.6,4.9-24.1,8.8-37.5
				c0.8-2.8,1.4-4.9,1.9-6.6c-3.2,1.9-5.2,2.8-6.9,2.9l-0.2,0v-9.9l0.2,0c1.3-0.1,3.2-1.1,6.3-3.1c1.7-1.1,2.8-2,3.5-2.4
				c4.6-2.3,5.9-4.1,6.1-4.3c-0.2,0.4-1.3,2.5-0.8,7.7c0.4,4.6-3,15.5-3.7,18.1c-4.3,14.8-6.9,22.7-8.7,36c-1,7.3-2.5,14.1-3.2,20.2
				v0.1c8.7-1,7.6-8.6,16.7-12.7l0.2,0l2.2,9.1l-0.2,0c-3.4,1.5-9.6,12.8-19.5,13.5C203.1,215.1,202.3,215.1,201.2,215L201.2,215z"
				/>
			<path class="st1" d="M230,212.9c-2.2-0.2-3-2.5-3-7.6c0-1,0.1-2.2,0.1-2.9c0.7-7.4,2.4-14.3,3.2-20.6c2.2-15.6,4.9-24.1,8.8-37.5
				c0.8-2.8,1.4-4.9,1.9-6.6c-3.2,1.9-5.2,2.8-6.9,2.9l-0.2,0v-9.9l0.2,0c1.3-0.1,3.2-1.1,6.3-3.1c1.7-1.1,2.8-2,3.5-2.4
				c4.6-2.3,5.9-4.1,6.1-4.3c-0.2,0.4-1.3,2.5-0.8,7.7c0.4,4.6-3,15.5-3.7,18.1c-4.3,14.8-6.9,22.7-8.7,36c-1,7.3-2.5,14.1-3.2,20.2
				v0.1c8.7-1,7.6-8.6,16.7-12.7l0.2,0l2.2,9.1l-0.2,0c-3.4,1.5-9.6,12.8-19.5,13.5C231.9,213,231.1,213,230,212.9L230,212.9z"/>
			<path class="st1" d="M267.7,211.6c-2.6-1-6.5-1.8-9-3.2c-2.9-1.6-4.3-4.3-4-9.7c0.4-6.1,2.4-13.1,3.2-15.9
				c3-9.7,4.8-21.6,12.8-30.7c-2.2-0.8-1.8-1.2,2.4-3.1c5.2-2.3,10.8-3.5,18.9-4.1l0.2,0l-0.1,2.4l2.3-2.7h0.1
				c1.9-0.1,2.8,1.4,2.8,4.3c0,2.2-0.5,3.8-0.6,6.1c-0.4,5.6-1.1,11.1-1.7,16.4c-0.5,3.9-1.2,11.8-2.8,18.2
				c6.9-9.3-3.1,11.9-11.1,19.6c-2,2-2.4,1.6-5.4,1.9C272.6,211.4,267.9,211.6,267.7,211.6L267.7,211.6z M277.4,201.2
				c2.6-4.5,5.8-7,6.9-8.7c1.9-3.3,3.2-8,4.5-20.9c0.5-5.4,1.3-10.8,1.6-16V155c-7,0.5-11.7,1.5-15.4,3.2l0.2,0.1h0.1
				c-6.6,7.7-8.2,16.4-11.1,26.4c-0.8,3.5-2.4,8.8-2.9,13.5c-0.2,2.1,0,2.8,1,3.5c0.4,0,2.4,0.3,6.3,0c0.1,0,4.9-0.2,8.2-0.5
				L277.4,201.2L277.4,201.2z"/>
			<path class="st1" d="M318.1,198.6c-3.9-3.6-6.9-8.4-8.7-14.1c-1.3-4.2-3.2-9.8-3.2-15.6c0-7.4,1-14.2,2.9-19.6
				c3.9-11.1,10.7-20.4,17.5-23.1c2.3-1,10-2.3,15.2-2.7c2-0.2,3.6-0.1,4.7,0.2c3.1,0.5,6,2.6,8.3,3.9c3.6,1.9,4.5,4.1,7.4,5.3
				l-2.6,6.2l4.1-3.8c0.6,1.4,4.3,8,4.3,11.5c0,1.3,1.1,4.4,1.2,6.5c0.2,3.3,0.4,7.5,0.4,12.1c0,9.8-6.1,20.8-9.3,26.1
				c-4.6,7.6-13.1,12.7-23,13.4C329.7,205.2,322.8,203,318.1,198.6L318.1,198.6z M395.3,231.8c-1.9-0.5-3.7-1.1-5.7-1.4
				c-6.9-0.8-14.3-1.8-21.6-4h0.1c-6.3-1.8-11.8-2.6-17.6-4.3l-0.1-0.1c-2.2-0.7-4.9-1.4-8.2-2.6l-0.1-0.1c-3.1-1.2-6.4-2.1-9.3-2.6
				c-2.2-1.2-2.5-1.2-2.9-1.1c-4.6,0.3-7.8,4.1-7.8,5.7c0,0.2,0-0.1,0.2,0.6c0,0.6,0.2,1.1,2,3.5l-6.9,6.2c-1.1-1.6-2.6-3.6-3.4-6.3
				c-0.2-1-0.5-2.3-0.5-3.4c0-7.8,7.7-14.2,17.5-14.9c0.8-0.1,1.6,0,3,0c4,0.6,8.2,3.1,11.6,4.4c2.2,0.8,5.1,1.6,8,2.5h-0.1
				c6,1.9,11.4,2.6,17.3,4.4h0.1c6.3,2,13.1,2.8,20.1,3.8c1.9,0.2,4.1,0.9,6.1,1.4c8.4,1.7,21.9-0.1,32.3-0.9l3.5-0.3
				c6.5-1,9.9-1.8,11.6-2.9c1-0.4,2.3-1.8,4.2-2.1l1.6,8.3c0.5-0.2-1.6,1-2.5,1.5c-4.6,2.5-11.1,3.4-14.6,3.9l-3.7,0.3
				C418.7,231.8,404.7,233.6,395.3,231.8L395.3,231.8z M353,186.5c5.4-9.2,8-15.7,8-20.7c0-4.3-0.1-8.3-0.4-11.4
				c0-0.6-1.2-4.1-1.2-7.1c0-0.5-1.7-3.7-2.8-5.6l0.5-0.4c-2.6-1.6-5.5-4.5-6.7-5.1c-2.4-1.3-4.1-2.6-6.1-3c-0.1-0.1-1.3,0-2.5,0.1
				c-3.9,0.3-11.3,1.4-12.5,1.9c-4.3,1.9-9.4,8.7-12.3,16.9c-1.6,4.6-2.3,9.9-2.3,16.3c0,4,1.3,8.1,2.9,12.7
				c1.3,4.3,3.2,7.3,6.5,10.3c2.8,2.6,7.8,4.1,13.1,3.7C344.2,194.4,350.4,191,353,186.5L353,186.5z"/>
			<path class="st1" d="M410.9,186.3c0.5-2.2,1-4.5,1.6-6.7c-4.8,6.4-10,12.3-15.3,15.8l-14.5,6.5c-2.2,0.2-2.3-0.3-4.9-2h-0.1v-4
				c1.5-5.1,2.8-9.1,3.6-12.8c3.2-13.4,9-21.9,12.9-33.6c0.1-0.2,0.2-0.5,0.4-0.9c-6.5,6.8-11.2,10.6-11.3,8.8l-4.6,1.4l-0.2,0
				c0-5.1,1.3-4.7,12.8-15.9l0.1-0.1c4.2-4.2,8-7.1,10-9l0.4,0l4.3,4.7c0,0.6-18.1,45.2-18.4,46.7c-0.5,2.2-1.1,4.2-1.6,6.1
				c3.9-1.4,8.3-4.1,8.7-4.4c8.5-6.1,16.6-16.3,26-33c0.6-1.1,1.2-2.2,1.8-3.3c1.9-4,3.5-7.2,4.7-9.4c0.2-0.5,0.4-0.9,0.6-1.4h0.1
				c-0.1-2.8-0.4-6.9,3.9-7.2c2-0.1,3.7,3.1,3.4,6.6c-0.4,2.9-3.7,9.5-8.3,18.7c-4.1,9.7-7.1,18-9.1,27.8c0.5,0.8,0.7,2.5,0.7,4
				c0.5-0.3,0.8-0.6,0.8-0.9h0.1c8.9-6.9,14-13.4,15.4-21.4l0.4,0l6,1.6l0.2,0c-2.3,10.8-8.5,20.1-18.7,27.9
				c-5.2,3.4-10.2,5.8-11,4.2C408.5,199,410.4,187.2,410.9,186.3L410.9,186.3z"/>
			<path class="st1" d="M444.5,190.4c0-5.6,1.9-11.2,2.5-14.2c3.1-14.4,3.7-17.5,7.2-30.3c0.1-0.5,0.2-0.9,0.4-1.4
				c-2.8,1.2-4.7,1.7-7,1.9v-9.9c2.9-0.2,4.8-0.8,9.3-3c4-1.9,4.3-2.6,5.9-1.4c1.9,1.7-0.1,6.8-2.6,16.1
				c-3.9,13.8-4.3,16.5-7.1,29.8c-0.6,2.5-1.3,5-1.8,7.3c2.9-1.7,5.5-2.8,7.5-4.3l3.2,8.1c-4.5,3.2-8.2,4.9-10.4,6.1
				C448.5,198.1,444.4,198.7,444.5,190.4L444.5,190.4z M458,112.2h0.1c3.6-2.1,6.6-5.1,11.4-5.5l0.2,0v11.9l-0.2,0
				c-3.4,0.2-4.5,1.9-7.8,3.9l-0.4,0L458,112.2L458,112.2z"/>
			<path class="st1" d="M469.8,190.2c-0.2-1.3-0.4-3-0.4-4.7c0-11.2,4.8-30.6,8.1-38.3c0.1-0.2,0.2-0.6,0.5-1.3l-5.7,0.4v-7.4
				l8.8-0.6c3-7.7,6.9-17.6,7-17.7l7.1-0.5c0,2.7-2.9,10.6-5.8,17.7c5.2-0.3,10.4-0.6,14.9-1l0.2,0v7.4l-0.2,0
				c-5.5,0.4-11.8,0.7-18.1,1.2c-1.1,2.5-1.8,4.4-2.2,5.2c-4,9.4-8.2,26.1-8.2,34.4c3.9-1.6,10.4-7.6,10.4-6l6-0.4
				c0,5-12.2,16.4-17.8,16.8C472.1,195.5,470.5,193.9,469.8,190.2L469.8,190.2z"/>
		</g>
		<path class="st1" d="M504,191.1l26.8-42.3l-32.2-50.6l23.7-1.2l20.7,32.4L565,95l9.6-0.7l-26.9,42.5l32.5,50.6l-23.9,1.2
			l-20.6-32.5l-22.2,34.6L504,191.1L504,191.1L504,191.1z M568.9,181.5L521,106l-9.6,0.5l47.6,75.5L568.9,181.5L568.9,181.5
			L568.9,181.5z"/>
	</g>
</g>
</svg>
