<?xml version="1.0" encoding="utf-8"?>
<svg id="Calque_2" data-name="Calque 2" viewBox="0 0 1366 537.47809" version="1.1" width="1366" height="537.47809" xmlns="http://www.w3.org/2000/svg">
  <defs id="defs1">
    <style id="style1">
      .cls-1 {
        fill: #2a39a9;
      }

      .cls-2 {
        fill: #dc1822;
        opacity: .1;
      }

      .cls-3 {
        fill: #ebece7;
      }
    </style>
  </defs>
  <g id="Calque_1-2" data-name="Calque 1" style="" transform="matrix(1.000515, 0, 0, 1, -0.696519, 0.048453)">
    <g id="g2">
      <rect class="cls-1" y="0" width="1366" height="537.47809" id="rect1" x="0" style="stroke-width:0.740195"/>
      <path style="display:inline;opacity:0.500148;fill:none;fill-opacity:1;stroke:#e2e4df;stroke-opacity:1" d="M 0.808 463.207 C 7.4 467.232 8.84 473.36 12.39 475.73 C 19.49 480.47 27.19 489.52 35.24 493.83 C 58.17 506.12 82.25 499.84 106.34 496.5 C 136.2 492.36 164.86 481.96 190.16 465.57 C 209.73 452.89 230.83 441.91 248.29 435.4 C 269.26 427.58 284.98 434.33 305.95 432.53 C 331.29 430.36 345.27 416.32 366.9 406.48 C 394.75 393.8 439.74 388.51 470.63 390.71 C 505.24 393.17 538.47 413.29 573.67 416.08 C 607.48 418.76 638.52 410.13 672.33 416.54 C 698.44 421.49 723.11 432.99 750.35 430.98 C 806.34 426.86 848.72 395.56 906.6 407.6 C 934.07 413.32 963.45 431.06 990.17 433.78 C 1013.65 436.18 1036.67 428.57 1059.22 432.92 C 1077.3 436.41 1092.9 445.2 1109.82 451.85 C 1138.19 463 1161.09 476.85 1192.17 466.77 C 1233.27 453.44 1241.73 433.46 1292.38 438.63 C 1312.69 440.7 1321.776 460.504 1341.786 457.324 C 1341.786 457.324 1355.698 467.252 1366.8 462.142" id="path1"/>
    </g>
  </g>
</svg>
