<?xml version="1.0" encoding="UTF-8" standalone="no"?>
<svg
   id="Calque_2"
   data-name="Calque 2"
   viewBox="0 0 1366.4333 537.47809"
   version="1.1"
   width="1366.4333"
   height="537.47809"
   xmlns="http://www.w3.org/2000/svg"
   xmlns:svg="http://www.w3.org/2000/svg">
  <defs
     id="defs1">
    <style
       id="style1">
      .cls-1 {
        fill: #2a39a9;
      }

      .cls-2 {
        fill: #dc1822;
        opacity: .1;
      }

      .cls-3 {
        fill: #ebece7;
      }
    </style>
  </defs>
  <g
     id="Calque_1-2"
     data-name="Calque 1">
    <g
       id="g2">
      <rect
         class="cls-1"
         y="0"
         width="1366"
         height="537.47809"
         id="rect1"
         x="0"
         style="stroke-width:0.740195" />
      <path
         class="cls-3"
         d="m 12.39,475.73 c 7.1,4.74 14.8,13.79 22.85,18.1 22.93,12.29 47.01,6.01 71.1,2.67 29.86,-4.14 58.52,-14.54 83.82,-30.93 19.57,-12.68 40.67,-23.66 58.13,-30.17 20.97,-7.82 36.69,-1.07 57.66,-2.87 25.34,-2.17 39.32,-16.21 60.95,-26.05 27.85,-12.68 72.84,-17.97 103.73,-15.77 34.61,2.46 67.84,22.58 103.04,25.37 33.81,2.68 64.85,-5.95 98.66,0.46 26.11,4.95 50.78,16.45 78.02,14.44 55.99,-4.12 98.37,-35.42 156.25,-23.38 27.47,5.72 56.85,23.46 83.57,26.18 23.48,2.4 46.5,-5.21 69.05,-0.86 18.08,3.49 33.68,12.28 50.6,18.93 28.37,11.15 51.27,25 82.35,14.92 41.1,-13.33 49.56,-33.31 100.21,-28.14 20.31,2.07 40.62,19.37 60.63,16.19 1.97,0.5 8.4,0.04 12.99,-0.16 -0.45,-14.27 1.17,-432.87 0,-454.66 H 0 v 469.73 c 4.01,1.33 8.84,3.63 12.39,6 z"
         id="path1" />
      <path
         class="cls-2"
         d="m 818.66,420.24 c -10.09,22.42 -23.06,45.48 -46.04,58.82 -4.48,2.78 -9.05,5.41 -13.64,7.83 -29.67,13.42 -65.7,19.18 -98.02,8.13 -3.71,-1.32 -7.38,-2.76 -11.01,-4.32 -14.52,-6.25 -28.32,-14.41 -40.73,-24.12 -3.72,-2.91 -7.32,-5.96 -10.78,-9.14 -13.25,-13.34 -26.22,-27.76 -31.96,-44.47 -1.42,-4.34 -2.48,-8.84 -3.22,-13.42 -5.93,-36.69 8.29,-79.16 28.67,-107.03 2.33,-2.37 4.71,-4.7 7.14,-6.96 3.63,-3.4 7.37,-6.66 11.21,-9.73 35.55,-37.52 89.51,-51.78 133.08,-27.6 4.36,2.42 8.61,5.22 12.93,8.4 30.5,18.57 50.57,47.39 60.78,79.79 1.46,4.63 2.72,9.33 3.78,14.09 0.84,3.35 1.5,6.7 2.01,10.06 1.58,15.8 1.58,31.65 -2.33,48.13 -1.16,2.84 -2.18,6.08 -1.86,11.54 z"
         id="path2" />
    </g>
  </g>
</svg>
