<?xml version="1.0" encoding="UTF-8"?>
<svg id="uuid-1363bc13-5675-41c9-b86e-89456e820b68" data-name="Calque 1" xmlns="http://www.w3.org/2000/svg" viewBox="0 0 745.48 300">
  <g>
    <path d="m638.31,54.53c4.2-9.13,8.72-18.9,12-28.47,1.39-2.18,2.66-3.52,4.55-2.49,2.24,1.23,6.5,6.34,7.7,8.76,1.19,2.41-1.5,5.98-3.07,8.65-9.8,16.7-21.07,32.64-30.88,49.3-1.7,2.89-2.73,5.77-5.51,8.11-1.35,1.14-3.96.64-3.99-1.1,0-.58,1.51-4.6,1.86-5.53,4.52-11.87,11.83-25.28,17.34-37.24h0Z" fill="#ad2a69"/>
    <path d="m701.34,55.52c.85.38,1.78,1.61,2.35,2.38.84,1.13,2.24,3.68,2.8,5.04.73,1.75-1.12,2.74-2.59,3.83-6.95,5.18-14.96,10.06-21.66,15.7-3.11,2.62-5.87,5.73-8.91,8.44-3.26,2.91-6.62,4.95-10,7.49-7.82,5.88-14.89,13.03-22.54,19.21-1.96.93-3.19.09-3.85-1.42-.55-1.26.23-2.65,1.36-3.91,2.38-2.66,8.58-7.08,11.66-9.76,13.17-11.44,25.31-24.33,38.18-36.3,3.15-2.92,7.07-6.81,10.3-9.4.79-.63,2.12-1.63,2.89-1.29h.01Z" fill="#ad2a69"/>
    <path d="m716.51,92.26c-.09,1.17-.77,1.98-1.81,2.66-2.31,1.52-6.8,3.24-9.46,4.64-12.71,6.65-24.99,14.96-37.67,21.64-1.73.91-4.19,2.21-5.9,2.35-3.25.26-4.93-1.81-2.02-5.21,12.48-11.01,26.26-18.34,39.58-27.28,2.47-1.66,4.86-3.54,7.32-5.23,1.04-.71,4.61-3.29,5.4-3.36.97-.09,1.72.67,2.41,1.1.05,2.56,2.35,6.29,2.16,8.68h0Z" fill="#ad2a69"/>
    <path d="m662.39,143.53c-3.06.54-6.53,1.06-9.6,1.89-3.48.94-7.42,2.86-10.73,2.33-2.01-.32-3.41-2.64-1.22-4.75.26-.25,2.92-1.76,3.36-1.97,12.25-5.7,27.98-9.37,40.68-13.45,3.56-1.14,7.8-3.03,11.3-3.84.58-.13,1.21-.32,1.59.07.89.93,1.25,8.52.91,10.28-.23,1.17-.44,2.14-1.7,2.77-1.49.74-5.37,1.11-7.15,1.54-9.59,2.32-17.98,3.45-27.43,5.12h-.01Z" fill="#ad2a69"/>
    <path d="m617.82,40.76c-.24,4.28-3.84,11.52-5.47,16.03-2.48,6.87-3.14,12.47-4.82,19.1-.63,2.46-1.74,5.25-2.48,7.77-1.14,3.85-2.01,9.84-5.22,13.07-2.08,2.09-4.09.35-4.34-1.7-.13-1.03.38-4.38.57-5.67.59-3.9,1.79-7.9,2.45-11.8,1.62-9.53,2.37-18.19,5.02-27.98.39-1.45,2.98-10.16,3.58-10.81.86-.94,9.02-1.82,9.86-1.17.54.42.91,2.33.86,3.18v-.02Z" fill="#ad2a69"/>
    <path d="m689.23,40.43c-.09.39-4.24,5.76-4.92,6.62-4.42,5.54-9.3,10.78-13.83,16.26-7.41,8.97-14.86,17.99-22.18,27.05-1.57,1.94-1.68,2.93-4.03,4.54-2.34,1.6-4.95-.62-4.01-2.81.22-.51.79-1.39,1.13-1.91,3.06-4.82,7.5-10.64,11.01-15.3,8.02-10.67,18.74-22.27,24.99-33.7,1.44-2.63,3.42-8.87,6.8-6.8,1.2.74,3.57,3.27,4.42,4.47.23.32.72,1.12.62,1.58h0Z" fill="#ad2a69"/>
    <path d="m641.45,156.98c-.02-.05-.07-1.19-.06-1.25.15-.78,1.64-2.41,2.3-3.01,2.38-2.15,6.26-1.79,8.8-2.01,1.25-.11,4.09-.74,5.03-.66.62.06.99.32,1.23.87.08.19.22,4.08.2,4.59-.04,1.03.07,2.05-1.2,2.23-1.62.22-4.85.04-6.59.02-3.03-.04-5.95-.43-9.05-.27-.34-.04-.57-.19-.68-.51h.02Z" fill="#ad2a69"/>
  </g>
  <g>
    <path d="m83.35,264.65c-3.88,3.93-8.04,8.13-11.53,12.98-1.12.7-2.02.85-2.79-1.13-.91-2.34-2.1-8.82-2.24-11.36s1.9-3.38,3.21-4.32c8.16-5.83,16.93-10.15,25.09-15.94,1.41-1,2.49-2.43,4.35-2.35.9.04,2.14,2.09,1.82,3.38-.11.43-1.64,2.37-2,2.82-4.56,5.72-10.83,10.76-15.91,15.91h0Z" fill="#ad2a69"/>
    <path d="m69.88,238.51c2.94-1,6.3-2.04,9.2-3.32,3.3-1.46,6.9-3.95,10.25-3.93,2.03,0,3.77,2.09,1.93,4.51-.22.29-2.62,2.19-3.02,2.45-11.25,7.5-26.23,13.51-38.17,19.47-3.35,1.67-7.25,4.18-10.58,5.51-.55.22-1.15.5-1.58.17-1.02-.78-2.53-8.23-2.46-10.02.05-1.19.11-2.18,1.26-2.99,1.36-.96,5.14-1.91,6.84-2.61,9.13-3.75,17.25-6.14,26.33-9.23h0Z" fill="#ad2a69"/>
    <path d="m88.54,222.04c.03.05.25,1.16.25,1.23-.03.79-1.26,2.63-1.82,3.33-2.02,2.49-5.92,2.72-8.4,3.32-1.21.3-3.93,1.36-4.87,1.41-.63.04-1.02-.17-1.35-.68-.11-.18-.84-4-.9-4.51-.11-1.03-.38-2.02.85-2.39,1.56-.47,4.79-.77,6.51-1.02,3-.42,5.95-.48,8.98-1.11.34-.02.59.1.75.4v.02Z" fill="#ad2a69"/>
  </g>
  <g>
    <path d="m118.71,241.94c-1.81.06-3.64-.29-5.48-1.03-1.84-.75-3.86-1.92-6.07-3.54-1.93-1.39-3.16-3.02-3.69-4.89-.54-1.86-1.03-3.76-1.49-5.68-.45-2.04-.86-4.07-1.23-6.11-.37-2.04-.72-4.1-1.06-6.2-.06-.23-.21-.66-.47-1.32-.25-.65-.33-1.29-.21-1.91.34-1.64.93-3.54,1.78-5.69.85-2.15,1.88-4.35,3.1-6.6,1.22-2.25,2.6-4.34,4.16-6.29,1.56-1.95,3.24-3.58,5.05-4.9,1.81-1.32,3.68-2.09,5.61-2.32.28-.06.56-.1.85-.11.28,0,.54-.02.76-.03,1.64-.06,3.54.1,5.69.45,2.15.36,4.29.9,6.41,1.64,2.12.74,3.86,1.65,5.22,2.76,1.36,1.05,2.41,1.9,3.14,2.56.73.66,1.13,1.24,1.19,1.75.51-.15.89.02,1.15.52.25.49.44,1.07.55,1.75.11.67.18,1.28.21,1.81.03.54.04.83.04.89.45,2.4.75,4.82.89,7.24.14,2.42.13,4.8-.04,7.14-.11,1.93-.5,4.2-1.15,6.79-.65,2.59-1.54,5.2-2.68,7.83-1.13,2.62-2.49,4.98-4.08,7.05-1.59,2.08-3.4,3.6-5.44,4.55-.68.26-1.78.55-3.31.84-1.53.3-3.16.54-4.88.72-1.73.18-3.24.29-4.54.33Zm0-6.79c1.07-.04,2.36-.12,3.86-.26,1.5-.14,2.89-.32,4.16-.51,1.27-.2,2.11-.4,2.51-.59,1.47-.69,2.92-2.1,4.33-4.22,1.42-2.12,2.6-4.59,3.57-7.43.96-2.83,1.53-5.64,1.7-8.43.34-3.98.08-8.21-.76-12.69-1.42-1.81-2.83-3.62-4.25-5.44-.96-.74-2.28-1.37-3.95-1.91-1.67-.54-3.38-.94-5.14-1.21-1.76-.27-3.23-.38-4.42-.34-.31.01-.62.02-.93.03-1.25.16-2.56.82-3.95,1.99-1.39,1.17-2.75,2.66-4.08,4.47-1.33,1.81-2.53,3.77-3.61,5.88-1.08,2.11-1.93,4.24-2.55,6.4.06.23.11.54.17.93.06.4.11.91.17,1.53.34,1.98.68,3.96,1.02,5.93.34,1.98.74,3.95,1.19,5.93.45,1.75.78,3.03.98,3.85.2.82.44,1.39.72,1.73.28.33.68.7,1.19,1.08,1.64,1.16,3.1,2,4.37,2.53,1.27.53,2.51.78,3.69.74Z" fill="#ebece7"/>
    <path d="m152.59,258.91c0-3.45.2-6.75.59-9.9.4-3.15.85-6.22,1.36-9.2-1.53.13-3.06.26-4.59.38v-6.88c1.93-.15,3.85-.31,5.78-.48.11-.63.21-1.24.3-1.81.08-.57.16-1.15.21-1.72.45-3.04.95-6.11,1.49-9.22.54-3.11,1.26-6.09,2.17-8.94.28-.93.57-1.78.85-2.54-.93.51-1.87,1.02-2.8,1.53-.62.51-1.35,1.22-2.17,2.14-.82.92-1.69,1.76-2.59,2.51-.91.76-1.81,1.17-2.72,1.24-.06,0-.11,0-.17.01v-6.88c.06,0,.11,0,.17-.01.79-.06,1.61-.51,2.46-1.35.85-.83,1.64-1.54,2.38-2.11,1.42-1.14,2.83-2.21,4.25-3.22,1.42-1.01,2.8-1.95,4.16-2.81.45-1.29.93-2.55,1.44-3.79.51-1.24.99-2.42,1.44-3.54.96-2.42,1.74-4.24,2.34-5.46.59-1.22,1.03-2.07,1.32-2.56.28-.48.42-.81.42-.98.08,0,.17-.02.25-.03,1.36.48,2.72.95,4.08,1.43.06,0,.11-.01.17-.02-.23.99-.68,2.23-1.36,3.72-.68,1.49-1.33,2.86-1.95,4.12-.62,1.26-.99,2-1.1,2.24-.06.23-.17.47-.34.72,1.13-.68,2.52-1.53,4.16-2.53,1.64-1,3.17-1.59,4.59-1.75.45-.05,1.02-.03,1.7.06.73.14,1.2.59,1.4,1.36.2.77.3,2.23.3,4.38,0,3.11-.3,6.25-.89,9.41-.59,3.16-1.26,6.03-2,8.6-.51,1.82-1.23,3.81-2.17,5.98-.93,2.17-1.94,4.28-3.02,6.33-1.08,2.04-2.14,3.82-3.19,5.31-1.05,1.5-1.94,2.51-2.68,3.04-1.19.86-2.51,1.56-3.95,2.1-1.44.54-3.24.99-5.39,1.36-.57,3.28-1.06,6.49-1.49,9.65-.42,3.15-.64,6.4-.64,9.74-1.53.14-3.06.27-4.59.39Zm7.9-26.85c2.66-.47,4.56-1.12,5.69-1.91.74-.53,1.56-1.5,2.46-2.93.91-1.42,1.81-3.03,2.72-4.83.91-1.79,1.71-3.5,2.42-5.1.71-1.61,1.2-2.88,1.49-3.82.79-2.69,1.43-5.27,1.91-7.73.48-2.46.75-4.77.81-6.93-3.77,2.16-7.53,4.29-11.3,6.4-.4,1.29-.81,2.56-1.23,3.82-.42,1.26-.84,2.53-1.23,3.82-.91,2.86-1.6,5.69-2.08,8.48-.48,2.79-.92,5.62-1.32,8.49-.06.4-.11.78-.17,1.12-.06.34-.11.72-.17,1.12Z" fill="#ebece7"/>
    <path d="m202.03,234.97c-1.36.19-2.69.22-3.99.09-1.3-.13-2.27-.36-2.89-.67-1.02-.6-2.15-1.48-3.4-2.65-1.25-1.17-2.18-2.25-2.8-3.25-.06-.02-.11-.04-.17-.06-.45-.79-.81-1.77-1.06-2.92-.25-1.16-.44-2.41-.55-3.75-.62.3-1.19.56-1.7.76-.51.2-.88.32-1.1.35-.06,0-.11.01-.17.02v-6.79c.06,0,.11-.01.17-.02.17-.02.55-.17,1.15-.44.59-.27,1.23-.56,1.91-.87.4-3.05,1.02-6.13,1.87-9.24.85-3.11,1.85-5.94,3.02-8.5,1.16-2.56,2.34-4.46,3.52-5.69.45-.46.96-.84,1.53-1.14.57-.3,1.3-.63,2.21-.98.96-.3,1.84-.51,2.63-.62,1.24-.18,2.49.06,3.74.7,1.24.64,2.43,1.46,3.57,2.45,1.13.99,2.12,1.93,2.97,2.82,1.53,1.47,2.04,2.83,1.53,4.1-.28.78-.69,1.48-1.23,2.1-.54.62-.95,1.09-1.23,1.42-2.6,3.39-5.41,6.37-8.41,8.92-3,2.55-6.26,5.03-9.77,7.41-.23.14-.79.47-1.7.99,0,1.08.06,1.92.17,2.53.11.61.31,1.21.59,1.79-.06.23.41.8,1.4,1.68.99.89,2.05,1.68,3.19,2.37.23.14.45.28.68.42.28.02.85.03,1.7.02.85,0,1.73-.07,2.63-.2.48-.07.96-.14,1.44-.21,1.81-2.3,3.62-4.6,5.44-6.91,1.19,1.27,2.38,2.53,3.57,3.8-2.1,2.75-4.19,5.5-6.29,8.24.03,0,.06,0,.08-.01-.74,1.01-2.15,1.67-4.25,1.97Zm-9.77-22.96c1.87-1.09,3.64-2.19,5.31-3.3,1.67-1.11,3.35-2.47,5.05-4.1,1.7-1.63,3.48-3.71,5.35-6.25.03-.06.06-.12.08-.18-.74-.74-1.66-1.43-2.76-2.06-1.1-.63-2.14-.88-3.1-.75-.28.04-.65.11-1.1.2-.45.09-.74.17-.85.25-.74.27-1.25.22-1.53-.17-.28-.39-.4-.75-.34-1.1-.91,1.03-1.76,2.48-2.55,4.34-.79,1.86-1.49,3.94-2.08,6.22-.59,2.29-1.09,4.59-1.49,6.91Z" fill="#ebece7"/>
    <path d="m243.05,228.21c-.79.54-1.52.64-2.17.3-.65-.34-1.09-.94-1.32-1.81-.23-.86-.08-1.8.42-2.79.51-1.05.89-1.78,1.15-2.2.25-.41.41-.74.47-.97.34-1.47.71-2.87,1.1-4.19.4-1.32.79-2.58,1.19-3.78.79-2.46,1.57-4.63,2.34-6.49.76-1.86,1.44-3.59,2.04-5.17.59-1.58,1.07-3.18,1.44-4.81.37-1.62.55-3.46.55-5.49,0-.28-.11-.5-.34-.66-.23-.16-.74-.5-1.53-1.04-.34.46-.85,1.17-1.53,2.15-.68.97-1.47,2.08-2.38,3.32-2.32,3.02-4.29,5.62-5.9,7.79-1.61,2.18-3.07,4.31-4.37,6.4-1.3,2.09-2.72,4.6-4.25,7.51-.96,1.92-1.9,3.66-2.8,5.22-.91,1.57-1.67,2.96-2.29,4.2-.4.8-.67,1.37-.81,1.7-.14.34-.27.6-.38.78-.06.24-.08.44-.08.61,0,.17,0,.37,0,.59-.11,1.09-.55,1.9-1.32,2.42-.76.52-1.5.65-2.21.39-.71-.26-1.06-.95-1.06-2.08v-.51c-.11-.38-.11-.92,0-1.61.06-.23.1-.44.13-.61.03-.17.07-.35.13-.53.23-1.34.54-2.65.93-3.93.4-1.28.71-2.39.93-3.33,1.3-4.34,2.68-8.55,4.12-12.64,1.44-4.09,2.85-7.97,4.2-11.65.17-.48.4-1.11.68-1.9.28-.78.54-1.56.76-2.34h-.08c-.45.43-1.16,1.19-2.12,2.28-.96,1.09-2.01,2.29-3.14,3.58-1.13,1.29-2.19,2.41-3.19,3.36-.99.95-1.74,1.47-2.25,1.55-.06,0-.11.02-.17.03v-5.1c.06,0,.11-.02.17-.03.06,0,.45-.44,1.19-1.29.74-.85,1.6-1.86,2.59-3.01.99-1.15,1.91-2.19,2.76-3.13.85-.93,1.39-1.5,1.61-1.71,1.64-1.35,2.9-2.38,3.78-3.1.88-.71,1.58-1.12,2.12-1.21.54-.09,1.12.15,1.74.72.62.52.95,1.2.98,2.04.03.84-.08,1.66-.34,2.44-.25.78-.5,1.33-.72,1.65.03,0,.06,0,.08-.01-.23.95-.42,1.73-.59,2.35-.17.62-.35,1.26-.55,1.92-.2.66-.5,1.53-.89,2.62-.68,1.81-1.35,3.6-2,5.35-.65,1.75-1.29,3.5-1.91,5.25,1.7-3.17,3.4-6.08,5.1-8.72,1.7-2.64,3.71-5.41,6.03-8.31.23-.32.65-.92,1.27-1.8.62-.87,1.33-1.85,2.12-2.93.79-1.08,1.56-2.02,2.29-2.83.73-.81,1.3-1.26,1.7-1.33.06-.01.11-.02.17-.03.57.32,1.13.64,1.7.96.45.31,1.03.75,1.74,1.29.71.55,1.34,1.3,1.91,2.24.57.94.85,2.21.85,3.79,0,3.51-.37,6.6-1.1,9.25-.74,2.66-1.61,5.16-2.63,7.49-1.02,2.34-1.98,4.87-2.89,7.58-.51,1.45-.93,2.94-1.27,4.48.06.1.11.21.17.31.28-.96.76-2.15,1.44-3.57.68-1.43,1.4-2.8,2.17-4.13.76-1.33,1.41-2.34,1.95-3.04.54-.69.81-.73.81-.11,1.42-.26,2.83-.53,4.25-.79,0,.57-.25,1.49-.76,2.78-.51,1.28-1.13,2.65-1.87,4.09-.74,1.44-1.43,2.67-2.08,3.7-.65,1.03-1.15,1.63-1.49,1.8-.06,1.09-.38,2-.98,2.73-.59.73-1.49,1.5-2.68,2.31-1.19.81-2.8,1.94-4.84,3.38Z" fill="#ebece7"/>
    <path d="m268.08,222.79c-.23-1.83-.39-3.71-.48-5.65-.09-1.94-.13-3.85-.13-5.72v-6.49c0-1.23,0-2.33,0-3.29,0-.96-.03-1.88-.09-2.75-.23-3.82-.41-7.63-.53-11.44-.12-3.81-.32-7.58-.61-11.33.15-3.22.29-6.43.44-9.65,3.95-1,7.9-2.01,11.84-3.03.82-.22,1.58-.52,2.28-.9.7-.37,1.37-.63,2.02-.76,5.44-1.1,9.75-1.42,12.94-.94,3.19.48,5.86,1.95,8.03,4.42.94,1.03,1.71,2.62,2.32,4.77.61,2.15.92,4.51.92,7.09,0,2.28-.54,4.65-1.62,7.1-1.08,2.45-2.49,4.66-4.21,6.63-1.73,1.97-3.52,3.44-5.4,4.42-1.29.68-2.95,1.3-5,1.87-2.05.57-4.08,1.07-6.1,1.51-2.02.44-3.61.78-4.78,1.01-.26-1.99-.53-3.99-.79-5.98,1.23-.25,2.82-.57,4.78-.96,1.96-.4,3.89-.85,5.79-1.36,1.9-.51,3.32-1,4.26-1.49,1.11-.58,2.19-1.52,3.25-2.82,1.05-1.3,1.93-2.74,2.63-4.32.7-1.58,1.05-3.01,1.05-4.3,0-1.99-.19-3.63-.57-4.93-.38-1.29-.86-2.26-1.45-2.9-1.35-1.59-3.25-2.63-5.7-3.11-2.46-.49-5.91-.27-10.35.63-.59.12-1.21.39-1.89.82-.67.43-1.33.68-1.97.75-1.29.2-2.49.5-3.6.89-1.11.4-2.08.76-2.9,1.1-.06.42-.1.87-.13,1.34-.03.48-.02.94.04,1.4.29,3.8.5,7.62.61,11.46.12,3.84.29,7.63.53,11.39.06.92.09,1.9.09,2.92,0,1.02,0,2.21,0,3.55v6.49c0,4.27.2,7.71.61,10.32-2.05.76-4.09,1.51-6.14,2.26Z" fill="#ebece7"/>
    <path d="m321.68,213.21c-1.17.25-2.43.51-3.77.77-1.35.26-2.05.4-2.11.41-.94-.27-2.03-.47-3.29-.61-1.26-.14-2.36-.4-3.29-.79-1.05-.42-1.83-1.13-2.33-2.14-.5-1.01-.69-2.49-.57-4.44.12-2.25.47-4.51,1.05-6.8.58-2.29,1.02-3.93,1.32-4.93.76-2.44,1.48-4.99,2.15-7.65.67-2.66,1.55-5.33,2.63-8.02,1.08-2.69,2.59-5.26,4.52-7.72-.76-.19-1.04-.42-.83-.7.2-.28,1.07-.87,2.59-1.79,1.87-1.1,3.9-2.04,6.1-2.81,2.19-.77,4.75-1.47,7.68-2.11.06-.01.12-.03.18-.04-.03.59-.06,1.18-.09,1.77.56-.74,1.11-1.47,1.67-2.21.03,0,.06-.01.09-.02,1.35-.29,2.02.64,2.02,2.81,0,.76-.06,1.49-.18,2.19-.12.7-.21,1.46-.26,2.3-.12,2.01-.29,4.03-.53,6.04-.23,2.01-.47,3.98-.7,5.9-.18,1.44-.41,3.44-.7,5.99-.29,2.55-.73,5.03-1.32,7.44.99-1.5,1.55-2.15,1.67-1.94.12.21-.1.96-.66,2.25-.56,1.29-1.33,2.87-2.33,4.72-1,1.86-2.08,3.71-3.25,5.58-1.17,1.86-2.34,3.42-3.51,4.67-.76.81-1.33,1.27-1.71,1.38-.38.11-1.13.29-2.24.53Zm.61-7.24l.53-.11c.99-1.74,1.97-3.16,2.94-4.28.96-1.12,1.65-2.01,2.06-2.68.47-.86.89-1.9,1.27-3.13.38-1.22.73-2.82,1.05-4.79.32-1.97.63-4.51.92-7.61.18-1.97.39-3.95.66-5.93.26-1.99.42-3.89.48-5.72v-.44c-4.91,1.07-8.66,2.38-11.23,3.93.06.02.12.03.18.05.03,0,.06-.01.09-.02-2.4,3.09-4.08,6.29-5.05,9.6-.96,3.31-1.97,6.83-3.03,10.56-.29,1.29-.67,2.85-1.14,4.67-.47,1.83-.79,3.61-.97,5.34-.06.77-.04,1.31.04,1.61.09.3.31.56.66.78.12-.02.56-.06,1.32-.11.76-.04,1.84-.22,3.25-.52.06-.01.77-.15,2.15-.42,1.37-.27,2.65-.53,3.82-.78Z" fill="#ebece7"/>
    <path d="m343.18,209.84c-1.58-.24-3.16-.48-4.74-.72-.03,0-.06.01-.09.02-.12-.33-.18-.58-.18-.75,0-.94.32-1.99.96-3.15.64-1.16,1.29-2.21,1.93-3.14.64-.93.99-1.52,1.05-1.77.47-1.97.95-3.85,1.45-5.63.5-1.78.89-3.43,1.18-4.95.47-2.21,1.01-4.21,1.62-6.01.61-1.8,1.13-3.48,1.54-5.03.35-1.25.69-2.5,1.01-3.78.32-1.27.66-2.5,1.01-3.69-3.22,3.52-5.09,5.45-5.62,5.8-.06.01-.12.03-.18.04-.67-1.96-1.35-3.92-2.02-5.87.03,0,.06-.01.09-.02.58-.42,1.42-1.2,2.5-2.35,1.08-1.14,2.71-2.92,4.87-5.32.99-1.1,1.87-2,2.63-2.73.76-.72,1.52-1.34,2.28-1.86,1.11-.77,1.86-.99,2.24-.67.38.33.95.9,1.71,1.73.76.89,1.1,1.63,1.01,2.23-.09.6-.34,1.04-.75,1.3-.41.27-.73.37-.96.3-1,2.15-1.84,4.3-2.54,6.44-.59,1.65-1.07,3.25-1.45,4.79-.38,1.55-.78,3.07-1.18,4.56-.41,1.55-.82,2.97-1.23,4.26-.41,1.29-.82,2.54-1.23,3.74,1.52-2.44,3.04-4.75,4.56-6.93,1.52-2.18,2.84-4.29,3.95-6.35.41-.73,1.05-1.9,1.93-3.5.88-1.6,1.89-3.31,3.03-5.14,1.14-1.83,2.24-3.49,3.29-4.98,1.05-1.49,1.96-2.43,2.72-2.84.7-.39,1.3-.69,1.8-.92.5-.23,1.01-.4,1.54-.51.53-.12,1.05-.17,1.58-.17.53,0,1.26.05,2.19.13.06-.01.12-.03.17-.04-.41,2.34-.82,4.68-1.23,7.02-1.49.27-2.98.54-4.48.81-.76.4-1.74,1.57-2.94,3.5-1.2,1.93-3.06,5.13-5.57,9.6-1.99,3.6-4.04,6.87-6.14,9.82-2.11,2.95-3.92,5.82-5.44,8.61-1.55,2.33-3.1,4.66-4.65,6.99-.06.36-.13.69-.22.97-.09.28-.16.55-.22.79-.03-.02-.06-.04-.09-.07,0,1.11-.25,2.25-.75,3.41-.5,1.16-1.13,1.83-1.89,1.99-.03,0-.06.01-.09.02Z" fill="#ebece7"/>
    <path d="m380.55,199.35c-1.75.38-2.9-.68-3.42-3.2-.18-.96-.26-2.08-.26-3.36,0-2.05.19-4.38.57-7.01.38-2.63.88-5.31,1.49-8.05.61-2.74,1.26-5.28,1.93-7.62.67-2.34,1.3-4.25,1.89-5.72.06-.13.12-.26.18-.39.06-.13.12-.32.18-.56-1.37.3-2.75.6-4.12.9,0-1.78,0-3.57,0-5.35,2.13-.47,4.27-.93,6.4-1.4.76-1.98,1.52-4,2.28-6.07.76-2.07,1.7-4.54,2.81-7.41,1.73-.37,3.45-.75,5.18-1.12,0,.94-.44,2.71-1.32,5.33-.88,2.62-1.84,5.3-2.9,8.04,1.87-.35,3.74-.72,5.62-1.13,1.87-.4,3.63-.78,5.26-1.13.06-.01.12-.03.18-.04v5.35c-.06.01-.12.03-.18.04-1.99.43-4.11.87-6.36,1.32-2.25.46-4.52.93-6.8,1.43-.41.97-.75,1.79-1.01,2.46-.26.67-.45,1.17-.57,1.48-.7,1.79-1.42,3.85-2.15,6.17-.73,2.32-1.37,4.69-1.93,7.09-.56,2.4-1.01,4.68-1.36,6.83-.35,2.15-.53,3.99-.53,5.51.93-.56,1.99-1.32,3.16-2.31,1.17-.99,2.19-1.85,3.07-2.6.88-.75,1.32-.91,1.32-.51,1.46-.32,2.92-.63,4.39-.95,0,.88-.47,2.05-1.4,3.51-.94,1.46-2.12,2.96-3.55,4.5-1.43,1.54-2.87,2.86-4.3,3.96-1.43,1.1-2.68,1.77-3.73,2Z" fill="#ebece7"/>
    <path d="m431.09,189.75c-1.23.83-2.05.86-2.46.06-.41-.74-.64-1.65-.7-2.75-.06-1.1-.09-2.12-.09-3.05,0-2.69.23-5.62.7-8.79.47-3.17.99-6.23,1.58-9.18.58-2.96,1.05-5.44,1.4-7.44.12-.78.23-1.55.35-2.31.12-.75.23-1.52.35-2.31-.06.25-.15.47-.26.67-.12.2-.23.4-.35.6-.2.89-.41,1.78-.61,2.67-.09.02-.18.04-.26.05-.06-.05-.12-.06-.18-.05-.06.01-.15,0-.26-.03-.76,1.5-1.49,2.91-2.19,4.22-.7,1.31-1.29,2.43-1.76,3.34-1.29,2.6-2.51,5.21-3.69,7.82-1.17,2.61-2.49,5.18-3.95,7.71-.88,1.47-1.76,2.84-2.63,4.1-.88,1.27-1.67,2.5-2.37,3.7-2.16,3.55-3.66,5.3-4.47,5.24-.53-.06-1.04-.63-1.54-1.69-.5-1.06-.95-2.33-1.36-3.79-.41-1.46-.73-2.83-.97-4.09-.23-1.27-.35-2.13-.35-2.6,0-1.81.01-3.67.04-5.58.03-1.91.16-3.79.39-5.66.23-1.63.66-3.61,1.27-5.93.61-2.32,1.39-4.74,2.33-7.25.94-2.51,2.03-4.8,3.29-6.88,1.26-2.08,2.65-3.66,4.17-4.74.58-.41,1.26-.7,2.02-.86,1.11-.23,2.31-.17,3.6.17,1.29.35,2.57.83,3.86,1.44,1.29.61,2.46,1.19,3.51,1.74,1.11-2.33,1.67-3.91,1.67-4.73.06-.01.12-.02.18-.04,2.98-.66,4.93-1.13,5.83-1.4.91-.27,1.36-.23,1.36.12,0,.06.03.36.09.9.06.55.03,1.15-.09,1.82-.06.66-.16,1.36-.31,2.12-.15.76-.28,1.42-.4,1.97-.41,1.66-.72,3.3-.92,4.92-.21,1.62-.45,3.28-.75,4.98-.35,2.06-.79,4.37-1.32,6.93-.53,2.56-.98,5.17-1.36,7.82-.38,2.65-.63,5.13-.75,7.43.53-.69,1.1-1.51,1.71-2.45.61-.94,1.56-2.42,2.85-4.43.06-.07.28-.45.66-1.14.38-.69.77-1.4,1.18-2.12.41-.72.64-1.12.7-1.19.09-.02.18-.03.26-.05.67.92,1.35,1.84,2.02,2.76.58-.12,1.17-.23,1.75-.35,0,.76-.23,1.42-.7,1.98-.41.49-.75,1.05-1.01,1.69-.26.64-.63,1.27-1.1,1.89-1.11,1.74-2.25,3.53-3.42,5.38-1.17,1.84-2.43,3.49-3.77,4.93-.7.73-1.32,1.19-1.84,1.38-.53.19-.85.3-.96.33Zm-20.53-5.47c.99-1.56,1.84-2.86,2.55-3.92.7-1.05,1.26-1.92,1.67-2.59,1.7-2.81,3.04-5.39,4.04-7.73.99-2.34,2.13-4.76,3.42-7.25.47-.97,1.05-2.12,1.75-3.43.7-1.31,1.4-2.66,2.11-4.03-1.23-.92-2.5-1.77-3.82-2.55-1.32-.78-2.56-1.05-3.73-.8-.18.04-.26-.27-.26-.91,0-.64.03-1.09.09-1.33-1.11.88-2.12,2.2-3.03,3.97-.91,1.77-1.71,3.72-2.41,5.86-.7,2.14-1.29,4.19-1.76,6.16-.47,1.97-.79,3.62-.96,4.94-.24,1.69-.37,3.34-.4,4.95-.03,1.62-.04,3.36-.04,5.23-.03,0-.06.01-.09.02.12.33.26.81.44,1.44.17.64.32,1.29.44,1.97Z" fill="#ebece7"/>
    <path d="m466.45,183.24c-1.7.31-3.33.26-4.91-.14-1.58-.41-3.07-.77-4.48-1.09-.35-.05-.8-.08-1.36-.09-.56-.01-1.1-.08-1.62-.22-.06.01-.12.02-.18.03-.03-.49-.06-.98-.09-1.47.03,0,.06-.01.09-.02-.06-.05-.15-.12-.26-.21-.12-.09-.23-.16-.35-.2-.2-.25-.41-.51-.61-.76.06-.19.15-.45.26-.8.12-.34.23-.73.35-1.16.58-1.92.95-3.91,1.1-5.96.15-2.05.42-4.16.83-6.34.64-3.11,1.17-5.72,1.58-7.85.41-2.12.76-4.08,1.05-5.86.29-1.78.63-3.72,1.01-5.81.38-2.09.86-4.68,1.45-7.77.73-3.73,1.46-7.47,2.19-11.2-1.7.37-3.39.75-5.09,1.13-1.7.38-2.95.65-3.77.81-.06.01-.12.02-.18.03v-7.11c.06-.01.12-.02.18-.03.29-.06.93-.19,1.93-.41.99-.22,2.11-.46,3.33-.72,1.23-.26,2.31-.48,3.25-.65,1.52.3,3.04.61,4.56.91.03,0,.06-.01.09-.02.18,1.72.35,3.45.53,5.17-.03.33-.06.65-.09.98-.12.67-.35,1.98-.7,3.94-.35,1.97-.85,4.53-1.49,7.69-.59,2.86-1.05,5.27-1.4,7.24-.35,1.97-.67,3.77-.96,5.4-.29,1.63-.59,3.31-.88,5.03-.29,1.72-.67,3.74-1.14,6.05.29-.64.58-1.26.88-1.88.29-.61.58-1.23.88-1.87,1.75-3.43,3.54-6.85,5.35-10.29,1.81-3.43,3.77-6.74,5.88-9.92,1.17-1.73,2-3.02,2.5-3.87.5-.85.91-1.4,1.23-1.66.32-.26.69-.34,1.1-.24,1.23.25,2.5.52,3.82.79,1.32.27,2.56.72,3.73,1.34,1.17.62,2.16,1.65,2.98,3.1.7,1.17,1.05,2.81,1.05,4.91,0,1.46-.15,2.96-.44,4.5-.29,1.54-.59,2.92-.88,4.14-.41,1.88-1.1,4.13-2.06,6.75-.97,2.62-2.18,5.34-3.64,8.16-1.46,2.83-3.07,5.49-4.83,7.99-1.75,2.5-3.64,4.62-5.66,6.35-2.02,1.74-4.05,2.79-6.1,3.17Zm0-7.11c1.64-.3,3.23-1.13,4.78-2.49,1.55-1.36,3.03-3.04,4.43-5.05,1.4-2,2.69-4.13,3.86-6.38,1.17-2.25,2.15-4.44,2.94-6.56.79-2.12,1.33-3.97,1.62-5.54.29-1.57.57-2.93.83-4.09.26-1.16.39-2.17.39-3.05v-.88c-.06-.11-.13-.21-.22-.31-.09-.1-.19-.26-.31-.47-.23-.43-.85-.78-1.84-1.05-1-.27-2.31-.55-3.95-.85-1.46,2.24-2.97,4.66-4.52,7.25-1.55,2.59-3.01,5.1-4.39,7.54-1.37,2.44-2.56,4.63-3.55,6.57-.76,1.54-1.39,2.84-1.89,3.9-.5,1.06-.92,2.03-1.27,2.91-.7,1.88-1.46,3.4-2.28,4.55-.82,1.15-1.64,1.95-2.46,2.39,0,.23-.03.42-.09.54.06.05.12.07.18.05.06-.01.12,0,.18.05,1.11.2,2.31.47,3.6.82,1.29.35,2.6.39,3.95.15Z" fill="#ebece7"/>
    <path d="m498.29,174.96c-.7.75-1.46,1.27-2.28,1.55-.82.28-1.51.1-2.06-.54-.56-.64-.83-1.96-.83-3.94,0-2.05.25-4.02.75-5.91.5-1.89.86-3.39,1.1-4.48.58-2.67,1.07-4.9,1.45-6.68.38-1.78.75-3.41,1.1-4.87.35-1.46.73-3.01,1.14-4.66.41-1.64.93-3.66,1.58-6.04.06-.18.1-.35.13-.5.03-.15.07-.32.13-.5-1.87.94-3.57,1.53-5.09,1.78,0-2.37,0-4.74,0-7.11,1.05-.17,2.03-.44,2.94-.82.91-.38,2.18-1.02,3.82-1.92,1.46-.81,2.4-1.33,2.81-1.57.41-.24.91-.17,1.49.21.7.54.79,1.77.26,3.69-.53,1.92-1.26,4.59-2.19,8.01-.7,2.56-1.27,4.7-1.71,6.4-.44,1.71-.83,3.27-1.19,4.7-.35,1.43-.69,2.97-1.01,4.63-.32,1.66-.75,3.7-1.27,6.12-.23.91-.47,1.83-.7,2.74-.23.91-.44,1.8-.61,2.64,1.05-.69,2.05-1.32,2.98-1.87.93-.55,1.75-1.12,2.46-1.7.79,1.87,1.58,3.73,2.37,5.6-1.64,1.3-3.1,2.33-4.39,3.09-1.29.76-2.34,1.41-3.16,1.94Zm7.19-52.8c-.82-2.42-1.64-4.84-2.46-7.26.03,0,.06,0,.09-.01,1.34-.85,2.63-1.76,3.86-2.74,1.23-.98,2.72-1.59,4.47-1.85.06,0,.12-.02.18-.03v8.6c-.06,0-.12.02-.18.03-1.23.18-2.18.56-2.85,1.12-.67.57-1.62,1.27-2.85,2.1-.09.01-.18.03-.26.04Z" fill="#ebece7"/>
    <path d="m516.81,173.5c-.41.06-.78.09-1.1.11-.32.02-.69.02-1.1.03-1.46-.02-2.19-1.79-2.19-5.3,0-.35.01-.73.04-1.15.03-.41.04-.74.04-.97.29-2.67.69-5.28,1.19-7.8.5-2.53.89-4.92,1.18-7.19.53-3.82,1.11-7.16,1.75-10.03.64-2.87,1.34-5.67,2.11-8.41.76-2.74,1.61-5.72,2.55-8.95.29-1.03.56-1.95.79-2.74.23-.79.44-1.49.61-2.1-2.28,1.48-3.95,2.3-5,2.45-.06,0-.12.02-.18.02v-7.11c.06,0,.12-.02.18-.02.88-.12,2.4-.98,4.56-2.56.64-.44,1.17-.83,1.58-1.18.41-.35.73-.59.96-.74,1.7-.93,2.85-1.71,3.47-2.34.61-.64.95-.98,1.01-1.05-.06.13-.22.63-.48,1.51-.26.88-.31,2.25-.13,4.1.12,1.1-.03,2.56-.44,4.4-.41,1.84-.85,3.59-1.32,5.26-.47,1.67-.79,2.84-.97,3.5-1.05,3.59-1.97,6.77-2.76,9.54-.79,2.77-1.46,5.45-2.02,8.04-.56,2.59-1.07,5.5-1.54,8.72-.35,2.62-.76,5.17-1.23,7.63-.47,2.46-.85,4.83-1.14,7.09v.09c1.58-.28,2.81-.79,3.69-1.52.88-.73,1.64-1.6,2.28-2.59.64-.99,1.43-2.01,2.37-3.04.94-1.03,2.22-1.95,3.86-2.74.06,0,.12-.02.18-.02.53,2.16,1.05,4.31,1.58,6.47-.06,0-.12.01-.18.02-.58.31-1.33.97-2.24,2-.91,1.03-1.95,2.15-3.12,3.39-1.17,1.24-2.49,2.35-3.95,3.34-1.46.99-3.1,1.61-4.91,1.87Z" fill="#ebece7"/>
    <path d="m541.99,168.95c-.7.72-1.46,1.21-2.28,1.45-.82.24-1.51.03-2.06-.63-.56-.66-.83-1.99-.83-3.98,0-2.05.25-4.01.75-5.88.5-1.87.86-3.35,1.1-4.43.58-2.64,1.07-4.85,1.45-6.62.38-1.77.75-3.38,1.1-4.82.35-1.44.73-2.98,1.14-4.6.41-1.63.94-3.62,1.58-5.97.06-.18.1-.35.13-.5.03-.15.07-.32.13-.5-1.87.85-3.57,1.37-5.09,1.55v-7.11c1.05-.12,2.03-.35,2.94-.69.91-.34,2.18-.92,3.82-1.75,1.46-.74,2.4-1.23,2.81-1.44.41-.22.91-.13,1.49.28.7.57.79,1.8.26,3.7-.53,1.9-1.26,4.53-2.19,7.91-.7,2.53-1.27,4.64-1.71,6.33-.44,1.69-.83,3.24-1.19,4.65-.35,1.41-.69,2.94-1.01,4.59-.32,1.65-.75,3.67-1.27,6.06-.23.9-.47,1.81-.7,2.71-.23.9-.44,1.78-.61,2.61,1.05-.65,2.05-1.23,2.98-1.74.93-.51,1.75-1.04,2.46-1.59.79,1.9,1.58,3.81,2.37,5.71-1.64,1.23-3.1,2.19-4.39,2.89-1.29.7-2.34,1.3-3.16,1.8Zm7.19-52.47c-.82-2.46-1.64-4.91-2.46-7.37.03,0,.06,0,.09,0,1.34-.79,2.63-1.64,3.86-2.56,1.23-.92,2.72-1.47,4.47-1.64.06,0,.12-.01.18-.02v8.6c-.06,0-.12.01-.18.02-1.23.12-2.18.45-2.85.99-.67.54-1.62,1.19-2.85,1.96-.09,0-.18.02-.26.03Z" fill="#ebece7"/>
    <path d="m560.76,168.32c-1.75.16-2.9-1.05-3.42-3.63-.18-.98-.26-2.11-.26-3.4,0-2.05.19-4.36.57-6.94.38-2.58.88-5.2,1.49-7.86.61-2.66,1.26-5.12,1.93-7.37.67-2.26,1.3-4.08,1.89-5.48.06-.12.12-.24.18-.37.06-.12.12-.3.18-.54-1.37.12-2.75.25-4.12.38v-5.35c2.13-.2,4.27-.39,6.4-.58.76-1.88,1.52-3.8,2.28-5.76.76-1.96,1.7-4.31,2.81-7.03,1.73-.14,3.45-.27,5.18-.39,0,.94-.44,2.65-1.32,5.14-.88,2.49-1.84,5.04-2.9,7.63,1.87-.09,3.74-.2,5.62-.33,1.87-.13,3.63-.25,5.26-.35.06,0,.12,0,.18-.01v5.35c-.06,0-.12,0-.18.01-1.99.12-4.11.25-6.36.38-2.25.13-4.52.29-6.8.47-.41.91-.75,1.68-1.01,2.32-.26.64-.45,1.11-.57,1.41-.7,1.7-1.42,3.66-2.15,5.88-.73,2.23-1.37,4.51-1.93,6.84-.56,2.33-1.01,4.55-1.36,6.66-.35,2.11-.53,3.92-.53,5.44.93-.44,1.99-1.07,3.16-1.9,1.17-.83,2.19-1.56,3.07-2.19.88-.63,1.32-.74,1.32-.33,1.46-.12,2.92-.23,4.39-.34,0,.88-.47,1.98-1.4,3.31-.94,1.33-2.12,2.66-3.55,4.01-1.43,1.35-2.87,2.48-4.3,3.39-1.43.91-2.68,1.42-3.73,1.52Z" fill="#ebece7"/>
    <path d="m565.06,197.42c-3.39,0-6.05-.95-7.98-2.87-1.11-.83-1.9-1.96-2.37-3.41-.47-1.45-.56-2.8-.26-4.05.29-1.26.97-2.06,2.02-2.39.06,0,.12-.01.18-.02,1.17,1.44,2.34,2.88,3.51,4.32-.06.12.19.29.75.5.56.21,1.23.4,2.02.56.79.16,1.51.25,2.15.25.58-.05,1.17-.1,1.75-.15,2.28-.19,4.71-.6,7.28-1.23,2.57-.63,4.93-1.38,7.06-2.25,2.13-.87,3.64-1.73,4.52-2.6.06,0,.12,0,.18-.01v-.09s-.06,0-.09,0c2.05-1.82,3.67-3.32,4.87-4.52,1.2-1.2,2.18-2.29,2.94-3.26.94-1.16,1.55-2.06,1.84-2.72.29-.66.85-1.56,1.67-2.7,1.11-1.39,2.13-2.6,3.07-3.63.94-1.03,1.7-1.93,2.28-2.71.17-.24.35-.49.53-.76.18-.27.35-.52.53-.76.15-.59.29-1.18.44-1.77.41-1.53.7-3,.88-4.41.18-1.41.26-2.96.26-4.66,0-4.74-.61-9.18-1.84-13.32-1.23-4.14-3.04-7.69-5.44-10.64-.82-1.08-1.78-1.97-2.9-2.68-1.11-.71-2.02-1.05-2.72-1.01-1.11.05-1.96.86-2.54,2.41-.59,1.55-.88,3.73-.88,6.54-1.61.09-3.22.18-4.83.28,0-2.81.39-5.36,1.18-7.66.79-2.3,1.89-4.16,3.29-5.58,1.4-1.42,2.95-2.17,4.65-2.26,2.69-.13,5.53,1.71,8.51,5.53,1.7,2.11,3.17,4.69,4.43,7.76,1.26,3.07,2.22,6.36,2.9,9.88.67,3.52,1.01,7.07,1.01,10.64-.03.29-.06.59-.09.88,1.23-2.25,2.31-4.38,3.25-6.38.94-2,1.61-3.65,2.02-4.94.58-2.11,1.01-4.46,1.27-7.04.26-2.58.44-5.15.53-7.73.09-2.57.13-4.86.13-6.85.06,0,.12,0,.18,0,.85.28,1.7.57,2.54.86,1.2-.56,2.4-1.12,3.6-1.68.06,0,.12,0,.18,0,0,2.28-.21,4.91-.61,7.9-.41,2.98-.91,5.94-1.49,8.86-.58,2.93-1.17,5.45-1.75,7.55-.58,2.05-1.52,4.41-2.81,7.09-1.29,2.68-2.68,5.33-4.17,7.96-1.49,2.63-2.91,4.96-4.26,6.98.06.58.07,1.2.04,1.84-.03.64-.1,1.2-.22,1.67-.12,1.11-.57,1.83-1.36,2.14-.79.31-1.6.25-2.41-.19-.7.84-1.36,1.61-1.97,2.3-.61.69-1.16,1.34-1.62,1.94-.64.78-1.24,1.7-1.8,2.74-.56,1.04-1.16,1.96-1.8,2.75-1.46,1.76-2.93,3.37-4.39,4.85-1.46,1.47-2.81,2.74-4.04,3.8-2.22,1.99-5.35,3.72-9.39,5.22-4.04,1.5-8.25,2.43-12.63,2.8-.58.05-1.17.1-1.75.15Z" fill="#ebece7"/>
  </g>
</svg>