<?xml version="1.0" encoding="utf-8"?>
<!-- Generator: $$$/GeneralStr/196=Adobe Illustrator 27.6.0, SVG Export Plug-In . SVG Version: 6.00 Build 0)  -->
<svg version="1.1" id="Calque_2_00000147181190337451570080000016008755198118638242_"
	 xmlns="http://www.w3.org/2000/svg" xmlns:xlink="http://www.w3.org/1999/xlink" x="0px" y="0px" viewBox="0 0 164.3 183.4"
	 style="enable-background:new 0 0 164.3 183.4;" xml:space="preserve">
<style type="text/css">
	.st0{fill:#D6346F;}
	.st1{fill:#282729;}
</style>
<g id="Calque_1-2">
	<g>
		<g>
			<path class="st0" d="M103.3,28.4v23c-11.2,4.6-23.4,1.6-34.8,0c-0.3-7.8-2.2-17.6-2.5-25.5c-0.3-6.8,0.3-13.8,0.1-20.6
				c9.8-1.2,23.6,4.4,31.5,10.1C101,18,103.3,24.3,103.3,28.4z"/>
			<path class="st1" d="M69.6,126.7c0.2,3.5,1.6,6.9,1.3,10.5c2.4,2.5,34.4-4.1,39.6-5.8c13.4-4.4,38.2-25.9,45.3-38.1
				c2.3-3.9,4.9-17.8,8.5-8.9c-4.8,27.7-8.7,56.7-22,81.6c-10.3,4-20.5,8.2-31.3,10.7c-19.7,4.7-50.5,9.1-70.3,5.1
				c-2.4-0.5-17.9-6.6-19.5-7.8C10.1,165.8,2.3,118,0,103.7c1.9-1.6,21.4,16.3,24.7,18.3c5.1,3.2,20.9,10.6,27.3,12.4
				c5.3,1.5,10.9,1.8,16.4,1.6l-0.7-13.9l1.6-0.1C69.5,123.6,69.5,125.2,69.6,126.7L69.6,126.7z"/>
			<path class="st1" d="M68.4,51.4c0.8,23.4-0.2,47.2,0.9,70.6l-1.6,0.1L62.2,6.6c1.4,0.2,2.8-1.2,3.7-1.3
				c0.3,6.8-0.3,13.8-0.1,20.6C66.2,33.8,68.2,43.6,68.4,51.4z"/>
		</g>
		<path class="st0" d="M99.9,34.9c-1,1.1-3.5,0.8-3.9-0.8c-0.9-3.3,4.1-4.1,4.3-0.8C100.4,33.8,100.2,34.6,99.9,34.9z"/>
	</g>
</g>
</svg>
