<?xml version="1.0" encoding="UTF-8"?>
<svg id="Calque_2" data-name="Calque 2" xmlns="http://www.w3.org/2000/svg" viewBox="0 0 302.5 248.62">
  <defs>
    <style>
      .cls-1 {
        fill: #282729;
      }

      .cls-2 {
        fill: #f1ebe2;
      }

      .cls-3 {
        fill: #ebece7;
      }

      .cls-4 {
        fill: #d6346f;
      }

      .cls-5 {
        fill: #f0efe8;
      }
    </style>
  </defs>
  <g id="Calque_1-2" data-name="Calque 1">
    <g>
      <g>
        <path class="cls-4" d="M238.58,19.61c12.59,3.96,28.6,6.95,40.53,11.93,4.52,1.87-.69,1.27,5.77,2.32.47.07,7.01,6.15,7.12,6.62.82,3.16-.53,7.93.2,11.86,1.1,5.87,4.49,13.16,5.14,17.13.01.09-1.47-.44-1.36,1.03.39,4.58,3.69,8.4-3.1,9.64-15.27,2.8-38.46-2.9-54.29-3.55-.06-18.36,1.29-38.99,0-56.98Z"/>
        <path class="cls-1" d="M238.58,156.71c4.16.1,8.2-1.49,11.87-3.26,16.47-7.95,34.92-31.89,47.2-45.38,8.7-9.54,3.02,5.44,3.09,10.36.47,32.75-5.81,66.4-18.24,97.36-13.51,33.66-38.14,25.72-67.94,28.2-52.68,4.36-89.07,8.7-141.98-2.29-24.41-5.06-41.17-3.76-49.92-30.22C12.26,179.97,7.53,144.58,0,112.2c13.65,9.34,26.1,23.58,40.4,31.69,4.89,2.78,20.2,10,24.98,10.74,2.17.34,3.59.66,5.01-1.42L76.54.02c2.69,25.18,2.19,51.13,1.79,76.57-.44,27.45-1.72,54.44-3.39,81.72,10.79,1.13,22.55,5.54,32.91,7.17,16.11,2.52,31.95,1.87,47.86,1.85,27.38-.07,52.51.06,79.23-7.12l.09-145.93c5.28-.93,3.32,1.97,3.56,5.34,1.29,18-.06,38.63,0,56.98.07,26.67-.07,53.44,0,80.12Z"/>
        <path class="cls-4" d="M137.97,16.05c7.33,7.68,3.61,43.12,7.91,54.47-.56,9.24-30.97,5.92-38.26,5.99-3.13.03-6.07,1.49-8.83,1.5-5.97.01-13.75-2.85-20.47-1.42.4-25.44.9-51.39-1.79-76.57,4.58-.69,58.71,13.19,61.43,16.02Z"/>
      </g>
      <g>
        <path class="cls-3" d="M94.98,36.73c3.42-.63,3.78,4.3,1.37,4.74s-3.62-1.73-2.59-3.76c.26-.51.64-.87,1.22-.98Z"/>
        <path class="cls-3" d="M127.42,40.29c-1.04,1.1-3.49.78-3.89-.76-.88-3.34,4.1-4.06,4.32-.8.03.44-.12,1.24-.43,1.56Z"/>
      </g>
      <g>
        <path class="cls-5" d="M83.68,37.04c.09-.9-.03-.93-.51-1.35-1.25-1.12-6.93-2.81-8.73-3.4-.55-.18-1.23-.4-1.66-.51-.55-.14-2.94-1.05-3.16-.72-.04.05-.04,1.15-.01,1.43.03.31,3.47.84,4.11,1.04.93.29,9.87,4.4,9.96,3.5Z"/>
        <path class="cls-5" d="M155.66,48.16c-.95-1.59-5.22-.89-5.22-.89-2.04.38-4.2-.41-6.15-.42-1.58,0-4.18.16-5.72.4-.44.07-.9.09-1.01.84,1.7.12,3.44-.14,5.14-.01.59.05,1.14.39,1.6.43,1.18.09,11.14,1.65,11.42,1.24.04-.06.06-1.39-.06-1.58Z"/>
        <path class="cls-5" d="M81.33,43.64c-2.16-1.46-4.95-1.77-7.32-1.86-.93-.03-2.08-.41-2.2-.41h-6.88v1.24c1.6.1,3.23-.13,4.83,0,1.39.12,3.17.69,4.54.82,2.3.22,4.75.47,7.03.21Z"/>
        <path class="cls-5" d="M78.52,49.98c.39-.05,1.79-.23,1.94-.77-1.77-.37-3.48-.44-5.27-.42-2.02.03-6.36.12-8.07,1.21-.44.28-.82.42-.71,1.26,1.1-.34,2.92-.04,3.91-.41.28-.1,2.48.34,4.16.03.23-.04.92-.21,1.67-.39-.03-.15-.06-.31-.08-.46.82-.06,1.63.05,2.45-.05Z"/>
        <path class="cls-5" d="M136.97,57.58c-.07.59.52.57.82.69.96.38,2.01.63,2.99.95.72.24,1.58.59,2.23.79.88.26,3.38,1.19,4.06,1.23.79.05,1.24-.5,1.04-1.6-1.81-.2-6.4-2.01-6.74-2.06-1.37-.22-2.99.16-4.39,0Z"/>
        <path class="cls-5" d="M137.55,38.82c-.25.89.67.66,1.02.61,2.3-.3,4.56-1.06,6.89-1.23,2.45-.18,5.46.42,7.78.02.5-.09,1.01-.11,1.01-1.05-1.13-1.2-7.61.09-8.79.2-1.06.1-7.71.73-7.91,1.45Z"/>
        <path class="cls-5" d="M135.5,32.21c.18.54.82.04,1.11-.08,3.16-1.29,5.74-2.33,8.85-3.01.22-.05,1.45-.52,1.47-.62v-.61c-.49.03-.98-.05-1.47,0-1.86.19-7.53,1.94-9.1,3.07-.36.26-.91.55-.87,1.26Z"/>
      </g>
      <path class="cls-2" d="M288.61,62.79c-1.34-.74-2.68-1.56-4.06-2.23-.49-.24-2.32-1.17-2.69-1.23-.18-.03-.81.3-1.1.39-3.38.98-6.74,1.01-9.47-1.51s-3.13-6.49.22-8.86c2.69-1.91,7.55-1.7,10.47-.45,2.46,1.05,2.53,3.26,2.45,5.63l6.48.31c.13,0,.25-.11.26-.11,1.84.06,3.7.18,5.54.32.07.9-.29.5-.86.46-1.54-.1-3.12-.07-4.63-.14-1.67-.07-3.35-.2-5.03-.28-.34-.02-1.59-.09-1.81-.02-.07.02-.13.02-.16.1-.04.48-.38.9-.47,1.34-.04.18-.03.11.1.16.82.3,2.13.4,3.05.62,1.25.31,2.47.67,3.74.95,2.57.57,5.18.97,7.71,1.67l-.09.43s0,.18-.09.17c-2.48-.84-5.07-1.26-7.62-1.83-1.07-.24-2.02-.55-3.04-.81-1.33-.33-2.69-.59-4.02-.91-.01.45-.34.73-.5,1.12l6.95,2.74c-.14.21-.18.11-.26.4-2.3-1.04-4.65-2.01-7.08-2.72-.19-.03-.54.28-.47.45.1.23,2.04.93,2.41,1.11,1.42.68,2.98,1.5,4.36,2.26,1.24.68,2.42,1.53,3.73,2.12,0,.02-.24.39-.26.4-.28.11-.94-.52-1.19-.68-.15-.09-.32-.13-.44-.2-.72-.43-1.39-.76-2.11-1.16ZM275.53,55.59c.34,0,1.1.42,1.26.03.18-1.53.36-3.06.38-4.61-.04-.23-1.12-.52-1.21-.18l-.43,4.75Z"/>
      <path class="cls-2" d="M242.16,56c-.85.18-1.74.26-2.59.45-.23.05-1.98.59-2.03.5.03-.12.03-.27.09-.37.12-.2,2.34-.5,2.76-.59.48-.11,1.06-.39,1.52-.49,1.67-.36,3.4-.62,5.09-.99.17-.04.39,0,.49-.04.26-.07-.09-.25-.15-.34-.12-.18-.5-.92-.54-.96-.08-.07-.26-.08-.37-.1-1.36-.14-3.4.41-4.84.46-.5.02-1.73.21-1.42-.55.42.05.9-.09,1.28-.11.11,0,.28.06.44.05,1.5-.07,3-.16,4.5-.23.1-.02.17-.03.18-.16,0-.08-.46-1.31-.66-1.36-.71.05-1.42-.13-2.12-.15-.84-.02-1.69.09-2.53.09-1.55.01-3.07.08-4.62.11-2.28.06-4.56.03-6.84.16l.16-.78c.87,0,1.74-.07,2.62-.07,2.83-.02,5.68.04,8.5.08.3,0,.67.08,1,.09,1.26.02,2.53-.08,3.78-.01.15-.53-.11-.68-.52-.89-1.21-.64-2.89-1.23-4.19-1.7-2.96-1.07-6.02-1.98-9.05-2.85-.41-.12-.85-.15-1.26-.26l.25-.76c3.37,1.01,6.68,2.2,9.96,3.49,1.59.63,3.18,1.3,4.75,1.97.08-1.27.31-2.29,1.08-3.31,2.47-3.27,6.89-2.17,9.97-.42,2.73,1.54,4.23,3.47,3.34,6.72-1.07,3.93-7.14,4.63-10.36,3.31-.48-.2-1.92-1.18-2.13-1.19-.55-.04-2.3.4-2.95.54-.87.18-1.74.47-2.61.66ZM254.85,47.92c-.2,0-.72-.21-.86-.16-.35.13-.5,2.31-.57,2.72s-.32,1.12-.31,1.46c0,.16.91.49.97.12l.76-4.14Z"/>
    </g>
  </g>
</svg>