<?xml version="1.0" encoding="utf-8"?>
<!-- Generator: $$$/GeneralStr/196=Adobe Illustrator 27.6.0, SVG Export Plug-In . SVG Version: 6.00 Build 0)  -->
<svg version="1.1" id="Calque_2_00000090999707633937726550000010997450864315053494_"
	 xmlns="http://www.w3.org/2000/svg" xmlns:xlink="http://www.w3.org/1999/xlink" x="0px" y="0px" viewBox="0 0 101 80.7"
	 style="enable-background:new 0 0 101 80.7;" xml:space="preserve">
<style type="text/css">
	.st0{fill:#D6346F;}
	.st1{fill:#282729;}
	.st2{fill:#F1EBE2;}
</style>
<g id="Calque_1-2">
	<g>
		<g>
			<path class="st0" d="M72.2,1.5c1.5,5.2,3.1,12,2.5,17.4c-0.1,0.4,0.1,0.9,0,1.2c-9,5.2-17.8,2.6-27.4,5c-0.8,0.2-2.2,0.2-2.5-0.8
				c-1.4-5.2,0.9-16.5-1.2-22.9c7.6-1.9,19.8-2.2,27.4,0C71.3,1.7,71.9,1.4,72.2,1.5z"/>
			<path class="st1" d="M47.3,25.2v1.2c-0.4,0.3-2.1-0.6-2.3,0.6c-0.4,1.9,1.8,20.3,3.1,20.7c19,1.5,35.8-8.3,52.7-15
				c1.7,2.2-6.9,27.9-9,31.4C81.7,81,47.6,81.8,30.5,79.9c-4.8-0.5-14.3-3.9-17.2-7.8C5.5,61.8,3,40.3,0,27.7
				C1.6,26,18.4,43.1,21.2,44.4c6.6,3,16.4,2.9,23.6,4.4C44.1,33,42.2,17.4,42.3,1.5h1.2c2.1,6.4-0.2,17.6,1.2,22.9
				C45,25.4,46.4,25.3,47.3,25.2z"/>
		</g>
		<path class="st2" d="M53.9,11.3c-0.2,0-0.5,0-0.5,0.1c0.1,0.7,0.2,1.4,0.5,2c0,0.1,0.5,0.1,0.5-0.1L53.9,11.3L53.9,11.3z"/>
		<path class="st2" d="M63.7,11.8c0.1,0,0.3,0,0.4-0.1c0.1-0.1-0.1-1.1-0.1-1.2s0-0.5-0.1-0.7c0-0.1-0.5-0.1-0.4,0.1L63.7,11.8
			L63.7,11.8z"/>
	</g>
</g>
</svg>
