<?xml version="1.0" encoding="UTF-8"?>
<svg id="Calque_2" data-name="Calque 2" xmlns="http://www.w3.org/2000/svg" viewBox="0 0 101.11 82.83">
  <defs>
    <style>
      .cls-1 {
        fill: #282729;
      }

      .cls-2 {
        fill: #d6346f;
      }
    </style>
  </defs>
  <g id="Calque_1-2" data-name="Calque 1">
    <g>
      <g>
        <path class="cls-2" d="M68.94.37c2.01,5.03,4.41,11.62,4.36,17.06,0,.43.2.89.13,1.23-8.4,6.13-17.4,4.53-26.68,7.9-.83.26-2.21.48-2.59-.52-1.93-5.05-.85-16.45-3.67-22.59C47.86.79,59.88-.89,67.7.5c.41.08.89-.23,1.23-.13Z"/>
        <path class="cls-1" d="M46.74,26.56l.13,1.23c-.4.32-2.12-.35-2.22.82-.16,1.93,4.01,20,5.27,20.21,19.07-.56,34.73-12.15,50.81-20.61,1.88,2.05-3.86,28.45-5.57,32.21-8.17,17.93-41.99,22.39-59.23,22.4-4.81,0-14.67-2.33-17.97-5.89C9.12,67.43,4.36,46.4,0,34.15c1.43-1.81,19.92,13.35,22.92,14.32,6.93,2.22,16.62,1.11,23.89,1.86-2.35-15.62-6-31-7.57-46.75l1.24-.13c2.82,6.13,1.74,17.53,3.67,22.59.38,1,1.76.78,2.59.52Z"/>
      </g>
      <g>
        <path class="cls-2" d="M73.99,12.07c.05.58.13.59.49.8.94.56,4.76.94,5.98,1.09.38.05.83.1,1.12.12.37.02,2,.31,2.11.07.02-.04-.11-.74-.17-.91-.06-.19-2.32-.11-2.75-.16-.63-.07-6.84-1.59-6.78-1.01Z"/>
        <path class="cls-2" d="M26.72,13.85c.8.9,3.44-.08,3.44-.08,1.25-.5,2.73-.25,3.97-.49,1.01-.19,2.65-.61,3.6-.96.27-.1.57-.17.54-.66-1.1.13-2.17.51-3.28.64-.38.04-.77-.11-1.07-.08-.77.09-7.31.32-7.44.62-.02.04.14.9.23,1Z"/>
        <path class="cls-2" d="M74.68,7.57c1.56.67,3.37.52,4.9.28.6-.09,1.38,0,1.45,0l4.39-.85-.15-.79c-1.03.13-2.04.48-3.08.59-.9.1-2.11-.05-3,.04-1.5.14-3.09.28-4.51.73Z"/>
        <path class="cls-2" d="M75.69,3.18c-.24.08-1.12.37-1.14.73,1.17.02,2.28-.15,3.41-.38,1.28-.27,4.04-.86,5-1.77.25-.23.47-.37.3-.89-.66.35-1.85.38-2.44.74-.17.1-1.62.09-2.66.49-.14.06-.56.25-1.02.46.04.09.08.19.11.28-.51.14-1.05.17-1.56.34Z"/>
        <path class="cls-2" d="M37.48,5.54c-.03-.39-.4-.3-.61-.34-.66-.12-1.36-.15-2.02-.24-.49-.06-1.08-.18-1.52-.23-.59-.06-2.3-.34-2.74-.28-.51.07-.73.47-.46,1.15,1.18-.09,4.33.49,4.55.49.9-.03,1.88-.47,2.8-.54Z"/>
        <path class="cls-2" d="M39.42,17.58c.05-.6-.51-.34-.73-.26-1.43.48-2.78,1.24-4.24,1.63-1.54.41-3.53.4-4.96.94-.31.12-.63.2-.52.79.87.62,4.84-1,5.58-1.21.66-.19,4.83-1.42,4.86-1.9Z"/>
        <path class="cls-2" d="M41.54,21.54c-.18-.32-.53.08-.7.19-1.85,1.21-3.37,2.19-5.27,3.01-.13.06-.86.51-.86.58l.08.39c.3-.08.63-.09.93-.18,1.16-.35,4.56-2.16,5.42-3.08.2-.21.51-.46.4-.91Z"/>
      </g>
    </g>
  </g>
</svg>