<?xml version="1.0" encoding="utf-8"?>
<!-- Generator: $$$/GeneralStr/196=Adobe Illustrator 27.6.0, SVG Export Plug-In . SVG Version: 6.00 Build 0)  -->
<svg version="1.1" id="Calque_2_00000181791865400350251780000014754160735227328393_"
	 xmlns="http://www.w3.org/2000/svg" xmlns:xlink="http://www.w3.org/1999/xlink" x="0px" y="0px" viewBox="0 0 216.3 210.3"
	 style="enable-background:new 0 0 216.3 210.3;" xml:space="preserve">
<style type="text/css">
	.st0{fill:#D6346F;}
	.st1{fill:#282729;}
	.st2{fill:#EBECE7;}
</style>
<g id="Calque_1-2">
	<g>
		<g>
			<path class="st0" d="M135,1.1c20.9,8.3,41.9,15.9,63.2,23.3c1.6,1.4,2.4,5.7,2.6,7.9c0.9,9.1,1.5,21.7,1.2,30.8
				c0,1.1-0.1,3.5-0.9,4c-22,5.1-44.3,10.2-67,9.6c-0.1-24-1.8-48.7-0.9-72.5C133.3,2.4,132.4,0.6,135,1.1L135,1.1z"/>
			<path class="st1" d="M135,1.1c-2.6-0.5-1.7,1.4-1.7,3c-0.9,23.8,0.7,48.6,0.9,72.5c0.1,10.2,0,20.8,0,31.1
				c0.1,14.2,0.5,28.6-0.9,42.7h-1.8l0.1-149.8C131.8-1,134.5,0.9,135,1.1L135,1.1z"/>
			<path class="st2" d="M116,99c0.1,2.4,0.2,13.4-1.2,14.6c-1.8,1.5-18.3,2-22.2,2.6l-0.9-33.4c7.7,2.4,15.4,5.1,23.3,7.1
				C114.7,93,115.8,96,116,99L116,99z"/>
			<path class="st0" d="M91.7,82.8l0.9,33.4c-3.8,0.5-7.9,2.2-11.7,2.6c-5.3,0.6-11.8,1-16.9,0c0-0.6-0.9-2.2-0.9-3.9
				c-0.2-13.1,0.4-26.2,0-39.2C73.2,75.7,82.4,79.9,91.7,82.8L91.7,82.8z"/>
			<path class="st1" d="M63.1,114.9c0,1.7,0.9,3.2,0.9,3.9c0.2,10.8-1.3,25.4,0,35.6c0.1,0.9,0,2,0.9,2.6c3.2,2.2,12.3,0.5,16,0.4
				c17-0.5,34-2,50.6-6.2v-0.8h1.8c1.5,0.1,3,0.1,4.6-0.2c3.8-0.7,33.6-14.1,47.4-33.8c3.5-5,4.3-12.2,6.9-17.4
				c0.3-0.6,0.4-2.9,1.8-1.2c0.7,0.9,2.4,19.5,2.6,22.4c0.8,12.1,1.5,30.5,0,42.3c-0.4,3.5-1.3,7.6-3.2,11.6
				c-5.3,11.7-24.9,22.7-37.1,27.4c-11.1,4.2-56.7,8.8-56.7,8.8c-3,0.4-46.7-1.8-46.7-1.8s0,0,0,0c-1-0.1-2.1-0.3-3-0.6
				c-6.8-2.5-37.3-10.4-48-38c-0.4-2.9-0.7-7.8-0.9-10.9c-0.9-15-0.2-31.1-0.8-46.2c1.6-0.3,1.7,0.5,2.5,1.5
				c9.6,12.7,29.9,34.3,44.7,39.9c4.3,1.6,10.5,0.5,15.2,2.6l0.9-80.8C63.6,88.8,63,101.9,63.1,114.9L63.1,114.9z"/>
		</g>
		<path class="st2" d="M151.6,36.4c3.4-0.6,3.8,4.3,1.4,4.7s-3.6-1.7-2.6-3.8C150.6,36.9,151,36.5,151.6,36.4z"/>
		<path class="st2" d="M184,40c-1,1.1-3.5,0.8-3.9-0.8c-0.9-3.3,4.1-4.1,4.3-0.8C184.5,38.9,184.3,39.7,184,40L184,40z"/>
	</g>
</g>
</svg>
