<?xml version="1.0" encoding="UTF-8"?>
<svg id="Calque_2" data-name="Calque 2" xmlns="http://www.w3.org/2000/svg" viewBox="0 0 101 80.65">
  <defs>
    <style>
      .cls-1 {
        fill: #282729;
      }

      .cls-2 {
        fill: #f1ebe2;
      }

      .cls-3 {
        fill: #d6346f;
      }
    </style>
  </defs>
  <g id="Calque_1-2" data-name="Calque 1">
    <g>
      <g>
        <path class="cls-3" d="M72.18,1.53c1.46,5.22,3.13,12.03,2.49,17.43-.05.43.1.91,0,1.24-9.01,5.19-17.79,2.63-27.38,4.98-.85.17-2.25.24-2.52-.8-1.37-5.23.93-16.45-1.21-22.85,7.62-1.85,19.75-2.23,27.38,0,.4.12.91-.13,1.24,0Z"/>
        <path class="cls-1" d="M47.29,25.18v1.24c-.43.28-2.07-.58-2.3.58-.37,1.9,1.83,20.32,3.06,20.66,19.02,1.5,35.84-8.33,52.74-15.01,1.65,2.24-6.91,27.87-9.01,31.42-10.06,16.94-44.16,17.73-61.3,15.88-4.78-.52-14.33-3.9-17.23-7.79C5.48,61.75,3.01,40.33,0,27.68c1.62-1.64,18.36,15.42,21.24,16.71,6.65,2.95,16.4,2.9,23.55,4.43-.65-15.78-2.62-31.47-2.48-47.29h1.25c2.14,6.4-.16,17.62,1.21,22.85.27,1.04,1.67.97,2.52.8Z"/>
      </g>
      <path class="cls-2" d="M47.43,9.98c.67.13,1.34.3,2.02.41.24.04,1.14.19,1.31.17.08-.01.3-.24.41-.31,1.3-.87,2.72-1.32,4.22-.62s2.19,2.33,1.08,3.78c-.89,1.17-2.98,1.72-4.38,1.58-1.18-.12-1.51-1.05-1.79-2.06l-2.79.73c-.06.02-.09.08-.1.08-.79.22-1.59.42-2.39.6-.15-.37.06-.25.3-.31.67-.16,1.33-.38,1.98-.56.72-.19,1.45-.36,2.17-.55.15-.04.68-.17.77-.23.03-.02.05-.03.06-.06-.05-.21.04-.43.02-.63,0-.08,0-.05-.06-.05-.39-.02-.96.12-1.37.14-.57.04-1.13.04-1.71.09-1.16.1-2.32.28-3.49.32l-.02-.2s-.02-.07.01-.08c1.16.03,2.32-.14,3.48-.23.48-.04.93-.03,1.4-.06.61-.04,1.22-.11,1.83-.15-.05-.19.04-.35.06-.54l-3.31-.24c.03-.11.06-.07.06-.2,1.11.14,2.24.23,3.36.21.08-.01.19-.19.14-.25-.07-.09-.99-.12-1.17-.15-.69-.1-1.46-.24-2.15-.38-.62-.12-1.23-.33-1.86-.4,0,0,.05-.2.06-.2.1-.08.47.09.6.13.08.02.15.01.21.03.36.09.69.14,1.05.21ZM53.93,11.29c-.15.04-.52-.03-.54.15.13.67.25,1.35.45,2,.05.09.54.07.54-.09l-.45-2.07Z"/>
      <path class="cls-2" d="M68.03,6.68c.34-.19.7-.34,1.04-.53.09-.05.76-.52.79-.48,0,.05.02.12.01.17-.02.1-.93.52-1.09.62-.19.11-.4.31-.58.41-.66.37-1.36.72-2.03,1.1-.07.04-.16.05-.2.08-.1.06.07.1.11.13.07.06.34.32.36.33.04.02.12,0,.17,0,.6-.12,1.39-.63,1.99-.84.21-.07.71-.32.67.05-.19.03-.37.16-.53.22-.05.02-.13.01-.19.04-.63.23-1.25.47-1.88.7-.04.02-.07.04-.06.09,0,.03.37.49.46.49.29-.12.62-.13.92-.22.36-.1.71-.26,1.06-.38.65-.21,1.29-.44,1.94-.66.96-.33,1.93-.62,2.88-.98l.03.35c-.37.11-.73.26-1.1.38-1.2.38-2.42.74-3.62,1.09-.13.04-.29.05-.43.1-.53.16-1.06.37-1.6.51,0,.25.13.27.34.31.6.11,1.39.14,2,.16,1.4.06,2.82.04,4.22,0,.19,0,.38-.05.57-.06v.36c-1.57.02-3.13-.04-4.69-.15-.76-.05-1.52-.13-2.28-.2.14.55.17,1.01-.02,1.55-.61,1.72-2.63,1.83-4.17,1.5-1.36-.29-2.25-.91-2.31-2.41-.07-1.81,2.41-2.91,3.95-2.78.23.02.97.24,1.06.22.24-.06.92-.48,1.18-.62.35-.19.67-.43,1.02-.63ZM63.72,11.79c.09-.03.33,0,.39-.05.13-.1-.09-1.05-.12-1.23s-.01-.52-.06-.66c-.02-.07-.45-.09-.43.08l.23,1.86Z"/>
    </g>
  </g>
</svg>