<?xml version="1.0" encoding="utf-8"?>
<!-- Generator: $$$/GeneralStr/196=Adobe Illustrator 27.6.0, SVG Export Plug-In . SVG Version: 6.00 Build 0)  -->
<svg version="1.1" id="Calque_2_00000180352091149361223680000016166219241836748465_"
	 xmlns="http://www.w3.org/2000/svg" xmlns:xlink="http://www.w3.org/1999/xlink" x="0px" y="0px" viewBox="0 0 98.6 140.1"
	 style="enable-background:new 0 0 98.6 140.1;" xml:space="preserve">
<style type="text/css">
	.st0{fill:#D6346F;}
	.st1{fill:#282729;}
</style>
<g id="Calque_1-2">
	<g>
		<g>
			<path class="st0" d="M61,7.9c1.8,5.4,7,25.6,4.4,29.9c-3.5,5.8-27.2,4.2-33,0c0-0.8-1.1-2.5-1.2-4.3C30.6,22.8,30,12.2,29.9,1.6
				c1.2-1.2,1.2-1.1,3-1.3c4.6-0.5,25.4-0.9,27.5,2.6C61.5,4.7,60.6,6.8,61,7.9z"/>
			<path class="st1" d="M32.3,37.7c0.1,1.6-1.5,5.8-1,7.9l3,48.2c20,5.6,39.6-8.3,52.2-22.5c3.6-4.1,6.3-12.7,11.8-12.5
				c2,2-5.9,47.5-7.6,54c-0.8,2.9-1.6,6.9-2.9,9.5c-8.9,17.4-53.1,20.5-69.7,15.5c-3.1-0.9-6.2-4.7-10.4-4.5L0,76.3l17.8,13.9
				c3,0.7,11.9,5.5,13.1,1.4L28.6,7.9c0.1-2.5-0.8-4.2,1.2-6.2c0.1,10.6,0.7,21.2,1.2,31.8C31.2,35.2,32.3,37,32.3,37.7z"/>
		</g>
	</g>
</g>
</svg>
