<?xml version="1.0" encoding="UTF-8"?>
<svg id="Calque_2" data-name="Calque 2" xmlns="http://www.w3.org/2000/svg" viewBox="0 0 202.08 210.26">
  <defs>
    <style>
      .cls-1 {
        fill: #282729;
      }

      .cls-2 {
        fill: #ebece7;
      }

      .cls-3 {
        fill: #d6346f;
      }
    </style>
  </defs>
  <g id="Calque_1-2" data-name="Calque 1">
    <g>
      <g>
        <path class="cls-3" d="M135.01,1.09c20.87,8.27,41.93,15.92,63.16,23.3,1.58,1.44,2.38,5.7,2.61,7.9.95,9.1,1.5,21.65,1.24,30.75-.03,1.07-.1,3.48-.89,4.04-21.98,5.13-44.26,10.19-66.99,9.57-.12-23.95-1.79-48.73-.86-72.52.06-1.69-.89-3.52,1.73-3.04Z"/>
        <path class="cls-1" d="M135.01,1.09c-2.62-.49-1.67,1.35-1.73,3.04-.92,23.79.74,48.58.86,72.52.05,10.17,0,20.82.03,31.14.06,14.21.47,28.57-.9,42.66h-1.84l.1-149.76c.22-1.67,2.96.19,3.48.4Z"/>
        <path class="cls-2" d="M116,99.01c.14,2.45.24,13.43-1.25,14.62-1.83,1.47-18.27,2.02-22.15,2.56l-.86-33.39c7.73,2.43,15.42,5.13,23.28,7.12-.32,3.12.81,6.08.98,9.1Z"/>
        <path class="cls-3" d="M91.74,82.8l.86,33.39c-3.82.52-7.89,2.19-11.67,2.64-5.26.64-11.79,1-16.89,0,0-.64-.88-2.22-.9-3.89-.18-13.07.44-26.18.03-39.16,9.99-.09,19.25,4.11,28.56,7.02Z"/>
        <path class="cls-1" d="M63.14,114.93c.02,1.67.89,3.25.9,3.89.21,10.84-1.29,25.44-.04,35.62.12.95-.05,2.03.86,2.65,3.25,2.23,12.35.47,16.03.35,17.01-.54,34.01-2.04,50.56-6.23v-.76h1.84c1.53.08,3.04.06,4.55-.21,3.82-.67,33.64-14.11,47.36-33.83,3.46-4.98,4.26-12.25,6.86-17.42.31-.62.42-2.94,1.81-1.25.71.86,2.45,19.53,2.64,22.37.79,12.13,1.46,30.52.04,42.33-.42,3.5-1.34,7.57-3.2,11.65-5.33,11.67-24.94,22.72-37.1,27.35-11.15,4.24-56.72,8.78-56.72,8.78-3.01.42-46.73-1.77-46.73-1.77,0,0-.01,0-.02,0-1.03-.12-2.06-.26-3.04-.61-6.83-2.46-37.26-10.39-48-38.04-.39-2.9-.7-7.82-.9-10.94-.95-14.99-.24-31.09-.83-46.16,1.56-.35,1.7.48,2.45,1.47,9.6,12.69,29.85,34.28,44.65,39.89,4.31,1.63,10.49.51,15.21,2.57l.87-80.83c.4,12.98-.22,26.09-.03,39.16Z"/>
      </g>
      <g>
        <path class="cls-2" d="M157.72,40.81c5.53-.47,5.32,7.41,1.43,7.73-3.92.33-5.48-3.31-3.52-6.37.49-.77,1.15-1.29,2.1-1.37Z"/>
        <path class="cls-2" d="M183.73,49.07c-1.82,1.58-5.65.7-6.05-1.81-.87-5.44,7.14-5.8,6.97-.6-.02.71-.38,1.94-.92,2.41Z"/>
      </g>
    </g>
  </g>
</svg>