<?xml version="1.0" encoding="UTF-8"?>
<svg id="Calque_2" data-name="Calque 2" xmlns="http://www.w3.org/2000/svg" viewBox="0 0 572.58 260.27">
  <defs>
    <style>
      .cls-1 {
        fill: #282729;
      }

      .cls-2 {
        fill: #ebece7;
      }

      .cls-3 {
        fill: #d6346f;
      }

      .cls-4 {
        fill: #f0efe8;
      }
    </style>
  </defs>
  <g id="Calque_1-2" data-name="Calque 1">
    <g>
      <g>
        <path class="cls-3" d="M512.75,19.91c8.59,1.35,25.72,1.4,32.74,3.97,4.13,1.52,4.12,13.81,3.32,17.55-.08.4-5.18,5.65-5.52,5.9-4.78,3.53-22.48,7.91-29.3,9.92l-1.24-37.34Z"/>
        <path class="cls-2" d="M512.75,19.91l1.24,37.34c-11.04,3.24-21.76,7.86-33.6,7.46-2.75-15.86-2-32.55-4.98-48.53.19-.49-.37-1.61.11-2.33,1.49-1.17,32.28,5.28,37.23,6.06Z"/>
        <path class="cls-1" d="M133.17,58.46c.13,6.24,2.24,16.38,2.48,22.43.18,4.6-.22,10.04.01,15.65.15,3.85-.84,19.93.16,21.52,3.77,1.25,7.88,1.91,11.81,2.5,105.09,15.8,210.34,8.97,314.35-10.16,2.66-.49,15.6-2.59,15.97-4.19-.16-17.39-.4-34.77-1.24-52.13-.48-9.77-4.51-29.85-1.3-37.9,2.98,15.98,2.23,32.67,4.98,48.53,1.54,11.58-.44,26.9,1.23,38,.49,3.25,3.89,2.02,6.56,1.53,11.26-2.06,28.33-9.6,39.1-14.42,15.81-7.06,30.23-14.94,43.36-26.34,1.96-.27,2.1-.11,1.84,1.83-.87,6.64-8.94,25.54-11.84,32.99-18.73,48.05-34.81,77.69-66.52,117.95-5.14,6.54-9.51,18.02-17.16,22.38-7.28,4.16-34.37,10.72-43.58,12.43-9,1.67-20.33,3-29.55,4.05-78.2,8.93-157.11,4.76-235.2-1.22-28.09-2.15-67.67-1.77-94.24-9.06-6.09-1.67-8.55-5.27-12.15-10.26-18.85-26.08-41.87-94.87-51.94-127.27-3.97-12.77-7.05-25.89-10.3-38.85,5.56-1.18,6.64,4.18,9.46,6.1,6.83,4.63,13.8,11.04,22.04,15.28,30.41,15.67,67.23,21.48,100.41,28.39-.83-6.44.25-12.84.05-19.34-.4-13.39-1.02-26.85-1.58-40.3l2.79-.12Z"/>
        <path class="cls-2" d="M212.81,23.64c3.59.88,9.2.81,13.7,1.86,11,2.55,22.16,4.97,33.02,8.05,1.05,1.61,1.27,36.7.3,38.36-.24.41-3.51,2.09-4.32,2.28-9.49,2.23-31.21,1.9-42.7,2.97V23.64Z"/>
        <path class="cls-3" d="M212.81,23.64v53.52c-22.67,2.1-48.75,6.94-71.21,3.27-2.23-.37-3.81-.49-5.95.46-.24-6.05-2.35-16.19-2.48-22.43-.01-.2-.01-.4-.01-.59v-27.38c0-.44-1.2-2.07-1.29-3.69-.5-8.91-.52-17.91-1.2-26.8,26.21,7.06,52.14,15.13,78.5,21.75,1.63.4,3.03,1.74,3.64,1.89Z"/>
        <path class="cls-1" d="M129.46,34.16c-.17-5.38-2.92-32.59-1.11-34.04l2.32-.12c.68,8.89.7,17.89,1.2,26.8.09,1.62,1.29,3.25,1.29,3.69v27.38c0,.19,0,.39.01.59l-2.79.12c-.35-8.15-.67-16.29-.92-24.42Z"/>
      </g>
      <g>
        <path class="cls-2" d="M155.54,38.07c5.46-1.01,6.02,6.85,2.18,7.56-3.87.71-5.77-2.76-4.13-5.99.41-.81,1.02-1.39,1.95-1.56Z"/>
        <path class="cls-2" d="M190.24,43.75c-1.66,1.75-5.56,1.25-6.2-1.21-1.4-5.33,6.54-6.47,6.88-1.28.05.71-.19,1.97-.68,2.48Z"/>
      </g>
      <g>
        <path class="cls-4" d="M189.62,58.11c-.08.38.03.4.46.58,1.13.48,6.25,1.2,7.88,1.45.5.08,1.11.17,1.5.22.49.06,2.65.45,2.86.31.03-.02.04-.49.01-.61-.03-.13-3.13-.36-3.71-.45-.84-.12-8.91-1.88-8.99-1.5Z"/>
        <path class="cls-4" d="M134.66,55.85c.86.68,4.71.38,4.71.38,1.84-.16,3.79.18,5.55.18,1.43,0,3.78-.07,5.17-.17.4-.03.82-.04.92-.36-1.54-.05-3.1.06-4.64,0-.54-.02-1.03-.17-1.44-.18-1.07-.04-10.06-.7-10.31-.53-.03.02-.05.6.05.68Z"/>
        <path class="cls-4" d="M191.73,55.29c1.95.63,4.47.76,6.61.79.84.01,1.88.18,1.98.18h6.21s0-.53,0-.53c-1.44-.04-2.92.06-4.36,0-1.26-.05-2.86-.29-4.1-.35-2.08-.1-4.29-.2-6.35-.09Z"/>
        <path class="cls-4" d="M194.28,52.58c-.35.02-1.62.1-1.75.33,1.59.16,3.15.19,4.76.18,1.82-.01,5.75-.05,7.29-.52.4-.12.74-.18.64-.54-1,.14-2.63.02-3.53.17-.25.04-2.24-.15-3.76-.01-.21.02-.83.09-1.51.17.03.07.05.13.07.2-.74.03-1.47-.02-2.22.02Z"/>
        <path class="cls-4" d="M151.53,51.83c.06-.25-.47-.25-.74-.3-.87-.16-1.81-.27-2.7-.41-.65-.1-1.42-.25-2.01-.34-.79-.11-3.05-.51-3.67-.53-.71-.02-1.12.21-.93.68,1.64.09,5.78.86,6.08.88,1.24.1,2.7-.07,3.97,0Z"/>
        <path class="cls-4" d="M151.01,59.84c.23-.38-.61-.28-.92-.26-2.08.13-4.12.45-6.22.53-2.21.08-4.93-.18-7.02,0-.45.04-.91.05-.91.45,1.02.51,6.87-.04,7.94-.09.95-.04,6.96-.31,7.14-.62Z"/>
        <path class="cls-4" d="M152.86,62.67c-.16-.23-.74-.02-1.01.04-2.85.55-5.18,1-7.99,1.28-.2.02-1.31.22-1.32.27v.26c.44-.01.89.02,1.32,0,1.68-.08,6.79-.83,8.21-1.31.33-.11.82-.23.78-.54Z"/>
      </g>
      <path class="cls-2" d="M200.91,33.92c-1.43-.18-2.63-1.06-3.87-1.72l-4.43-2.61c-.52-.34-1.15-.65-1.63-1.01-.18-.14-1.04-.89-1.12-1.03l-.03-.29c.02-.09.04-.18.06-.27.33.04.84-.61,1.14-.83,2.21-1.69,10.62-8.27,10.98-1.85.16,2.78-.36,5.93-.79,8.69-.06.36-.26.72-.31.93Z"/>
      <path class="cls-2" d="M148.22,16.11c.45-.06.93-.19,1.39-.06.24.06,1.07.36,1.29.39.12.01,1.79,1.09,2,1.24.04.03.07.06.1.09.18.28.48.48.71.7.15.14.34.31.43.4.04.04.08.07.1.09.62.62,1.24,1.23,1.87,1.83s.84.71,1.19,1.53c.03.07.24.03.19.23-.24.13-.64.56-.96.76-3.35,2.08-6.73,4.31-10.42,5.78-.07.03-.22-.02-.32.02-.08.03-.24.5-.44.32-.05-.04-.17-1.05-.18-1.21-.03-.5.21-1.13-.09-1.6,0-.06-.02-.13-.01-.19l.09-.15-.1-.04c.01-.12.08-.19.08-.2.09-.91.14-1.82.22-2.74.02-.23.04-.46.05-.68v-.1s-.01-.07-.01-.1c.27.04.18-.14.21-.32.18-1.41.53-3.01,1.06-4.34.2-.49.25-.55.62-.91.19-.19.43-.37.65-.53.1-.07.13-.11.28-.21Z"/>
    </g>
  </g>
</svg>