<?xml version="1.0" encoding="UTF-8"?>
<svg id="Calque_2" data-name="Calque 2" xmlns="http://www.w3.org/2000/svg" viewBox="0 0 324.43 306.42">
  <defs>
    <style>
      .cls-1 {
        fill: #282729;
      }

      .cls-2 {
        fill: #ebece7;
      }

      .cls-3 {
        fill: #d6346f;
      }
    </style>
  </defs>
  <g id="Calque_1-2" data-name="Calque 1">
    <g>
      <g>
        <g>
          <path class="cls-1" d="M323.59,134.7c4.76,5.92-12.18,92.66-15.38,105.5-2.5,10.05-9.1,33.41-16.81,40.03-12.1,10.37-52.52,24.06-68.63,25.42-32.25,2.73-81.41-2.34-114.58-5.54-36.1-3.48-70.53-1.55-85.46-39.98-6.46-16.59-14.01-54.5-18.17-73.54-2.53-11.57-1.2-22.36-4.56-33.71,3.89-.04,8.79,1.23,11.86,3.58,3.99,3.05,3.54,6.95,5.1,8.53,7.98,8.12,32.69,28.79,42.6,32.85,6.41,2.64,50.25,11.8,53.16,9.55l3.59-.04c0,.63.01,1.26.03,1.88,23.33-.35,46.79,1.02,70.13,0,76.21-3.33,86.16-19.46,132.98-72.22,1.08-1.21-.1-3.49,4.15-2.31Z"/>
          <path class="cls-3" d="M186.09,19.98c4.89,3.55,13.28,61.63,10.05,65.43-26.98,6.94-54.58,2.18-81.61-1.64-.75-24-.48-48.82-1.81-72.72l73.38,8.93Z"/>
        </g>
        <path class="cls-1" d="M112.71,11.06c1.33,23.9,1.07,48.72,1.81,72.72.25,7.89,1.74,15.63,1.9,22.66.79,33.58-.69,67.33-.12,100.91l-3.59.04c-.91-2.19-1.67-3.84-1.78-6.35-1.43-32.37,1.37-65.95-.83-98.27-.2-3.02-6.41-3.65.64-5.2-5.59-27.99-.48-59.51-3.45-87.46-.44-4.13-1.68-6.5-3.67-9.93,10.62-1.11,8.65,3.14,9.09,10.88Z"/>
      </g>
      <path class="cls-2" d="M173.44,69.39c-.14.28-.9,1.12-1.2,1.41-2.44,2.35-3.89,2.22-6.92.98-2.62-1.07-5.04-2.79-7.01-4.84-.79-.83-1.62-1.75-2.28-2.71-.34-.48-1.93-3.43-2.12-3.5-2.69-.15-5.57,0-8.02-1.25-.85.63-1.48,1.37-2.4,1.94-1.33.82-2.9,1.09-4.18,1.95-.96,0-4.97,1.49-6.41,1.78-1.98.4-2.89.68-4.75-.48-1.4-.88-2.14-2.57-2.59-4.12-1.48-4.97-.05-11.98,1.61-16.83.9-2.65,2.45-5.31,5.58-5.06,3.36.27,10.2,5.07,12.41,7.69.49.58,1.63,2.62,2.24,2.82.14.05,1.08-.17,1.46-.16,2.01.06,3.95.64,5.89,1.14.53.14,1.11.41,1.64.58,4.64-3.05,12.44-6.24,17.97-4.77.84.22,2.41,1.1,2.88,1.83,1.3,2,.66,6.35.19,8.57-.8,3.85-2.19,9.57-3.99,13.02Z"/>
    </g>
  </g>
</svg>