<?xml version="1.0" encoding="UTF-8"?>
<svg id="Calque_2" data-name="Calque 2" xmlns="http://www.w3.org/2000/svg" viewBox="0 0 164.3 183.37">
  <defs>
    <style>
      .cls-1 {
        fill: #282729;
      }

      .cls-2 {
        fill: #e2e4df;
      }

      .cls-3 {
        fill: #d6346f;
      }
    </style>
  </defs>
  <g id="Calque_1-2" data-name="Calque 1">
    <g>
      <g>
        <path class="cls-3" d="M103.29,28.36v23.03c-11.19,4.6-23.36,1.56-34.84,0-.26-7.82-2.21-17.57-2.54-25.46-.3-6.83.31-13.76.05-20.59,9.83-1.2,23.64,4.42,31.55,10.14,3.49,2.53,5.78,8.84,5.78,12.88Z"/>
        <path class="cls-1" d="M69.64,126.73c.22,3.55,1.61,6.92,1.31,10.52,2.39,2.51,34.42-4.15,39.56-5.84,13.43-4.39,38.24-25.9,45.28-38.1,2.28-3.95,4.89-17.84,8.51-8.94-4.81,27.65-8.67,56.75-22.02,81.61-10.27,3.98-20.49,8.18-31.26,10.74-19.73,4.7-50.53,9.11-70.29,5.06-2.44-.51-17.9-6.61-19.55-7.83C10.11,165.76,2.28,117.98,0,103.67c1.93-1.57,21.43,16.28,24.7,18.33,5.12,3.21,20.92,10.59,27.3,12.42,5.32,1.53,10.94,1.83,16.44,1.59l-.67-13.9,1.61-.08c.07,1.57.16,3.14.26,4.7Z"/>
        <path class="cls-1" d="M68.45,51.39c.76,23.37-.23,47.25.93,70.64l-1.61.08L62.22,6.62c1.37.23,2.84-1.17,3.74-1.28.26,6.83-.35,13.76-.05,20.59.33,7.89,2.28,17.64,2.54,25.46Z"/>
      </g>
      <g>
        <path class="cls-3" d="M60.13,31.28c.09-.9-.03-.93-.51-1.35-1.25-1.12-6.93-2.81-8.73-3.4-.55-.18-1.23-.4-1.66-.51-.55-.14-2.94-1.05-3.16-.72-.04.05-.04,1.15-.01,1.43.03.31,3.47.84,4.11,1.04.93.29,9.87,4.4,9.96,3.5Z"/>
        <path class="cls-3" d="M132.11,42.4c-.95-1.59-5.22-.89-5.22-.89-2.04.38-4.2-.41-6.15-.42-1.58,0-4.18.16-5.72.4-.44.07-.9.09-1.01.84,1.7.12,3.44-.14,5.14-.01.59.05,1.14.39,1.6.43,1.18.09,11.14,1.65,11.42,1.24.04-.06.06-1.39-.06-1.58Z"/>
        <path class="cls-3" d="M57.78,37.88c-2.16-1.46-4.95-1.77-7.32-1.86-.93-.03-2.08-.41-2.2-.41h-6.88v1.24c1.6.1,3.23-.13,4.83,0,1.39.12,3.17.69,4.54.82,2.3.22,4.75.47,7.03.21Z"/>
        <path class="cls-3" d="M54.97,44.22c.39-.05,1.79-.23,1.94-.77-1.77-.37-3.48-.44-5.27-.42-2.02.03-6.36.12-8.07,1.21-.44.28-.82.42-.71,1.26,1.1-.34,2.92-.04,3.91-.41.28-.1,2.48.34,4.16.03.23-.04.92-.21,1.67-.39-.03-.15-.06-.31-.08-.46.82-.06,1.63.05,2.45-.05Z"/>
        <path class="cls-3" d="M113.43,51.82c-.07.59.52.57.82.69.96.38,2.01.63,2.99.95.72.24,1.58.59,2.23.79.88.26,3.38,1.19,4.06,1.23.79.05,1.24-.5,1.04-1.6-1.81-.2-6.4-2.01-6.74-2.06-1.37-.22-2.99.16-4.39,0Z"/>
        <path class="cls-3" d="M114.01,33.06c-.25.89.67.66,1.02.61,2.3-.3,4.56-1.06,6.89-1.23,2.45-.18,5.46.42,7.78.02.5-.09,1.01-.11,1.01-1.05-1.13-1.2-7.61.09-8.79.2-1.06.1-7.71.73-7.91,1.45Z"/>
        <path class="cls-3" d="M111.96,26.45c.18.54.82.04,1.11-.08,3.16-1.29,5.74-2.33,8.85-3.01.22-.05,1.45-.52,1.47-.62v-.61c-.49.03-.98-.05-1.47,0-1.86.19-7.53,1.94-9.1,3.07-.36.26-.91.55-.87,1.26Z"/>
      </g>
      <path class="cls-2" d="M103.21,22.54c-1.43-.5-2.46-1.67-3.58-2.62l-3.95-3.65c-.45-.46-1.03-.92-1.45-1.4-.16-.18-.87-1.15-.92-1.3l.03-.3c.04-.09.08-.17.12-.26.33.11,1-.43,1.35-.6,2.64-1.23,12.71-6.1,11.65.55-.46,2.88-1.68,5.98-2.74,8.7-.14.35-.43.67-.52.88Z"/>
      <path class="cls-2" d="M68.19,0c.38.02.79-.01,1.15.16.18.09.82.46,1,.52.09.03,1.3,1.17,1.45,1.32.03.03.04.06.07.09.11.26.32.47.47.68.1.14.23.3.29.39.03.04.06.07.07.09.42.61.82,1.2,1.25,1.79s.58.71.74,1.44c.01.06.19.06.12.22-.21.07-.61.36-.9.48-3.07,1.19-6.19,2.5-9.45,3.14-.06.01-.18-.05-.26-.03-.07.01-.28.38-.41.2-.03-.04.02-.89.04-1.02.05-.41.35-.9.17-1.33.01-.05,0-.11.02-.16l.1-.11-.08-.05c.03-.09.1-.14.1-.15.22-.74.4-1.47.6-2.22.05-.18.1-.37.15-.55v-.08s.01-.05.02-.08c.21.07.17-.09.22-.23.37-1.13.9-2.39,1.54-3.4.24-.37.29-.41.65-.65.19-.13.41-.23.61-.33.09-.05.12-.07.26-.13Z"/>
      <path class="cls-3" d="M99.91,34.9c-1.04,1.1-3.49.78-3.89-.76-.88-3.34,4.1-4.06,4.32-.8.03.44-.12,1.24-.43,1.56Z"/>
    </g>
  </g>
</svg>