<?xml version="1.0" encoding="utf-8"?>
<!-- Generator: $$$/GeneralStr/196=Adobe Illustrator 27.6.0, SVG Export Plug-In . SVG Version: 6.00 Build 0)  -->
<svg version="1.1" id="Calque_2_00000153679487920247284670000004083884145900887696_"
	 xmlns="http://www.w3.org/2000/svg" xmlns:xlink="http://www.w3.org/1999/xlink" x="0px" y="0px" viewBox="0 0 572.6 260.3"
	 style="enable-background:new 0 0 572.6 260.3;" xml:space="preserve">
<style type="text/css">
	.st0{fill:#D6346F;}
	.st1{fill:#EBECE7;}
	.st2{fill:#282729;}
</style>
<g id="Calque_1-2">
	<g>
		<g>
			<path class="st0" d="M512.8,19.9c8.6,1.4,25.7,1.4,32.7,4c4.1,1.5,4.1,13.8,3.3,17.6c-0.1,0.4-5.2,5.7-5.5,5.9
				c-4.8,3.5-22.5,7.9-29.3,9.9L512.8,19.9z"/>
			<path class="st1" d="M512.8,19.9l1.2,37.3c-11,3.2-21.8,7.9-33.6,7.5c-2.8-15.9-2-32.5-5-48.5c0.2-0.5-0.4-1.6,0.1-2.3
				C477,12.7,507.8,19.1,512.8,19.9L512.8,19.9z"/>
			<path class="st2" d="M133.2,58.5c0.1,6.2,2.2,16.4,2.5,22.4c0.2,4.6-0.2,10,0,15.7c0.1,3.8-0.8,19.9,0.2,21.5
				c3.8,1.2,7.9,1.9,11.8,2.5c105.1,15.8,210.3,9,314.3-10.2c2.7-0.5,15.6-2.6,16-4.2c-0.2-17.4-0.4-34.8-1.2-52.1
				c-0.5-9.8-4.5-29.9-1.3-37.9c3,16,2.2,32.7,5,48.5c1.5,11.6-0.4,26.9,1.2,38c0.5,3.2,3.9,2,6.6,1.5c11.3-2.1,28.3-9.6,39.1-14.4
				c15.8-7.1,30.2-14.9,43.4-26.3c2-0.3,2.1-0.1,1.8,1.8c-0.9,6.6-8.9,25.5-11.8,33c-18.7,48.1-34.8,77.7-66.5,117.9
				c-5.1,6.5-9.5,18-17.2,22.4c-7.3,4.2-34.4,10.7-43.6,12.4c-9,1.7-20.3,3-29.5,4.1c-78.2,8.9-157.1,4.8-235.2-1.2
				c-28.1-2.1-67.7-1.8-94.2-9.1c-6.1-1.7-8.6-5.3-12.2-10.3c-18.8-26.1-41.9-94.9-51.9-127.3C6.3,94.5,3.3,81.4,0,68.5
				c5.6-1.2,6.6,4.2,9.5,6.1c6.8,4.6,13.8,11,22,15.3c30.4,15.7,67.2,21.5,100.4,28.4c-0.8-6.4,0.2-12.8,0.1-19.3
				c-0.4-13.4-1-26.8-1.6-40.3L133.2,58.5L133.2,58.5z"/>
			<path class="st1" d="M212.8,23.6c3.6,0.9,9.2,0.8,13.7,1.9c11,2.5,22.2,5,33,8c1,1.6,1.3,36.7,0.3,38.4c-0.2,0.4-3.5,2.1-4.3,2.3
				c-9.5,2.2-31.2,1.9-42.7,3L212.8,23.6L212.8,23.6z"/>
			<path class="st0" d="M212.8,23.6v53.5c-22.7,2.1-48.8,6.9-71.2,3.3c-2.2-0.4-3.8-0.5-5.9,0.5c-0.2-6.1-2.4-16.2-2.5-22.4
				c0-0.2,0-0.4,0-0.6V30.5c0-0.4-1.2-2.1-1.3-3.7c-0.5-8.9-0.5-17.9-1.2-26.8c26.2,7.1,52.1,15.1,78.5,21.8
				C210.8,22.1,212.2,23.5,212.8,23.6L212.8,23.6z"/>
			<path class="st2" d="M129.5,34.2c-0.2-5.4-2.9-32.6-1.1-34l2.3-0.1c0.7,8.9,0.7,17.9,1.2,26.8c0.1,1.6,1.3,3.2,1.3,3.7v27.4
				c0,0.2,0,0.4,0,0.6l-2.8,0.1C130,50.4,129.7,42.3,129.5,34.2z"/>
		</g>
		<g>
			<path class="st1" d="M155.5,38.1c5.5-1,6,6.8,2.2,7.6c-3.9,0.7-5.8-2.8-4.1-6C154,38.8,154.6,38.2,155.5,38.1L155.5,38.1z"/>
			<path class="st1" d="M190.2,43.8c-1.7,1.8-5.6,1.2-6.2-1.2c-1.4-5.3,6.5-6.5,6.9-1.3C191,42,190.7,43.2,190.2,43.8L190.2,43.8z"
				/>
		</g>
	</g>
</g>
</svg>
