<?xml version="1.0" encoding="UTF-8"?>
<svg id="Calque_2" data-name="Calque 2" xmlns="http://www.w3.org/2000/svg" viewBox="0 0 98.64 140.06">
  <defs>
    <style>
      .cls-1 {
        fill: #282729;
      }

      .cls-2 {
        fill: #d6346f;
      }

      .cls-3 {
        fill: #f0efe8;
      }
    </style>
  </defs>
  <g id="Calque_1-2" data-name="Calque 1">
    <g>
      <g>
        <path class="cls-2" d="M60.98,7.87c1.81,5.42,6.95,25.61,4.37,29.89-3.5,5.81-27.2,4.21-33-.02-.03-.75-1.15-2.51-1.24-4.3-.53-10.59-1.1-21.2-1.25-31.79,1.23-1.22,1.24-1.11,2.99-1.32,4.61-.53,25.37-.86,27.52,2.59,1.13,1.82.24,3.85.61,4.95Z"/>
        <path class="cls-1" d="M32.35,37.74c.07,1.6-1.48,5.81-1.05,7.94l3.02,48.2c19.96,5.57,39.59-8.3,52.18-22.52,3.59-4.06,6.31-12.73,11.81-12.47,2.04,1.98-5.9,47.54-7.62,53.99-.78,2.91-1.63,6.91-2.95,9.5-8.86,17.42-53.11,20.5-69.74,15.54-3.08-.92-6.23-4.67-10.36-4.53L0,76.33l17.79,13.93c3.02.73,11.89,5.49,13.13,1.43L28.62,7.87c.14-2.51-.81-4.19,1.24-6.22.15,10.59.72,21.2,1.25,31.79.09,1.79,1.21,3.55,1.24,4.3Z"/>
      </g>
      <g>
        <path class="cls-3" d="M35.15,20.43c.04-.33-.04-.34-.37-.47-.86-.36-4.66-.72-5.87-.86-.37-.04-.82-.09-1.11-.11-.37-.03-1.97-.26-2.12-.12-.02.02,0,.42.03.52.03.11,2.32.16,2.75.2.62.07,6.66,1.18,6.69.85Z"/>
        <path class="cls-3" d="M75.66,19.71c-.67-.54-3.48-.1-3.48-.1-1.35.23-2.79.03-4.09.12-1.05.07-2.77.24-3.79.4-.29.04-.6.07-.65.35,1.13-.03,2.28-.2,3.41-.23.4,0,.76.09,1.07.09.79-.02,7.43.12,7.61-.05.02-.02,0-.51-.07-.58Z"/>
        <path class="cls-3" d="M33.75,22.95c-1.47-.44-3.33-.43-4.9-.36-.62.03-1.39-.06-1.47-.06l-4.57.3.03.45c1.06-.03,2.14-.19,3.21-.21.93-.02,2.12.11,3.03.1,1.53-.02,3.16-.03,4.67-.23Z"/>
        <path class="cls-3" d="M32.03,25.39c.25-.03,1.19-.16,1.27-.37-1.18-.06-2.32,0-3.51.08-1.34.1-4.22.32-5.33.79-.29.12-.53.19-.44.49.72-.17,1.93-.14,2.58-.32.18-.05,1.66.02,2.76-.17.15-.03.6-.12,1.1-.22-.02-.06-.05-.11-.07-.17.54-.06,1.08-.05,1.63-.13Z"/>
        <path class="cls-3" d="M63.49,23.98c-.03.22.36.19.56.22.65.1,1.35.14,2,.22.49.06,1.06.15,1.5.19.59.06,2.27.29,2.73.27.52-.02.81-.24.65-.63-1.21,0-4.3-.46-4.52-.46-.92-.02-1.98.19-2.91.19Z"/>
        <path class="cls-3" d="M63.42,17.08c-.14.34.46.21.69.18,1.52-.21,3-.59,4.54-.75,1.62-.17,3.63-.08,5.16-.33.33-.05.67-.09.65-.43-.78-.39-5.05.37-5.83.46-.7.08-5.1.6-5.21.88Z"/>
        <path class="cls-3" d="M61.9,14.75c.13.19.54-.02.74-.08,2.06-.61,3.75-1.1,5.8-1.49.14-.03.95-.25.96-.29l-.02-.22c-.32.03-.65.02-.97.06-1.23.15-4.95,1.04-5.96,1.52-.24.11-.59.24-.54.5Z"/>
      </g>
    </g>
  </g>
</svg>