<?xml version="1.0" encoding="UTF-8"?>
<svg id="Calque_2" data-name="Calque 2" xmlns="http://www.w3.org/2000/svg" viewBox="0 0 101 80.65">
  <defs>
    <style>
      .cls-1 {
        fill: #282729;
      }

      .cls-2 {
        fill: #e2e4df;
      }

      .cls-3 {
        fill: #d6346f;
      }
    </style>
  </defs>
  <g id="Calque_1-2" data-name="Calque 1">
    <g>
      <g>
        <path class="cls-3" d="M72.18,1.53c1.46,5.22,3.13,12.03,2.49,17.43-.05.43.1.91,0,1.24-9.01,5.19-17.79,2.63-27.38,4.98-.85.17-2.25.24-2.52-.8-1.37-5.23.93-16.45-1.21-22.85,7.62-1.85,19.75-2.23,27.38,0,.4.12.91-.13,1.24,0Z"/>
        <path class="cls-1" d="M47.29,25.18v1.24c-.43.28-2.07-.58-2.3.58-.37,1.9,1.83,20.32,3.06,20.66,19.02,1.5,35.84-8.33,52.74-15.01,1.65,2.24-6.91,27.87-9.01,31.42-10.06,16.94-44.16,17.73-61.3,15.88-4.78-.52-14.33-3.9-17.23-7.79C5.48,61.75,3.01,40.33,0,27.68c1.62-1.64,18.36,15.42,21.24,16.71,6.65,2.95,16.4,2.9,23.55,4.43-.65-15.78-2.62-31.47-2.48-47.29h1.25c2.14,6.4-.16,17.62,1.21,22.85.27,1.04,1.67.97,2.52.8Z"/>
      </g>
      <g>
        <path class="cls-2" d="M72.3,13.68s.02,0,.03-.01c.11-.43.26-.86.28-1.32.2-3.93-3.4-5.52-6.7-3.93-2.02.97-2.65,3.2-1.63,5.19.07.13.73.93.69.97,0,0,.06.12.1.15.19.12.47.47.7.58.75.36,1.79.63,2.62.63,1.72,0,3.09-.59,3.91-2.27ZM69.4,13.11c-.2,1.21-1.21,1.71-1.81.42-.33-.71-.46-1.75-.36-2.53.05-.39.16-.97.59-1.1.68-.2,1.18.69,1.36,1.23.21.63.32,1.32.21,1.98Z"/>
        <path class="cls-2" d="M48.44,11.65c1.03-1.34,2.91-1.99,4.57-1.84,2.41.22,4.08,3.18,3.46,5.42-.04.16-.31.77-.42.93-.67.97-1.93,1.75-3.08,1.98-1.63.33-4.22-.28-5.08-1.83-.87-1.58-.51-3.27.55-4.65ZM51.87,16.38c1.18,0,1.26-1.91,1.09-2.75-.11-.51-.62-1.87-1.31-1.74-.71.13-.93,1.69-.91,2.27.03.63.28,2.22,1.13,2.22Z"/>
      </g>
    </g>
  </g>
</svg>