<?xml version="1.0" encoding="UTF-8"?>
<svg id="Calque_2" data-name="Calque 2" xmlns="http://www.w3.org/2000/svg" viewBox="0 0 216.29 210.26">
  <defs>
    <style>
      .cls-1 {
        fill: #2a39a9;
      }

      .cls-2 {
        fill: #282729;
      }

      .cls-3 {
        fill: #ebece7;
      }

      .cls-4 {
        fill: #d6346f;
      }
    </style>
  </defs>
  <g id="Calque_1-2" data-name="Calque 1">
    <g>
      <g>
        <path class="cls-4" d="M135.01,1.09c20.87,8.27,41.93,15.92,63.16,23.3,1.58,1.44,2.38,5.7,2.61,7.9.95,9.1,1.5,21.65,1.24,30.75-.03,1.07-.1,3.48-.89,4.04-21.98,5.13-44.26,10.19-66.99,9.57-.12-23.95-1.79-48.73-.86-72.52.06-1.69-.89-3.52,1.73-3.04Z"/>
        <path class="cls-2" d="M135.01,1.09c-2.62-.49-1.67,1.35-1.73,3.04-.92,23.79.74,48.58.86,72.52.05,10.17,0,20.82.03,31.14.06,14.21.47,28.57-.9,42.66h-1.84l.1-149.76c.22-1.67,2.96.19,3.48.4Z"/>
        <path class="cls-3" d="M116,99.01c.14,2.45.24,13.43-1.25,14.62-1.83,1.47-18.27,2.02-22.15,2.56l-.86-33.39c7.73,2.43,15.42,5.13,23.28,7.12-.32,3.12.81,6.08.98,9.1Z"/>
        <path class="cls-4" d="M91.74,82.8l.86,33.39c-3.82.52-7.89,2.19-11.67,2.64-5.26.64-11.79,1-16.89,0,0-.64-.88-2.22-.9-3.89-.18-13.07.44-26.18.03-39.16,9.99-.09,19.25,4.11,28.56,7.02Z"/>
        <path class="cls-2" d="M63.14,114.93c.02,1.67.89,3.25.9,3.89.21,10.84-1.29,25.44-.04,35.62.12.95-.05,2.03.86,2.65,3.25,2.23,12.35.47,16.03.35,17.01-.54,34.01-2.04,50.56-6.23v-.76h1.84c1.53.08,3.04.06,4.55-.21,3.82-.67,33.64-14.11,47.36-33.83,3.46-4.98,4.26-12.25,6.86-17.42.31-.62.42-2.94,1.81-1.25.71.86,2.45,19.53,2.64,22.37.79,12.13,1.46,30.52.04,42.33-.42,3.5-1.34,7.57-3.2,11.65-5.33,11.67-24.94,22.72-37.1,27.35-11.15,4.24-56.72,8.78-56.72,8.78-3.01.42-46.73-1.77-46.73-1.77,0,0-.01,0-.02,0-1.03-.12-2.06-.26-3.04-.61-6.83-2.46-37.26-10.39-48-38.04-.39-2.9-.7-7.82-.9-10.94-.95-14.99-.24-31.09-.83-46.16,1.56-.35,1.7.48,2.45,1.47,9.6,12.69,29.85,34.28,44.65,39.89,4.31,1.63,10.49.51,15.21,2.57l.87-80.83c.4,12.98-.22,26.09-.03,39.16Z"/>
      </g>
      <g>
        <path class="cls-1" d="M144.23,36.36c.09-.9-.03-.93-.51-1.35-1.25-1.12-6.93-2.81-8.73-3.4-.55-.18-1.23-.4-1.66-.51-.55-.14-2.94-1.05-3.16-.72-.04.05-.04,1.15-.01,1.43.03.31,3.47.84,4.11,1.04.93.29,9.87,4.4,9.96,3.5Z"/>
        <path class="cls-1" d="M216.21,47.49c-.95-1.59-5.22-.89-5.22-.89-2.04.38-4.2-.41-6.15-.42-1.58,0-4.18.16-5.72.4-.44.07-.9.09-1.01.84,1.7.12,3.44-.14,5.14-.01.59.05,1.14.39,1.6.43,1.18.09,11.14,1.65,11.42,1.24.04-.06.06-1.39-.06-1.58Z"/>
        <path class="cls-1" d="M141.88,42.97c-2.16-1.46-4.95-1.77-7.32-1.86-.93-.03-2.08-.41-2.2-.41h-6.88v1.24c1.6.1,3.23-.13,4.83,0,1.39.12,3.17.69,4.54.82,2.3.22,4.75.47,7.03.21Z"/>
        <path class="cls-1" d="M139.06,49.31c.39-.05,1.79-.23,1.94-.77-1.77-.37-3.48-.44-5.27-.42-2.02.03-6.36.12-8.07,1.21-.44.28-.82.42-.71,1.26,1.1-.34,2.92-.04,3.91-.41.28-.1,2.48.34,4.16.03.23-.04.92-.21,1.67-.39-.03-.15-.06-.31-.08-.46.82-.06,1.63.05,2.45-.05Z"/>
        <path class="cls-1" d="M197.52,56.91c-.07.59.52.57.82.69.96.38,2.01.63,2.99.95.72.24,1.58.59,2.23.79.88.26,3.38,1.19,4.06,1.23.79.05,1.24-.5,1.04-1.6-1.81-.2-6.4-2.01-6.74-2.06-1.37-.22-2.99.16-4.39,0Z"/>
        <path class="cls-1" d="M198.1,38.14c-.25.89.67.66,1.02.61,2.3-.3,4.56-1.06,6.89-1.23,2.45-.18,5.46.42,7.78.02.5-.09,1.01-.11,1.01-1.05-1.13-1.2-7.61.09-8.79.2-1.06.1-7.71.73-7.91,1.45Z"/>
        <path class="cls-1" d="M196.05,31.54c.18.54.82.04,1.11-.08,3.16-1.29,5.74-2.33,8.85-3.01.22-.05,1.45-.52,1.47-.62v-.61c-.49.03-.98-.05-1.47,0-1.86.19-7.53,1.94-9.1,3.07-.36.26-.91.55-.87,1.26Z"/>
      </g>
      <path class="cls-1" d="M193.32,27.4c-2.16-.27-3.98-1.61-5.85-2.6l-6.69-3.94c-.78-.52-1.73-.98-2.47-1.53-.28-.21-1.57-1.35-1.7-1.55l-.04-.44c.02-.14.07-.27.09-.41.49.06,1.27-.91,1.72-1.25,3.34-2.55,16.04-12.5,16.6-2.8.24,4.2-.54,8.96-1.19,13.12-.08.54-.39,1.08-.46,1.4Z"/>
      <path class="cls-1" d="M144.54,1.4c.65.03,1.36-.02,1.97.28.32.15,1.41.79,1.72.89.16.05,2.24,2.01,2.49,2.27.05.05.08.11.12.16.18.45.56.8.81,1.17.17.24.39.52.5.68.05.07.1.12.12.16.71,1.05,1.42,2.07,2.15,3.08s.99,1.23,1.27,2.48c.02.11.33.11.2.38-.37.11-1.05.62-1.55.82-5.28,2.04-10.64,4.3-16.23,5.4-.11.02-.31-.09-.45-.06-.12.02-.47.65-.71.34-.05-.07.04-1.53.07-1.75.09-.71.6-1.55.29-2.28.02-.09,0-.19.03-.28l.16-.19-.13-.09c.05-.16.17-.24.17-.26.37-1.27.68-2.53,1.04-3.81.09-.32.17-.63.26-.95l.02-.14s0-.09.02-.14c.37.13.3-.15.37-.39.63-1.94,1.54-4.11,2.65-5.84.41-.64.5-.71,1.12-1.12.32-.22.71-.4,1.05-.57.16-.08.21-.13.45-.23Z"/>
      <path class="cls-3" d="M151.57,36.43c3.42-.63,3.78,4.3,1.37,4.74s-3.62-1.73-2.59-3.76c.26-.51.64-.87,1.22-.98Z"/>
      <path class="cls-3" d="M184.01,39.99c-1.04,1.1-3.49.78-3.89-.76-.88-3.34,4.1-4.06,4.32-.8.03.44-.12,1.24-.43,1.56Z"/>
    </g>
  </g>
</svg>