<?xml version="1.0" encoding="UTF-8"?>
<svg id="Calque_2" data-name="Calque 2" xmlns="http://www.w3.org/2000/svg" viewBox="0 0 222.09 209.76">
  <defs>
    <style>
      .cls-1 {
        fill: #282729;
      }

      .cls-2 {
        fill: #ebece7;
      }

      .cls-3 {
        fill: #d6346f;
      }
    </style>
  </defs>
  <g id="Calque_1-2" data-name="Calque 1">
    <g>
      <g>
        <g>
          <path class="cls-1" d="M221.52,92.21c3.26,4.05-8.34,63.43-10.53,72.22-1.71,6.88-6.23,22.87-11.51,27.4-8.28,7.1-35.95,16.47-46.98,17.4-22.08,1.87-55.73-1.6-78.44-3.79-24.71-2.38-48.28-1.06-58.5-27.37-4.42-11.36-9.59-37.31-12.44-50.34-1.73-7.92-.82-15.31-3.12-23.08,2.66-.03,6.02.84,8.12,2.45,2.73,2.09,2.42,4.76,3.49,5.84,5.46,5.56,22.38,19.71,29.16,22.49,4.39,1.81,34.4,8.08,36.39,6.54l2.46-.03c0,.43.01.86.02,1.29,15.97-.24,32.03.7,48.01,0,52.17-2.28,58.98-13.32,91.03-49.44.74-.83-.07-2.39,2.84-1.58Z"/>
          <path class="cls-3" d="M127.39,13.68c3.35,2.43,9.09,42.19,6.88,44.79-18.47,4.75-37.36,1.49-55.87-1.12-.51-16.43-.33-33.42-1.24-49.78l50.23,6.11Z"/>
        </g>
        <path class="cls-1" d="M77.16,7.57c.91,16.36.73,33.35,1.24,49.78.17,5.4,1.19,10.7,1.3,15.51.54,22.99-.47,46.09-.08,69.08l-2.46.03c-.62-1.5-1.14-2.63-1.22-4.35-.98-22.16.94-45.15-.57-67.27-.14-2.07-4.39-2.5.44-3.56-3.83-19.16-.33-40.74-2.36-59.87-.3-2.83-1.15-4.45-2.51-6.8,7.27-.76,5.92,2.15,6.22,7.45Z"/>
      </g>
      <g>
        <path class="cls-2" d="M91.44,25.08c5.46-1.01,6.02,6.85,2.18,7.56-3.87.71-5.77-2.76-4.13-5.99.41-.81,1.02-1.39,1.95-1.56Z"/>
        <path class="cls-2" d="M118.14,30.75c-1.66,1.75-5.56,1.25-6.2-1.21-1.4-5.33,6.54-6.47,6.88-1.28.05.71-.19,1.97-.68,2.48Z"/>
      </g>
    </g>
  </g>
</svg>