<svg width="306" height="125" viewBox="0 0 306 125" fill="none" xmlns="http://www.w3.org/2000/svg">
<g clip-path="url(#clip0_336_1043)">
<path d="M260.37 83.94C259.653 82.4911 258.76 81.4344 258.048 80.5808C257.886 80.387 257.729 80.2025 257.608 80.0502C255.282 76.9402 252.937 74.1486 250.346 71.094C249.902 70.5449 249.491 69.9959 249.093 69.4698C248.663 68.8977 248.251 68.3532 247.821 67.8318C250.254 64.4265 252.261 61.3258 253.945 58.3681C254.246 57.8421 254.745 57.2284 255.328 56.5132C256.558 55.009 258.089 53.1356 258.917 50.6393L259.213 49.7534L253.718 48L253.432 48.8675C253.108 49.8411 252.298 50.87 251.355 52.0605C250.587 53.0341 249.717 54.1323 248.991 55.3919C247.368 58.262 245.485 61.0489 243.889 63.3145C243.885 63.3053 243.88 63.3007 243.875 63.2961C242.548 61.3765 241.415 59.3186 240.318 57.3253C239.791 56.3609 239.241 55.3643 238.681 54.4045C237.996 53.1956 237.261 52.2358 236.613 51.3822C236.086 50.6901 235.633 50.0948 235.355 49.5596L234.879 48.6321L229.883 52.0097L230.258 52.7342C230.887 53.9615 231.66 54.9628 232.344 55.8487C232.853 56.5086 233.334 57.1361 233.681 57.759C234.236 58.7142 234.782 59.7154 235.314 60.6798C236.498 62.8392 237.724 65.0679 239.134 67.0658C239.49 67.5596 239.851 68.0302 240.212 68.4732C239.051 70.0235 238.052 71.4216 237.182 72.7228C235.212 75.5006 233.362 78.6936 231.775 81.4852C231.618 81.7805 231.465 82.0758 231.317 82.3619C230.767 83.4324 230.244 84.4475 229.574 85.1766L229 85.7949L232.964 90.1645L233.653 89.4493C234.763 88.2911 235.517 86.81 236.183 85.5042C236.378 85.1212 236.563 84.7567 236.738 84.4429C238.144 82.002 239.898 78.9659 241.817 76.2619C242.571 75.1914 243.343 74.0933 244.139 72.9951C244.241 73.1289 244.338 73.2673 244.44 73.4011C244.944 74.084 245.42 74.7254 245.924 75.2976C248.39 78.2137 250.786 81.0792 253.011 84.0092C253.367 84.4983 253.723 84.9412 254.065 85.3704C254.579 86.0117 255.018 86.5654 255.291 87.0591L255.772 87.9451L260.749 84.6644L260.388 83.9353L260.37 83.94Z" fill="#EBECE7"/>
<path d="M270.158 14.3125C272.083 10.139 274.154 5.67289 275.657 1.29823C276.294 0.301709 276.876 -0.310834 277.742 0.160001C278.768 0.722261 280.72 3.05815 281.27 4.16439C281.815 5.26605 280.583 6.89798 279.863 8.11849C275.373 15.7524 270.209 23.039 265.714 30.6546C264.935 31.9757 264.463 33.2922 263.189 34.3619C262.57 34.883 261.375 34.6544 261.361 33.859C261.361 33.5939 262.053 31.7563 262.213 31.3311C264.284 25.9051 267.634 19.7751 270.158 14.3079V14.3125Z" fill="#AD2A69"/>
<path d="M299.04 14.7651C299.429 14.9388 299.855 15.501 300.117 15.853C300.501 16.3696 301.143 17.5352 301.4 18.1569C301.734 18.9569 300.886 19.4094 300.213 19.9077C297.028 22.2756 293.358 24.5063 290.288 27.0845C288.863 28.2821 287.598 29.7038 286.205 30.9426C284.711 32.2728 283.172 33.2054 281.623 34.3664C278.04 37.0543 274.8 40.3227 271.295 43.1478C270.397 43.5729 269.833 43.1889 269.531 42.4986C269.279 41.9227 269.636 41.2873 270.154 40.7113C271.244 39.4953 274.085 37.4749 275.497 36.2498C281.531 31.0203 287.094 25.128 292.991 19.6563C294.435 18.3215 296.231 16.5433 297.711 15.3593C298.073 15.0713 298.682 14.6142 299.035 14.7696H299.04V14.7651Z" fill="#AD2A69"/>
<path d="M305.991 31.5597C305.95 32.0946 305.638 32.4648 305.161 32.7757C304.103 33.4705 302.046 34.2567 300.827 34.8967C295.003 37.9366 289.376 41.7353 283.566 44.7888C282.773 45.2048 281.646 45.7991 280.862 45.8631C279.373 45.9819 278.603 45.0357 279.937 43.4815C285.655 38.4486 291.969 35.0978 298.073 31.0112C299.205 30.2524 300.3 29.393 301.427 28.6204C301.904 28.2959 303.539 27.1165 303.901 27.0845C304.346 27.0434 304.69 27.3908 305.006 27.5873C305.029 28.7576 306.082 30.4626 305.995 31.5552H305.991V31.5597Z" fill="#AD2A69"/>
<path d="M281.192 54.9964C279.79 55.2432 278.2 55.4809 276.793 55.8603C275.199 56.29 273.393 57.1677 271.877 56.9254C270.956 56.7791 270.314 55.7186 271.318 54.7541C271.437 54.6398 272.656 53.9496 272.857 53.8536C278.47 51.248 285.678 49.5703 291.497 47.7053C293.129 47.1841 295.072 46.3202 296.675 45.9499C296.941 45.8905 297.23 45.8036 297.404 45.9819C297.812 46.407 297.977 49.8766 297.821 50.6811C297.715 51.216 297.619 51.6594 297.042 51.9474C296.359 52.2856 294.581 52.4548 293.766 52.6513C289.371 53.7118 285.527 54.2284 281.197 54.9918H281.192V54.9964Z" fill="#AD2A69"/>
<path d="M260.77 8.01794C260.66 9.97442 259.01 13.284 258.263 15.3456C257.127 18.486 256.824 21.0459 256.055 24.0766C255.766 25.2012 255.257 26.4765 254.918 27.6285C254.396 29.3884 253.997 32.1266 252.526 33.6031C251.573 34.5584 250.652 33.763 250.538 32.8259C250.478 32.3551 250.712 30.8238 250.799 30.2341C251.069 28.4513 251.619 26.6228 251.922 24.84C252.664 20.4837 253.008 16.525 254.222 12.0498C254.401 11.3869 255.587 7.4054 255.862 7.10827C256.256 6.67857 259.995 6.27631 260.38 6.57344C260.628 6.76543 260.797 7.63853 260.774 8.02708V8.01794H260.77Z" fill="#AD2A69"/>
<path d="M293.491 7.86707C293.45 8.04535 291.548 10.5001 291.236 10.8932C289.211 13.4257 286.975 15.821 284.899 18.326C281.504 22.4264 278.09 26.5496 274.736 30.6912C274.017 31.578 273.966 32.0305 272.889 32.7665C271.817 33.4979 270.621 32.4831 271.052 31.482C271.153 31.2489 271.414 30.8466 271.57 30.6089C272.972 28.4056 275.006 25.7451 276.615 23.6149C280.29 18.7374 285.202 13.4348 288.065 8.20991C288.725 7.00768 289.633 4.15524 291.181 5.10148C291.731 5.43975 292.817 6.59627 293.207 7.14482C293.312 7.2911 293.537 7.65679 293.491 7.86707Z" fill="#AD2A69"/>
<path d="M271.597 61.1446C271.588 61.1218 271.565 60.6006 271.57 60.5732C271.639 60.2167 272.321 59.4716 272.624 59.1973C273.714 58.2145 275.492 58.379 276.656 58.2785C277.229 58.2282 278.53 57.9402 278.961 57.9768C279.245 58.0042 279.414 58.123 279.524 58.3745C279.561 58.4613 279.625 60.2395 279.616 60.4727C279.598 60.9435 279.648 61.4098 279.066 61.492C278.324 61.5926 276.844 61.5103 276.047 61.5012C274.658 61.4829 273.32 61.3046 271.9 61.3778C271.744 61.3595 271.639 61.2909 271.588 61.1446H271.597Z" fill="#AD2A69"/>
<path d="M21.9485 118.847C20.1706 120.644 18.2644 122.564 16.6653 124.781C16.1521 125.101 15.7397 125.169 15.3868 124.264C14.9699 123.194 14.4246 120.232 14.3604 119.071C14.2963 117.91 15.231 117.526 15.8313 117.096C19.5703 114.431 23.5889 112.457 27.3279 109.81C27.974 109.353 28.4689 108.699 29.3211 108.736C29.7335 108.754 30.3017 109.691 30.1551 110.281C30.1047 110.477 29.4036 111.364 29.2387 111.57C27.1492 114.184 24.2762 116.488 21.9485 118.843V118.847Z" fill="#AD2A69"/>
<path d="M15.7763 106.898C17.1235 106.441 18.6631 105.965 19.9919 105.38C21.504 104.713 23.1536 103.575 24.6886 103.584C25.6188 103.584 26.4161 104.539 25.5729 105.645C25.4721 105.778 24.3724 106.647 24.1891 106.765C19.0342 110.194 12.1702 112.941 6.6991 115.666C5.16408 116.429 3.37705 117.576 1.85119 118.184C1.59918 118.285 1.32425 118.413 1.12722 118.262C0.659837 117.905 -0.0320668 114.5 8.20912e-06 113.682C0.0229189 113.138 0.0504117 112.685 0.577358 112.315C1.20053 111.876 2.93258 111.442 3.71154 111.122C7.89504 109.408 11.6157 108.315 15.7763 106.903V106.898Z" fill="#AD2A69"/>
<path d="M24.3266 99.3692C24.3403 99.392 24.4411 99.8994 24.4411 99.9314C24.4274 100.293 23.8638 101.134 23.6072 101.454C22.6816 102.592 20.8946 102.697 19.7582 102.971C19.2038 103.108 17.9574 103.593 17.5267 103.616C17.238 103.634 17.0593 103.538 16.9081 103.305C16.8577 103.223 16.5232 101.476 16.4957 101.243C16.4453 100.773 16.3216 100.32 16.8852 100.151C17.6 99.936 19.08 99.7989 19.8682 99.6846C21.2428 99.4926 22.5945 99.4652 23.9829 99.1772C24.1387 99.168 24.2533 99.2229 24.3266 99.36V99.3692Z" fill="#AD2A69"/>
<path d="M35.5437 86.8166C35.5437 83.0271 35.2687 79.2512 35.1038 75.3611C35.1038 74.6343 35.0488 73.8618 35.0488 73.135C35.0488 70.6254 35.2138 68.0472 35.2138 65.6519L39.0765 65.3684C39.0765 67.878 38.9115 70.3968 38.9115 72.8515C38.9115 73.6332 38.9665 74.296 38.9665 74.9086C39.0215 77.1896 39.1865 79.5758 39.2964 81.9665C44.4834 81.4774 49.6704 80.5403 55.0224 80.1518C56.4016 80.0512 58.9401 80.1472 61.0341 80.1061C61.0341 78.9358 61.0341 77.5416 61.0891 76.4217C61.1991 72.175 61.694 67.846 61.694 63.8325L65.5567 63.5491C65.5567 67.7866 65.0618 72.1704 64.9519 76.2525C64.8969 77.761 64.8969 79.3792 64.8969 81.2169C64.8969 86.3458 65.0618 91.5204 65.1718 96.6996C65.2268 97.4218 65.5017 98.5144 65.5017 99.744L61.639 100.027C61.639 99.36 61.364 98.3727 61.3091 97.0973C61.1991 92.7546 61.0891 88.3571 61.0341 84.0144C58.8255 84.0647 56.232 83.9733 55.0224 84.0602C49.8354 84.4396 44.6484 85.3721 39.4064 85.8658V86.5332C39.4064 91.9958 38.632 96.6264 38.632 101.81L34.7693 102.094C34.7693 96.631 35.5437 92.0004 35.5437 86.8166Z" fill="#EBECE7"/>
<path d="M77.1358 98.7841C75.8115 97.9338 73.9374 96.0048 73.1081 94.6745L72.9981 94.6288C72.3887 93.5592 72.0588 91.9638 71.9488 90.1902C71.1194 90.5284 70.4046 90.8027 70.1297 90.8256L70.0197 90.8347V86.3732L70.1297 86.3641C70.3496 86.3458 71.234 86.0029 72.1138 85.6052C72.8332 79.6992 75.2021 72.8881 77.5757 70.5431C78.1301 69.9991 78.7899 69.7294 80.0042 69.3088C80.6136 69.1534 81.1635 69.0574 81.7133 69.0163C84.1419 68.838 86.7354 71.5487 88.3895 73.4367C89.4388 74.5292 89.7138 75.4023 89.3839 76.2068C88.999 77.2399 88.1696 77.9667 87.7847 78.3873C84.4214 82.5928 80.5586 85.4361 75.9765 88.2794C75.8115 88.4028 75.4221 88.5994 74.8722 88.8599C74.8722 90.2542 74.9822 90.917 75.3671 91.7215C75.3121 92.0598 76.8563 93.5637 78.3455 94.5694L78.7854 94.8711C79.1703 94.8985 80.4395 95.0311 81.5988 94.9442L82.5381 94.8757L86.071 90.6016L88.3895 93.2757L84.3068 98.3681H84.3618C83.812 99.0721 82.9276 99.36 81.6034 99.456C79.8392 99.584 77.9056 99.2778 77.1358 98.7795V98.7841ZM85.4707 75.704L85.5257 75.5897C84.5863 74.5429 82.9872 73.3772 81.7179 73.4687C81.333 73.4961 80.5586 73.6104 80.4487 73.6744C79.5093 73.9669 79.1794 73.2081 79.2344 72.7601C77.4703 74.6755 75.9811 79.5209 75.2617 83.9779C78.8495 82.0443 81.7729 80.4946 85.4707 75.7085V75.704Z" fill="#EBECE7"/>
<path d="M92.1789 98.2995C91.1846 98.2035 90.7997 97.175 90.7997 94.8299C90.7997 94.382 90.8547 93.8243 90.8547 93.486C91.1846 90.117 91.959 86.9354 92.3439 84.0647C93.3382 76.9108 94.6075 73.0252 96.3716 66.9318C96.7565 65.6747 97.0314 64.7102 97.2559 63.9102C95.7668 64.797 94.8824 65.1993 94.1126 65.2542L94.0026 65.2633V60.7469L94.1126 60.7378C94.7174 60.6921 95.6018 60.2395 96.981 59.3024C97.7554 58.7996 98.2503 58.3745 98.5802 58.1825C100.679 57.1357 101.284 56.3129 101.394 56.194C101.284 56.3677 100.789 57.3551 101.009 59.7367C101.174 61.844 99.6295 66.8084 99.2996 68.0015C97.3109 74.7806 96.1562 78.3781 95.3269 84.4624C94.887 87.7857 94.1676 90.9033 93.8377 93.7146V93.7694C97.8104 93.3123 97.3155 89.8382 101.508 87.9685L101.618 87.9594L102.612 92.1238L102.502 92.1329C100.958 92.8049 98.0899 97.9749 93.5627 98.3041C93.0679 98.3406 92.6784 98.3132 92.1835 98.2949L92.1789 98.2995Z" fill="#EBECE7"/>
<path d="M105.389 97.3395C104.395 97.2435 104.01 96.215 104.01 93.87C104.01 93.422 104.065 92.8643 104.065 92.526C104.395 89.1571 105.169 85.9755 105.554 83.1048C106.549 75.9508 107.818 72.0653 109.582 65.9718C109.967 64.7148 110.242 63.7502 110.466 62.9503C108.977 63.8371 108.093 64.2393 107.323 64.2942L107.213 64.3033V59.787L107.323 59.7778C107.928 59.7321 108.812 59.2796 110.191 58.3425C110.966 57.8396 111.461 57.4145 111.791 57.2225C113.889 56.1757 114.494 55.3529 114.604 55.234C114.494 55.4077 113.995 56.3951 114.219 58.7767C114.384 60.8841 112.84 65.8484 112.51 67.0415C110.521 73.8206 109.367 77.4182 108.537 83.5025C108.097 86.8257 107.378 89.9433 107.048 92.7546V92.8095C111.021 92.3523 110.526 88.8782 114.719 87.0086L114.828 86.9994L115.823 91.1638L115.713 91.173C114.169 91.8449 111.3 97.015 106.773 97.3441C106.278 97.3807 105.889 97.3533 105.394 97.335L105.389 97.3395Z" fill="#EBECE7"/>
<path d="M122.682 96.7453C121.468 96.2745 119.704 95.9042 118.545 95.2642C117.22 94.5237 116.561 93.2895 116.725 90.8256C116.89 88.028 117.83 84.8327 118.215 83.5802C119.594 79.1324 120.423 73.7155 124.061 69.5465C123.067 69.1717 123.232 68.9934 125.166 68.1295C127.539 67.0644 130.133 66.5387 133.831 66.2735L133.941 66.2644L133.886 67.3844L134.935 66.1364H134.99C135.874 66.0678 136.259 66.7672 136.259 68.102C136.259 69.1077 136.039 69.8482 135.984 70.9088C135.819 73.4869 135.489 75.9645 135.21 78.3827C134.99 80.1838 134.655 83.7767 133.941 86.7252C137.089 82.4831 132.506 92.1832 128.864 95.6802C127.924 96.5853 127.759 96.4299 126.38 96.5304C124.891 96.6402 122.737 96.7407 122.682 96.7453ZM127.095 91.9638C128.309 89.925 129.743 88.7594 130.238 88.0006C131.123 86.4875 131.727 84.3253 132.282 78.4284C132.502 75.96 132.891 73.4778 133.001 71.1282V70.8493C129.803 71.0825 127.649 71.5167 125.94 72.3121L126.05 72.3578H126.105C123.072 75.864 122.352 79.8775 121.028 84.435C120.643 86.0258 119.924 88.476 119.704 90.6107C119.594 91.5661 119.704 91.8952 120.144 92.1969C120.309 92.1832 121.248 92.3386 123.012 92.2106C123.067 92.2106 125.276 92.1009 126.765 91.9912L127.095 91.9684V91.9638Z" fill="#EBECE7"/>
<path d="M145.767 90.7707C144.003 89.1159 142.624 86.9309 141.794 84.3116C141.185 82.4054 140.305 79.8501 140.305 77.1713C140.305 73.7704 140.745 70.6711 141.629 68.2072C143.394 63.1148 146.541 58.8727 149.63 57.6431C150.679 57.1768 154.212 56.5826 156.581 56.4134C157.52 56.3449 158.235 56.3494 158.735 56.482C160.169 56.7106 161.493 57.6751 162.542 58.2693C164.196 59.1516 164.586 60.1298 165.91 60.7012L164.696 63.5217L166.57 61.7663C166.845 62.4154 168.554 65.4142 168.554 67.0324C168.554 67.6449 169.049 69.0574 169.104 70.0037C169.214 71.503 169.269 73.4504 169.269 75.512C169.269 79.9735 166.455 85.0293 165.021 87.42C162.923 90.917 159.005 93.2117 154.482 93.5409C151.059 93.7923 147.916 92.7912 145.762 90.7753H145.767V90.7707ZM181.137 105.979C180.252 105.764 179.427 105.49 178.543 105.33C175.395 104.946 171.977 104.526 168.664 103.483H168.719C165.851 102.683 163.312 102.313 160.664 101.504L160.609 101.454C159.614 101.134 158.345 100.837 156.856 100.279L156.801 100.229C155.367 99.6617 153.877 99.2686 152.553 99.0309C151.559 98.4915 151.394 98.5006 151.229 98.5144C149.13 98.6652 147.641 100.393 147.641 101.115C147.641 101.225 147.641 101.061 147.751 101.385C147.751 101.664 147.861 101.879 148.69 102.99L145.547 105.837C145.052 105.092 144.333 104.196 144.003 102.939C143.893 102.5 143.783 101.897 143.783 101.394C143.783 97.8241 147.316 94.894 151.783 94.5648C152.168 94.5374 152.503 94.5648 153.163 94.574C154.982 94.83 156.915 95.9728 158.46 96.5853C159.454 96.9601 160.778 97.3076 162.102 97.7144H162.047C164.806 98.5784 167.289 98.8983 169.993 99.7029H170.048C172.916 100.603 176.064 100.987 179.263 101.426C180.147 101.531 181.137 101.847 182.076 102.057C185.939 102.834 192.12 101.993 196.863 101.65L198.462 101.531C201.44 101.093 202.989 100.699 203.759 100.197C204.199 99.9954 204.808 99.3966 205.688 99.2183L206.403 103.012C206.623 102.939 205.688 103.456 205.243 103.712C203.145 104.868 200.166 105.252 198.567 105.481L196.858 105.604C191.836 105.97 185.435 106.77 181.132 105.97V105.979H181.137ZM161.772 85.2578C164.256 81.0614 165.415 78.0764 165.415 75.7908C165.415 73.8389 165.36 72.0013 165.25 70.5614C165.25 70.2825 164.7 68.7054 164.7 67.3112C164.7 67.0872 163.926 65.6382 163.431 64.7285L163.651 64.5456C162.437 63.7959 161.113 62.5023 160.563 62.2052C159.459 61.6155 158.689 61.0029 157.749 60.8475C157.694 60.7972 157.14 60.8338 156.59 60.8749C154.826 61.0029 151.403 61.5332 150.853 61.7389C148.865 62.6074 146.551 65.7341 145.226 69.4551C144.507 71.5716 144.177 73.9943 144.177 76.8925C144.177 78.7301 144.787 80.586 145.501 82.7071C146.106 84.6681 146.991 86.0532 148.48 87.3972C149.749 88.5857 152.068 89.2531 154.496 89.0794C157.694 88.8462 160.567 87.2966 161.777 85.2578H161.772Z" fill="#EBECE7"/>
<path d="M188.299 85.1618C188.518 84.1424 188.738 83.1231 189.018 82.0991C186.809 85.0475 184.436 87.7308 182.012 89.2988L175.391 92.2883C174.396 92.3615 174.341 92.1421 173.127 91.3924H173.072V89.5548C173.736 87.2189 174.341 85.3904 174.726 83.6899C176.215 77.5599 178.864 73.6881 180.628 68.3169C180.683 68.2026 180.738 68.0837 180.793 67.9146C177.815 71.0322 175.661 72.751 175.606 71.919L173.507 72.5727L173.397 72.5818C173.397 70.2414 174.007 70.4196 179.244 65.2953L179.299 65.2359C181.228 63.3114 182.942 62.0132 183.881 61.1126L184.046 61.0989L186.03 63.2382C186.03 63.5171 177.755 83.9139 177.59 84.595C177.37 85.6144 177.095 86.5286 176.871 87.3789C178.635 86.748 180.678 85.4864 180.843 85.3584C184.761 82.5654 188.459 77.889 192.762 70.2734C193.036 69.7522 193.311 69.286 193.591 68.7648C194.475 66.9181 195.19 65.469 195.745 64.4816C195.854 64.2485 195.909 64.0793 196.019 63.8462H196.074C196.019 62.5617 195.909 60.6738 197.839 60.5367C198.778 60.4681 199.548 61.972 199.383 63.5445C199.218 64.893 197.674 67.9055 195.575 72.0744C193.701 76.5039 192.317 80.2843 191.382 84.7595C191.602 85.1344 191.712 85.9069 191.712 86.5743C191.932 86.4463 192.097 86.3229 192.097 86.1538H192.152C196.235 83.0088 198.553 80.0512 199.213 76.3805L199.378 76.3668L202.137 77.1119L202.247 77.1028C201.197 82.0305 198.329 86.3092 193.692 89.8793C191.318 91.4472 189 92.5078 188.67 91.8084C187.181 90.9673 188.065 85.5504 188.285 85.1435L188.299 85.1618Z" fill="#EBECE7"/>
<path d="M203.653 87.0543C203.653 84.4899 204.538 81.9163 204.813 80.5586C206.247 73.9852 206.522 72.5727 208.121 66.7124C208.176 66.4838 208.231 66.3147 208.286 66.0861C207.017 66.6255 206.132 66.8587 205.087 66.9318V62.4154C206.412 62.3194 207.296 62.0315 209.335 61.0486C211.154 60.1893 211.319 59.8464 212.039 60.4041C212.923 61.1766 211.984 63.5308 210.824 67.7409C209.06 74.0583 208.84 75.3017 207.571 81.3586C207.296 82.4922 206.962 83.635 206.742 84.7093C208.066 83.9413 209.28 83.411 210.165 82.7299L211.654 86.4143C209.61 87.9 207.901 88.6405 206.907 89.2119C205.527 90.5376 203.653 90.8439 203.653 87.0497V87.0543ZM209.885 51.3028H209.94C211.594 50.3428 212.973 48.9578 215.182 48.7978L215.292 48.7886V54.2512L215.182 54.2604C213.638 54.3747 213.138 55.1335 211.594 56.0294L211.429 56.0432L209.885 51.3028Z" fill="#EBECE7"/>
<path d="M215.26 86.9309C215.15 86.3275 215.095 85.5504 215.095 84.7687C215.095 79.6398 217.303 70.7808 218.793 67.2701C218.848 67.1558 218.903 66.9821 219.013 66.6941L216.419 66.8815V63.4805L220.447 63.188C221.826 59.6864 223.59 55.1518 223.645 55.0923L226.898 54.8546C226.898 56.0797 225.574 59.691 224.25 62.964C226.624 62.8451 228.997 62.676 231.091 62.5206L231.201 62.5114V65.9124L231.091 65.9216C228.553 66.1044 225.684 66.2598 222.816 66.4701C222.321 67.6221 221.986 68.4815 221.821 68.8289C220.002 73.1441 218.069 80.7552 218.069 84.5493C219.833 83.8088 222.816 81.0797 222.816 81.8066L225.574 81.6054C225.574 83.891 220.002 89.0931 217.409 89.2805C216.305 89.3628 215.59 88.6314 215.255 86.9263H215.26V86.9309Z" fill="#EBECE7"/>
</g>
<defs>
<clipPath id="clip0_336_1043">
<rect width="306" height="125" fill="white"/>
</clipPath>
</defs>
</svg>
