<svg width="351" height="130" viewBox="0 0 351 130" fill="none" xmlns="http://www.w3.org/2000/svg">
<g clip-path="url(#clip0_336_1011)">
<path d="M152.528 106.518C151.691 105.397 151.58 105.18 151.58 104.899C151.469 104.571 151.469 104.737 151.469 104.627C151.469 103.893 152.972 102.153 155.09 102.001C155.257 101.987 155.423 101.978 156.427 102.522C157.764 102.762 159.267 103.159 160.715 103.731L160.77 103.782C162.274 104.35 163.555 104.65 164.559 104.968L164.614 105.019C167.288 105.835 169.85 106.214 172.746 107.017H172.69C176.034 108.073 179.485 108.498 182.663 108.881C183.555 109.042 184.388 109.319 185.281 109.536C189.624 110.344 196.086 109.536 201.155 109.167L202.88 109.042C204.495 108.812 207.506 108.424 209.62 107.257C210.064 106.998 211.012 106.481 210.79 106.551L210.064 102.721C209.171 102.896 208.56 103.505 208.116 103.708C207.335 104.216 205.776 104.608 202.769 105.056L201.155 105.176C196.363 105.526 190.128 106.375 186.229 105.586C185.281 105.374 184.277 105.051 183.389 104.95C180.16 104.511 176.983 104.124 174.087 103.205H174.032C171.303 102.393 168.796 102.07 166.011 101.203H166.067C164.73 100.788 163.393 100.437 162.389 100.058C160.831 99.4402 158.879 98.2866 157.042 98.0282C156.376 98.019 156.039 97.9867 155.65 98.019C151.14 98.3466 147.574 101.309 147.574 104.913C147.574 105.42 147.685 106.029 147.796 106.472C148.129 107.741 148.855 108.645 149.355 109.398L152.528 106.523V106.518Z" fill="#EBECE7"/>
<path d="M68.2202 100.165C68.1092 94.9367 67.9427 89.7181 67.9427 84.5363C67.9427 82.6814 67.9427 81.048 67.9982 79.5207C68.1092 75.4049 68.6088 70.9752 68.6088 66.6979L64.7095 66.984C64.7095 71.0352 64.21 75.4049 64.099 79.6914C64.0435 80.8219 64.0435 82.2293 64.0435 83.4105C61.925 83.452 59.3672 83.3551 57.9749 83.4566C52.5724 83.8488 47.3364 84.7947 42.1004 85.2885C41.9894 82.8752 41.8229 80.4666 41.7674 78.1641C41.7674 77.5458 41.7119 76.8722 41.7119 76.0878C41.7119 73.6099 41.8784 71.0675 41.8784 68.5343L37.9792 68.8204C37.9792 71.2429 37.8127 73.8406 37.8127 76.3738C37.8127 77.1075 37.8682 77.8873 37.8682 78.621C38.0347 82.5476 38.3122 86.3543 38.3122 90.1841C38.3122 95.4166 37.5305 100.091 37.5305 105.605L41.4298 105.319C41.4298 100.086 42.2115 95.412 42.2115 89.898V89.2244C47.5029 88.726 52.7389 87.7801 57.9749 87.4018C59.2007 87.3141 61.8186 87.4018 64.0435 87.3556C64.099 91.7437 64.21 96.178 64.321 100.561C64.3765 101.853 64.654 102.845 64.654 103.519L68.5533 103.233C68.5533 101.996 68.2757 100.889 68.2202 100.16V100.165Z" fill="#EBECE7"/>
<path d="M75.0613 93.5894C75.1723 95.3843 75.5053 96.99 76.1205 98.0698L76.2315 98.1159C77.0687 99.4633 78.9605 101.406 80.2972 102.264C81.0789 102.772 83.0262 103.076 84.807 102.947C86.1438 102.85 87.0365 102.559 87.5915 101.844H87.536L91.6573 96.7086L89.3168 94.0093L85.7506 98.3235L84.8024 98.3928C83.6322 98.4758 82.3509 98.3466 81.9624 98.3189L81.5184 98.0144C80.0151 96.9993 78.4563 95.4812 78.5118 95.1398C78.1233 94.323 78.0123 93.6586 78.0123 92.2513C78.5673 91.9836 78.9605 91.7899 79.127 91.6653C83.7524 88.7952 87.647 85.9206 91.0467 81.6802C91.4353 81.2556 92.2725 80.522 92.661 79.4792C92.994 78.6671 92.7165 77.7858 91.6573 76.683C89.9875 74.7773 87.3695 72.0411 84.918 72.2211C84.363 72.2626 83.8033 72.3595 83.1928 72.5164C81.967 72.9455 81.301 73.2177 80.7413 73.7622C78.3453 76.1339 75.9493 83.0044 75.2278 88.966C74.3351 89.3674 73.447 89.7135 73.225 89.7319L73.114 89.7412V94.2446L73.225 94.2354C73.5025 94.2169 74.2287 93.9355 75.0613 93.594V93.5894ZM82.4157 76.0001C82.3602 76.4523 82.6932 77.2182 83.6414 76.9229C83.7524 76.8583 84.5341 76.7476 84.9227 76.7153C86.2039 76.623 87.8182 77.7996 88.7664 78.8563L88.7109 78.9716C84.9782 83.8027 82.0272 85.3669 78.4054 87.3187C79.1316 82.8199 80.6349 77.9242 82.4157 75.9955V76.0001Z" fill="#EBECE7"/>
<path d="M95.4825 101.78C95.9821 101.798 96.3752 101.826 96.8748 101.789C101.44 101.457 104.34 96.2333 105.899 95.5597L106.01 95.5504L105.006 91.3469L104.895 91.3561C100.663 93.2387 101.163 96.7501 97.1523 97.2115V97.1562C97.4853 94.3184 98.2115 91.1669 98.6556 87.817C99.4928 81.6755 100.658 78.0488 102.666 71.2013C102.999 69.997 104.558 64.986 104.391 62.8589C104.169 60.4549 104.669 59.4628 104.78 59.2829C104.669 59.4028 104.053 60.238 101.94 61.29C101.607 61.4838 101.102 61.913 100.325 62.4205C98.9331 63.3664 98.0404 63.8232 97.4298 63.8694L97.3188 63.8786V68.4374L97.4298 68.4282C98.2115 68.3728 99.0996 67.9668 100.603 67.0716C100.381 67.8745 100.103 68.8527 99.7102 70.1216C97.9294 76.2723 96.6481 80.1944 95.6444 87.4156C95.2559 90.3133 94.4742 93.5248 94.1411 96.9255C94.1411 97.2623 94.0856 97.8298 94.0856 98.282C94.0856 100.644 94.4742 101.687 95.4779 101.784L95.4825 101.78Z" fill="#EBECE7"/>
<path d="M108.813 100.811C109.313 100.829 109.706 100.857 110.205 100.82C114.771 100.488 117.671 95.2643 119.229 94.5907L119.34 94.5814L118.337 90.3779L118.226 90.3871C113.993 92.2697 114.493 95.7811 110.483 96.2425V96.1872C110.816 93.3494 111.542 90.1979 111.986 86.848C112.823 80.7066 113.989 77.0798 115.996 70.2323C116.329 69.028 117.888 64.017 117.722 61.8899C117.5 59.4859 117.999 58.4938 118.11 58.3139C117.999 58.4338 117.384 59.269 115.27 60.321C114.937 60.5148 114.433 60.944 113.656 61.4515C112.264 62.3974 111.371 62.8542 110.76 62.9004L110.649 62.9096V67.4684L110.76 67.4592C111.542 67.4038 112.43 66.9978 113.938 66.1026C113.716 66.9055 113.438 67.8837 113.045 69.1526C111.264 75.3033 109.983 79.2254 108.98 86.4466C108.591 89.3443 107.809 92.5558 107.476 95.9565C107.476 96.2933 107.421 96.8608 107.421 97.313C107.421 99.6755 107.809 100.718 108.813 100.815V100.811Z" fill="#EBECE7"/>
<path d="M130.002 99.9985C131.394 99.897 131.561 100.054 132.509 99.1403C136.186 95.6058 140.807 85.8145 137.634 90.1011C138.356 87.1203 138.693 83.4935 138.915 81.6802C139.193 79.2393 139.53 76.7384 139.697 74.136C139.753 73.0608 139.975 72.3133 139.975 71.3028C139.975 69.9509 139.586 69.2495 138.693 69.3141H138.638L137.579 70.5784L137.634 69.4479L137.523 69.4572C133.79 69.7294 131.172 70.2554 128.776 71.3305C126.829 72.2026 126.658 72.3872 127.662 72.7609C123.984 76.9691 123.152 82.4323 121.755 86.9265C121.366 88.1954 120.418 91.4161 120.252 94.24C120.085 96.727 120.751 97.9729 122.088 98.7204C123.258 99.3664 125.039 99.7447 126.265 100.215C126.32 100.215 128.494 100.109 129.997 99.9985H130.002ZM123.707 95.615C123.263 95.3105 123.147 94.9783 123.263 94.0139C123.485 91.8591 124.211 89.3859 124.6 87.7801C125.936 83.1798 126.663 79.1331 129.725 75.5848H129.669L129.558 75.5387C131.283 74.7358 133.457 74.2975 136.686 74.0621V74.3436C136.575 76.7153 136.186 79.2208 135.964 81.7125C135.405 87.6648 134.794 89.8473 133.901 91.3746C133.402 92.1452 131.954 93.3172 130.728 95.3751L130.395 95.3982C128.892 95.5089 126.663 95.615 126.607 95.6196C124.826 95.7488 123.878 95.592 123.712 95.6058L123.707 95.615Z" fill="#EBECE7"/>
<path d="M149.577 94.18C151.751 96.2149 154.924 97.2254 158.379 96.9716C162.944 96.6394 166.899 94.323 169.018 90.7932C170.465 88.38 173.305 83.2767 173.305 78.7732C173.305 76.6922 173.25 74.7266 173.139 73.2131C173.083 72.2626 172.584 70.8322 172.584 70.2139C172.584 68.5805 170.859 65.5535 170.581 64.8983L168.689 66.6702L169.915 63.8232C168.578 63.2465 168.19 62.259 166.515 61.3685C165.456 60.7686 164.119 59.7996 162.671 59.5643C162.172 59.4305 161.446 59.4305 160.498 59.4951C158.102 59.6705 154.535 60.2657 153.481 60.7363C150.363 61.9775 147.186 66.2595 145.405 71.3997C144.512 73.8868 144.068 77.0152 144.068 80.4482C144.068 83.1475 144.961 85.7314 145.571 87.6555C146.408 90.2949 147.801 92.5004 149.582 94.1754L149.577 94.18ZM149.017 72.664C150.354 68.9081 152.694 65.7566 154.697 64.8753C155.257 64.6676 158.708 64.1324 160.488 64.0032C161.043 63.9617 161.603 63.9201 161.659 63.9755C162.607 64.1324 163.384 64.7507 164.499 65.3459C165.054 65.6412 166.39 66.9516 167.616 67.7084L167.394 67.8929C167.894 68.8112 168.675 70.2739 168.675 70.5C168.675 71.9073 169.23 73.4992 169.23 73.7807C169.341 75.2341 169.397 77.089 169.397 79.0593C169.397 81.3664 168.227 84.3795 165.72 88.6153C164.494 90.6732 161.598 92.2374 158.365 92.4728C155.914 92.6527 153.573 91.979 152.292 90.7747C150.789 89.4228 149.896 88.0247 149.286 86.0406C148.559 83.8996 147.949 82.0308 147.949 80.1713C147.949 77.2459 148.282 74.8004 149.008 72.664H149.017Z" fill="#EBECE7"/>
<path d="M179.476 95.7165L186.159 92.6988C188.611 91.1116 191.007 88.4076 193.232 85.4315C192.954 86.4651 192.732 87.494 192.506 88.523C192.284 88.9337 191.391 94.4015 192.894 95.2505C193.227 95.9565 195.568 94.886 197.964 93.3033C202.644 89.6996 205.54 85.3761 206.599 80.402L206.488 80.4112L203.704 79.6591L203.537 79.673C202.866 83.3782 200.531 86.3635 196.409 89.5335H196.354C196.354 89.7042 196.187 89.8334 195.965 89.958C195.965 89.2843 195.854 88.5045 195.632 88.1262C196.581 83.6089 197.973 79.7929 199.865 75.3218C201.983 71.1136 203.542 68.0729 203.708 66.7117C203.875 65.1244 203.093 63.6063 202.15 63.6756C200.202 63.8186 200.313 65.7243 200.369 67.0116H200.313C200.202 67.2469 200.147 67.4223 200.036 67.653C199.481 68.6497 198.754 70.1124 197.862 71.9765C197.584 72.5025 197.302 72.9732 197.025 73.4992C192.681 81.191 188.949 85.9067 184.994 88.726C184.827 88.8506 182.764 90.1287 180.984 90.7609C181.206 89.9026 181.483 88.9798 181.71 87.9508C181.876 87.2633 190.23 66.6748 190.23 66.3933L188.227 64.2339L188.06 64.2477C187.112 65.1613 185.387 66.4671 183.435 68.4097L183.38 68.4697C178.088 73.6376 177.478 73.4576 177.478 75.8247L177.589 75.8155L179.707 75.1557C179.762 75.9955 181.936 74.2605 184.943 71.1136C184.887 71.2844 184.832 71.4043 184.776 71.5197C182.996 76.9414 180.322 80.8496 178.819 87.0372C178.43 88.7537 177.815 90.5994 177.149 92.9572V94.8168H177.205C178.43 95.5689 178.486 95.7903 179.49 95.7165H179.476Z" fill="#EBECE7"/>
<path d="M216.026 59.1121C217.585 58.2124 218.089 57.4418 219.648 57.3264L219.759 57.3172V51.8079L219.648 51.8171C217.418 51.9786 216.026 53.3767 214.356 54.3411H214.301L215.859 59.126L216.026 59.1121Z" fill="#EBECE7"/>
<path d="M211.289 92.6112C212.293 92.0298 214.018 91.2869 216.081 89.7873L214.578 86.0683C213.685 86.7512 212.46 87.291 211.123 88.0662C211.345 86.9819 211.683 85.8283 211.96 84.684C213.241 78.5702 213.463 77.3151 215.244 70.9383C216.414 66.6886 217.363 64.3123 216.47 63.5325C215.744 62.965 215.577 63.3157 213.741 64.1831C211.683 65.1798 210.79 65.4659 209.453 65.5628V70.1216C210.512 70.0432 211.4 69.8125 212.682 69.268C212.626 69.4987 212.571 69.6694 212.515 69.9001C210.901 75.8155 210.623 77.2413 209.171 83.8765C208.893 85.2469 208.001 87.8447 208.001 90.4333C208.001 94.2584 209.892 93.9539 211.289 92.6158V92.6112Z" fill="#EBECE7"/>
<path d="M223.288 70.4584C221.784 74.0021 219.555 82.9445 219.555 88.1216C219.555 88.9106 219.611 89.695 219.722 90.3041C220.055 92.0252 220.781 92.7588 221.895 92.6804C224.513 92.4912 230.138 87.2403 230.138 84.9332L227.354 85.1362C227.354 84.4025 224.347 87.1572 222.562 87.9047C222.562 84.0795 224.509 76.3923 226.35 72.0365C226.516 71.6858 226.849 70.8184 227.354 69.6556C230.249 69.4433 233.145 69.2911 235.707 69.1019L235.818 69.0926V65.6597L235.707 65.6689C233.589 65.8212 231.197 65.9965 228.801 66.1165C230.138 62.8127 231.475 59.1675 231.475 57.9309L228.186 58.1708C228.131 58.2308 226.35 62.8081 224.958 66.3426L220.892 66.6379V70.0709L223.51 69.8817C223.399 70.1724 223.343 70.3431 223.288 70.4631V70.4584Z" fill="#EBECE7"/>
<path d="M235.906 86.9311C235.906 87.7201 235.961 88.5046 236.072 89.1136C236.405 90.8347 237.132 91.5684 238.246 91.4899C240.864 91.3008 246.489 86.0498 246.489 83.7427L243.704 83.9457C243.704 83.2121 240.698 85.9667 238.912 86.7142C238.912 82.8891 240.86 75.2018 242.701 70.846C242.867 70.4954 243.2 69.6279 243.704 68.4651C246.6 68.2529 249.495 68.1006 252.058 67.9114L252.169 67.9022V64.4692L252.058 64.4784C249.939 64.6307 247.548 64.8061 245.152 64.926C246.489 61.6223 247.826 57.9771 247.826 56.7404L244.542 56.9804C244.486 57.0404 242.705 61.6177 241.313 65.1521L237.247 65.4474V68.8804L239.865 68.6912C239.754 68.9819 239.699 69.1526 239.643 69.2726C238.14 72.8163 235.911 81.7586 235.911 86.9357L235.906 86.9311Z" fill="#EBECE7"/>
<path d="M250.915 76.7753V81.2787L251.026 81.2695C251.304 81.251 252.03 80.9696 252.863 80.6281C252.974 82.423 253.307 84.0288 253.922 85.1085L254.033 85.1546C254.87 86.502 256.762 88.4446 258.099 89.3028C258.88 89.8104 260.828 90.1149 262.608 89.9857C263.945 89.8888 264.838 89.5981 265.393 88.8829H265.338L269.459 83.7473L267.118 81.048L263.552 85.3623L262.604 85.4315C261.434 85.5145 260.152 85.3854 259.764 85.3577L259.32 85.0531C257.817 84.038 256.258 82.5199 256.313 82.1785C255.925 81.3618 255.814 80.6973 255.814 79.29C256.369 79.0224 256.762 78.8286 256.928 78.704C261.554 75.834 265.449 72.9593 268.848 68.7189C269.237 68.2944 270.074 67.5607 270.462 66.5179C270.796 65.7058 270.518 64.8245 269.459 63.7217C267.789 61.816 265.171 59.0798 262.72 59.2598C262.164 59.3013 261.605 59.3982 260.994 59.5551C259.768 59.9842 259.102 60.2565 258.543 60.8009C256.147 63.1726 253.751 70.0432 253.029 76.0047C252.137 76.4061 251.248 76.7522 251.026 76.7707L250.915 76.7799V76.7753ZM260.217 63.0388C260.162 63.491 260.495 64.257 261.443 63.9616C261.554 63.897 262.336 63.7863 262.724 63.754C264.005 63.6617 265.62 64.8383 266.568 65.895L266.512 66.0103C262.78 70.8414 259.829 72.4056 256.207 74.3574C256.933 69.8586 258.436 64.9629 260.217 63.0342V63.0388Z" fill="#EBECE7"/>
<path d="M302.725 84.6425C302.008 83.1936 301.115 82.137 300.403 81.2833C300.241 81.0895 300.084 80.905 299.963 80.7527C297.637 77.6427 295.292 74.8511 292.702 71.7966C292.258 71.2475 291.846 70.6984 291.448 70.1724C291.018 69.6002 290.606 69.0557 290.176 68.5343C292.609 65.129 294.617 62.0283 296.3 59.0706C296.601 58.5446 297.1 57.9309 297.683 57.2157C298.914 55.7115 300.445 53.8381 301.272 51.3418L301.569 50.4559L296.074 48.7025L295.787 49.57C295.463 50.5436 294.653 51.5725 293.71 52.763C292.942 53.7366 292.073 54.8348 291.346 56.0945C289.723 58.9645 287.84 61.7515 286.244 64.017C286.24 64.0078 286.235 64.0032 286.231 63.9986C284.903 62.0791 283.77 60.0211 282.674 58.0278C282.146 57.0634 281.596 56.0668 281.036 55.107C280.352 53.8981 279.616 52.9383 278.969 52.0847C278.441 51.3926 277.988 50.7974 277.711 50.2621L277.234 49.3347L272.239 52.7122L272.613 53.4367C273.242 54.6641 274.015 55.6653 274.699 56.5513C275.208 57.2111 275.689 57.8386 276.036 58.4615C276.591 59.4167 277.137 60.418 277.669 61.3823C278.853 63.5418 280.079 65.7704 281.49 67.7684C281.846 68.2621 282.206 68.7327 282.567 69.1757C281.406 70.7261 280.407 72.1242 279.538 73.4254C277.567 76.2031 275.717 79.3961 274.13 82.1877C273.973 82.483 273.821 82.7783 273.673 83.0644C273.122 84.1349 272.599 85.15 271.929 85.8791L271.355 86.4974L275.319 90.867L276.008 90.1518C277.119 88.9937 277.872 87.5125 278.539 86.2067C278.733 85.8237 278.918 85.4592 279.094 85.1454C280.5 82.7045 282.253 79.6684 284.172 76.9644C284.926 75.894 285.699 74.7958 286.494 73.6976C286.596 73.8314 286.693 73.9698 286.795 74.1036C287.299 74.7865 287.775 75.4279 288.28 76.0001C290.745 78.9163 293.141 81.7817 295.366 84.7117C295.722 85.2008 296.078 85.6437 296.42 86.0729C296.934 86.7142 297.373 87.2679 297.646 87.7617L298.127 88.6476L303.104 85.3669L302.743 84.6379L302.725 84.6425Z" fill="#EBECE7"/>
</g>
<path d="M312.54 15.2892C314.596 10.8313 316.808 6.06098 318.413 1.38831C319.094 0.323892 319.715 -0.33038 320.64 0.172531C321.736 0.773094 323.821 3.26812 324.409 4.44971C324.991 5.62643 323.675 7.36953 322.906 8.67319C318.11 16.8272 312.594 24.6101 307.793 32.7446C306.961 34.1556 306.456 35.5618 305.096 36.7044C304.435 37.261 303.158 37.0169 303.143 36.1673C303.143 35.8841 303.882 33.9213 304.053 33.4672C306.266 27.6715 309.843 21.1239 312.54 15.2843V15.2892Z" fill="#AD2A69"/>
<path d="M343.389 15.7725C343.805 15.9581 344.26 16.5586 344.539 16.9346C344.95 17.4863 345.635 18.7314 345.909 19.3954C346.267 20.2499 345.361 20.7333 344.642 21.2655C341.24 23.7947 337.32 26.1774 334.041 28.9312C332.519 30.2105 331.168 31.729 329.68 33.0522C328.084 34.473 326.44 35.4691 324.786 36.7092C320.958 39.5802 317.498 43.0713 313.754 46.0888C312.795 46.5429 312.193 46.1327 311.87 45.3954C311.6 44.7802 311.982 44.1015 312.535 43.4863C313.7 42.1876 316.734 40.0294 318.242 38.7209C324.688 33.1352 330.629 26.8414 336.928 20.9969C338.47 19.5712 340.389 17.6719 341.969 16.4073C342.356 16.0997 343.007 15.6114 343.384 15.7774H343.389V15.7725Z" fill="#AD2A69"/>
<path d="M350.813 33.7113C350.769 34.2826 350.437 34.6781 349.928 35.0101C348.797 35.7523 346.599 36.5921 345.298 37.2756C339.077 40.5226 333.067 44.5801 326.861 47.8416C326.014 48.286 324.81 48.9207 323.973 48.9891C322.382 49.116 321.56 48.1053 322.984 46.4452C329.093 41.0694 335.837 37.4905 342.356 33.1254C343.565 32.3149 344.735 31.397 345.939 30.5718C346.448 30.2251 348.195 28.9654 348.582 28.9312C349.056 28.8873 349.423 29.2584 349.761 29.4683C349.786 30.7183 350.911 32.5395 350.818 33.7064H350.813V33.7113Z" fill="#AD2A69"/>
<path d="M324.326 58.7446C322.828 59.0082 321.13 59.2621 319.627 59.6674C317.924 60.1263 315.995 61.0638 314.375 60.805C313.392 60.6488 312.706 59.516 313.778 58.4858C313.906 58.3637 315.207 57.6264 315.423 57.5239C321.418 54.7408 329.117 52.9489 335.333 50.9568C337.075 50.4001 339.15 49.4773 340.863 49.0818C341.147 49.0184 341.456 48.9256 341.642 49.116C342.077 49.5701 342.253 53.276 342.087 54.1354C341.974 54.7066 341.872 55.1802 341.255 55.4878C340.526 55.8492 338.627 56.0298 337.755 56.2398C333.062 57.3725 328.956 57.9243 324.33 58.7397H324.326V58.7446Z" fill="#AD2A69"/>
<path d="M302.512 8.56576C302.394 10.6555 300.632 14.1906 299.834 16.3926C298.621 19.747 298.298 22.4813 297.475 25.7184C297.167 26.9196 296.624 28.2818 296.262 29.5122C295.704 31.3921 295.278 34.3168 293.707 35.8938C292.689 36.9143 291.705 36.0647 291.583 35.0638C291.519 34.5609 291.769 32.9252 291.862 32.2953C292.15 30.3911 292.738 28.4381 293.061 26.5338C293.854 21.8807 294.221 17.6523 295.518 12.8722C295.709 12.1643 296.976 7.91149 297.27 7.59412C297.691 7.13515 301.685 6.70548 302.096 7.02285C302.36 7.22792 302.541 8.16051 302.517 8.57553V8.56576H302.512Z" fill="#AD2A69"/>
<path d="M337.462 8.40463C337.418 8.59505 335.387 11.217 335.054 11.6369C332.891 14.3419 330.502 16.9004 328.285 19.5761C324.658 23.9558 321.012 28.3599 317.429 32.7836C316.661 33.7308 316.607 34.2142 315.457 35.0003C314.312 35.7815 313.034 34.6976 313.494 33.6283C313.602 33.3793 313.881 32.9496 314.047 32.6957C315.545 30.3423 317.718 27.5006 319.436 25.2253C323.361 20.0155 328.608 14.3517 331.667 8.77082C332.372 7.48669 333.341 4.43993 334.995 5.45064C335.582 5.81195 336.742 7.04726 337.158 7.63317C337.271 7.78941 337.511 8.18002 337.462 8.40463Z" fill="#AD2A69"/>
<path d="M314.077 65.3116C314.067 65.2872 314.043 64.7306 314.048 64.7013C314.121 64.3205 314.85 63.5246 315.173 63.2316C316.338 62.1819 318.237 62.3576 319.48 62.2502C320.092 62.1965 321.482 61.8889 321.942 61.928C322.245 61.9573 322.427 62.0842 322.544 62.3528C322.583 62.4455 322.652 64.3449 322.642 64.5939C322.622 65.0968 322.676 65.5948 322.055 65.6827C321.262 65.7901 319.681 65.7022 318.829 65.6925C317.346 65.673 315.917 65.4825 314.4 65.5607C314.234 65.5411 314.121 65.4679 314.067 65.3116H314.077Z" fill="#AD2A69"/>
<path d="M23.4448 122.987C21.5458 124.906 19.5098 126.956 17.8017 129.325C17.2535 129.666 16.8131 129.74 16.4362 128.773C15.9908 127.63 15.4084 124.466 15.3399 123.226C15.2713 121.986 16.2698 121.576 16.9109 121.117C20.9047 118.27 25.197 116.161 29.1907 113.334C29.8808 112.846 30.4094 112.147 31.3197 112.187C31.7602 112.206 32.3671 113.207 32.2105 113.837C32.1567 114.047 31.4078 114.994 31.2316 115.214C28.9998 118.007 25.9311 120.467 23.4448 122.982V122.987Z" fill="#AD2A69"/>
<path d="M16.8522 110.224C18.2911 109.735 19.9356 109.228 21.355 108.603C22.9701 107.89 24.732 106.674 26.3716 106.684C27.3652 106.684 28.2168 107.704 27.3162 108.886C27.2085 109.027 26.0339 109.955 25.8381 110.082C20.3321 113.744 13.0004 116.679 7.15661 119.589C5.51702 120.404 3.60825 121.63 1.97845 122.279C1.70926 122.386 1.4156 122.523 1.20515 122.362C0.705928 121.981 -0.0331104 118.343 0.00114965 117.47C0.0256211 116.888 0.0549869 116.405 0.617831 116.01C1.28346 115.541 3.1335 115.077 3.96553 114.735C8.43402 112.904 12.4082 111.737 16.8522 110.229V110.224Z" fill="#AD2A69"/>
<path d="M25.9849 102.182C25.9996 102.206 26.1073 102.748 26.1073 102.783C26.0926 103.168 25.4906 104.067 25.2165 104.408C24.2279 105.624 22.3191 105.737 21.1053 106.03C20.5131 106.176 19.1818 106.694 18.7218 106.718C18.4134 106.737 18.2226 106.635 18.061 106.386C18.0072 106.298 17.6499 104.433 17.6206 104.184C17.5667 103.681 17.4346 103.198 18.0366 103.017C18.8001 102.787 20.3809 102.641 21.2228 102.519C22.6911 102.314 24.1349 102.285 25.6178 101.977C25.7842 101.967 25.9066 102.026 25.9849 102.172V102.182Z" fill="#AD2A69"/>
<defs>
<clipPath id="clip0_336_1011">
<rect width="265.56" height="61.1796" fill="white" transform="translate(37.5305 48.7025)"/>
</clipPath>
</defs>
</svg>
