<svg width="81" height="82" viewBox="0 0 81 82" fill="none" xmlns="http://www.w3.org/2000/svg">
<g clip-path="url(#clip0_176_911)">
<path d="M53.8997 1.63632C58.0439 2.7962 62.1881 4.62692 65.9812 7.34792C74.6583 13.5674 79.7054 23.1849 80.5706 35.1661C81.6803 50.5141 78.627 62.3134 71.511 70.2319C66.395 75.9247 59.4859 79.7429 51.5298 81.2727C43.6301 82.7962 35.4546 81.9185 27.8872 78.746C8.90911 70.7774 -0.720978 60.42 0.0439122 48.7837C1.63639 24.42 14.6333 5.2288 32.3825 1.02817C38.0251 -0.30725 45.975 -0.576843 53.8997 1.63005V1.63632Z" fill="#E2E4DF"/>
<path d="M80.5706 35.1599C79.7054 23.1787 74.6583 13.5611 65.9812 7.34168C62.1819 4.62067 58.0439 2.78368 53.8997 1.63008C49.2728 0.344811 44.6458 -0.10033 40.464 0.0187927C40.6834 9.52976 41.5173 34.4577 44.4452 40.9969C51.5235 60 42.4217 82 44.4452 82C56.5 81.5 66.395 75.9185 71.5047 70.2257C78.627 62.3009 81.674 50.5016 80.5643 35.1599H80.5706Z" fill="#D6346F"/>
<path d="M27.8076 32.62H18.3276L17.6676 41.41L17.8476 41.44C18.3876 40.7 19.0076 40.15 19.7076 39.79C20.4276 39.41 21.3476 39.22 22.4676 39.22C23.3876 39.22 24.2276 39.37 24.9876 39.67C25.7676 39.95 26.4276 40.37 26.9676 40.93C27.5076 41.47 27.9276 42.14 28.2276 42.94C28.5276 43.72 28.6776 44.61 28.6776 45.61C28.6776 46.63 28.5176 47.56 28.1976 48.4C27.8976 49.22 27.4476 49.93 26.8476 50.53C26.2676 51.11 25.5576 51.56 24.7176 51.88C23.8776 52.2 22.9376 52.36 21.8976 52.36C21.0776 52.36 20.3276 52.27 19.6476 52.09C18.9876 51.93 18.3876 51.7 17.8476 51.4C17.3276 51.08 16.8576 50.71 16.4376 50.29C16.0176 49.87 15.6476 49.42 15.3276 48.94L16.7076 47.92C17.2876 48.82 17.9676 49.53 18.7476 50.05C19.5476 50.55 20.6076 50.8 21.9276 50.8C23.4876 50.8 24.6876 50.36 25.5276 49.48C26.3876 48.6 26.8176 47.44 26.8176 46V45.52C26.8176 44.06 26.3976 42.9 25.5576 42.04C24.7376 41.18 23.5476 40.75 21.9876 40.75C21.4276 40.75 20.9376 40.8 20.5176 40.9C20.0976 40.98 19.7176 41.11 19.3776 41.29C19.0576 41.45 18.7576 41.65 18.4776 41.89C18.1976 42.11 17.9276 42.37 17.6676 42.67L16.1076 42.43L16.8576 31.06H27.8076V32.62ZM40.0059 52.36C37.5859 52.36 35.7859 51.46 34.6059 49.66C33.4459 47.84 32.8659 45.13 32.8659 41.53C32.8659 37.93 33.4459 35.23 34.6059 33.43C35.7859 31.61 37.5859 30.7 40.0059 30.7C42.4259 30.7 44.2159 31.61 45.3759 33.43C46.5559 35.23 47.1459 37.93 47.1459 41.53C47.1459 45.13 46.5559 47.84 45.3759 49.66C44.2159 51.46 42.4259 52.36 40.0059 52.36ZM40.0059 50.8C41.8059 50.8 43.1259 50.12 43.9659 48.76C44.8059 47.38 45.2259 45.44 45.2259 42.94V40.12C45.2259 37.64 44.8059 35.71 43.9659 34.33C43.1259 32.95 41.8059 32.26 40.0059 32.26C38.2059 32.26 36.8859 32.95 36.0459 34.33C35.2059 35.71 34.7859 37.64 34.7859 40.12V42.94C34.7859 45.44 35.2059 47.38 36.0459 48.76C36.8859 50.12 38.2059 50.8 40.0059 50.8ZM40.0059 42.91C39.4859 42.91 39.1159 42.8 38.8959 42.58C38.6759 42.36 38.5659 42.09 38.5659 41.77V41.29C38.5659 40.97 38.6759 40.7 38.8959 40.48C39.1159 40.26 39.4859 40.15 40.0059 40.15C40.5259 40.15 40.8959 40.26 41.1159 40.48C41.3359 40.7 41.4459 40.97 41.4459 41.29V41.77C41.4459 42.09 41.3359 42.36 41.1159 42.58C40.8959 42.8 40.5259 42.91 40.0059 42.91ZM54.1241 41.08C53.5041 41.08 52.9241 40.98 52.3841 40.78C51.8641 40.56 51.4041 40.24 51.0041 39.82C50.6241 39.38 50.3241 38.84 50.1041 38.2C49.8841 37.54 49.7741 36.77 49.7741 35.89C49.7741 35.01 49.8841 34.25 50.1041 33.61C50.3241 32.95 50.6241 32.41 51.0041 31.99C51.4041 31.55 51.8641 31.23 52.3841 31.03C52.9241 30.81 53.5041 30.7 54.1241 30.7C54.7441 30.7 55.3141 30.81 55.8341 31.03C56.3541 31.23 56.8041 31.55 57.1841 31.99C57.5841 32.41 57.8941 32.95 58.1141 33.61C58.3341 34.25 58.4441 35.01 58.4441 35.89C58.4441 36.77 58.3341 37.54 58.1141 38.2C57.8941 38.84 57.5841 39.38 57.1841 39.82C56.8041 40.24 56.3541 40.56 55.8341 40.78C55.3141 40.98 54.7441 41.08 54.1241 41.08ZM54.1241 39.88C54.9041 39.88 55.5641 39.61 56.1041 39.07C56.6641 38.51 56.9441 37.66 56.9441 36.52V35.26C56.9441 34.12 56.6641 33.28 56.1041 32.74C55.5641 32.18 54.9041 31.9 54.1241 31.9C53.3241 31.9 52.6441 32.18 52.0841 32.74C51.5441 33.28 51.2741 34.12 51.2741 35.26V36.52C51.2741 37.66 51.5441 38.51 52.0841 39.07C52.6441 39.61 53.3241 39.88 54.1241 39.88ZM64.7741 31.06H66.3341L61.3241 40.06H59.7641L64.7741 31.06ZM54.6641 43H56.2241L51.2141 52H49.6541L54.6641 43ZM61.9241 52.36C61.3041 52.36 60.7241 52.25 60.1841 52.03C59.6441 51.83 59.1741 51.52 58.7741 51.1C58.3941 50.66 58.0941 50.12 57.8741 49.48C57.6541 48.82 57.5441 48.05 57.5441 47.17C57.5441 46.29 57.6541 45.53 57.8741 44.89C58.0941 44.23 58.3941 43.69 58.7741 43.27C59.1741 42.83 59.6341 42.51 60.1541 42.31C60.6941 42.09 61.2741 41.98 61.8941 41.98C62.5141 41.98 63.0841 42.09 63.6041 42.31C64.1241 42.51 64.5741 42.83 64.9541 43.27C65.3541 43.69 65.6641 44.23 65.8841 44.89C66.1041 45.53 66.2141 46.29 66.2141 47.17C66.2141 48.05 66.1041 48.82 65.8841 49.48C65.6641 50.12 65.3641 50.66 64.9841 51.1C64.6041 51.52 64.1541 51.83 63.6341 52.03C63.1141 52.25 62.5441 52.36 61.9241 52.36ZM61.8941 51.16C62.6741 51.16 63.3341 50.89 63.8741 50.35C64.4341 49.79 64.7141 48.94 64.7141 47.8V46.54C64.7141 45.4 64.4341 44.56 63.8741 44.02C63.3341 43.46 62.6741 43.18 61.8941 43.18C61.0941 43.18 60.4141 43.46 59.8541 44.02C59.3141 44.56 59.0441 45.4 59.0441 46.54V47.8C59.0441 48.94 59.3141 49.79 59.8541 50.35C60.4141 50.89 61.0941 51.16 61.8941 51.16Z" fill="#2A39A9"/>
</g>
<defs>
<clipPath id="clip0_176_911">
<rect width="80.79" height="82" fill="white"/>
</clipPath>
</defs>
</svg>
