<svg width="80" height="82" viewBox="0 0 80 82" fill="none" xmlns="http://www.w3.org/2000/svg">
<g clip-path="url(#clip0_176_885)">
<path d="M53.371 1.63852C57.4747 2.7984 61.5784 4.62912 65.3344 7.35012C73.9267 13.5696 78.9244 23.1871 79.7811 35.1683C80.88 50.5163 77.8565 62.3156 70.8101 70.2341C65.7442 75.9269 58.9026 79.7451 51.0243 81.2749C43.2019 82.7984 35.1063 81.9207 27.6129 78.7482C8.82037 70.7796 -0.71556 60.4222 0.041851 48.7859C1.61876 24.4222 14.4885 5.231 32.0642 1.03037C37.6517 -0.305053 45.5238 -0.574646 53.371 1.63225V1.63852Z" fill="#E2E4DF"/>
<path d="M31.0117 52.36C28.5917 52.36 26.7917 51.46 25.6117 49.66C24.4517 47.84 23.8717 45.13 23.8717 41.53C23.8717 37.93 24.4517 35.23 25.6117 33.43C26.7917 31.61 28.5917 30.7 31.0117 30.7C33.4317 30.7 35.2217 31.61 36.3817 33.43C37.5617 35.23 38.1517 37.93 38.1517 41.53C38.1517 45.13 37.5617 47.84 36.3817 49.66C35.2217 51.46 33.4317 52.36 31.0117 52.36ZM31.0117 50.8C32.8117 50.8 34.1317 50.12 34.9717 48.76C35.8117 47.38 36.2317 45.44 36.2317 42.94V40.12C36.2317 37.64 35.8117 35.71 34.9717 34.33C34.1317 32.95 32.8117 32.26 31.0117 32.26C29.2117 32.26 27.8917 32.95 27.0517 34.33C26.2117 35.71 25.7917 37.64 25.7917 40.12V42.94C25.7917 45.44 26.2117 47.38 27.0517 48.76C27.8917 50.12 29.2117 50.8 31.0117 50.8ZM31.0117 42.91C30.4917 42.91 30.1217 42.8 29.9017 42.58C29.6817 42.36 29.5717 42.09 29.5717 41.77V41.29C29.5717 40.97 29.6817 40.7 29.9017 40.48C30.1217 40.26 30.4917 40.15 31.0117 40.15C31.5317 40.15 31.9017 40.26 32.1217 40.48C32.3417 40.7 32.4517 40.97 32.4517 41.29V41.77C32.4517 42.09 32.3417 42.36 32.1217 42.58C31.9017 42.8 31.5317 42.91 31.0117 42.91ZM45.13 41.08C44.51 41.08 43.93 40.98 43.39 40.78C42.87 40.56 42.41 40.24 42.01 39.82C41.63 39.38 41.33 38.84 41.11 38.2C40.89 37.54 40.78 36.77 40.78 35.89C40.78 35.01 40.89 34.25 41.11 33.61C41.33 32.95 41.63 32.41 42.01 31.99C42.41 31.55 42.87 31.23 43.39 31.03C43.93 30.81 44.51 30.7 45.13 30.7C45.75 30.7 46.32 30.81 46.84 31.03C47.36 31.23 47.81 31.55 48.19 31.99C48.59 32.41 48.9 32.95 49.12 33.61C49.34 34.25 49.45 35.01 49.45 35.89C49.45 36.77 49.34 37.54 49.12 38.2C48.9 38.84 48.59 39.38 48.19 39.82C47.81 40.24 47.36 40.56 46.84 40.78C46.32 40.98 45.75 41.08 45.13 41.08ZM45.13 39.88C45.91 39.88 46.57 39.61 47.11 39.07C47.67 38.51 47.95 37.66 47.95 36.52V35.26C47.95 34.12 47.67 33.28 47.11 32.74C46.57 32.18 45.91 31.9 45.13 31.9C44.33 31.9 43.65 32.18 43.09 32.74C42.55 33.28 42.28 34.12 42.28 35.26V36.52C42.28 37.66 42.55 38.51 43.09 39.07C43.65 39.61 44.33 39.88 45.13 39.88ZM55.78 31.06H57.34L52.33 40.06H50.77L55.78 31.06ZM45.67 43H47.23L42.22 52H40.66L45.67 43ZM52.93 52.36C52.31 52.36 51.73 52.25 51.19 52.03C50.65 51.83 50.18 51.52 49.78 51.1C49.4 50.66 49.1 50.12 48.88 49.48C48.66 48.82 48.55 48.05 48.55 47.17C48.55 46.29 48.66 45.53 48.88 44.89C49.1 44.23 49.4 43.69 49.78 43.27C50.18 42.83 50.64 42.51 51.16 42.31C51.7 42.09 52.28 41.98 52.9 41.98C53.52 41.98 54.09 42.09 54.61 42.31C55.13 42.51 55.58 42.83 55.96 43.27C56.36 43.69 56.67 44.23 56.89 44.89C57.11 45.53 57.22 46.29 57.22 47.17C57.22 48.05 57.11 48.82 56.89 49.48C56.67 50.12 56.37 50.66 55.99 51.1C55.61 51.52 55.16 51.83 54.64 52.03C54.12 52.25 53.55 52.36 52.93 52.36ZM52.9 51.16C53.68 51.16 54.34 50.89 54.88 50.35C55.44 49.79 55.72 48.94 55.72 47.8V46.54C55.72 45.4 55.44 44.56 54.88 44.02C54.34 43.46 53.68 43.18 52.9 43.18C52.1 43.18 51.42 43.46 50.86 44.02C50.32 44.56 50.05 45.4 50.05 46.54V47.8C50.05 48.94 50.32 49.79 50.86 50.35C51.42 50.89 52.1 51.16 52.9 51.16Z" fill="#2A39A9"/>
</g>
<defs>
<clipPath id="clip0_176_885">
<rect width="80" height="82" fill="white"/>
</clipPath>
</defs>
</svg>
