<svg width="161" height="163" viewBox="0 0 161 163" fill="none" xmlns="http://www.w3.org/2000/svg">
<path d="M96.0708 19.9135C103.457 21.9786 110.844 25.2382 117.605 30.0829C133.071 41.1565 142.067 58.2805 143.609 79.6128C145.587 106.94 140.145 127.948 127.461 142.047C118.342 152.183 106.028 158.981 91.8467 161.705C77.7663 164.418 63.1942 162.855 49.7061 157.206C15.8796 143.018 -1.28508 124.577 0.0782615 103.859C2.91669 60.4796 26.0823 26.3098 57.7185 18.8307C67.7759 16.453 81.9457 15.9729 96.0708 19.9023V19.9135Z" fill="#D6346F"/>
<path d="M26.7272 105V102.08H34.7272V79.56H34.4472L27.4072 86.12L25.4472 84L32.8472 77.08H38.0872V102.08H45.4472V105H26.7272ZM59.3116 105.48C57.6049 105.48 56.1383 105.16 54.9116 104.52C53.6849 103.853 52.6716 102.907 51.8716 101.68C51.0716 100.453 50.4849 98.9467 50.1116 97.16C49.7383 95.3733 49.5516 93.3333 49.5516 91.04C49.5516 88.7733 49.7383 86.7467 50.1116 84.96C50.4849 83.1467 51.0716 81.6267 51.8716 80.4C52.6716 79.1733 53.6849 78.24 54.9116 77.6C56.1383 76.9333 57.6049 76.6 59.3116 76.6C61.0183 76.6 62.4849 76.9333 63.7116 77.6C64.9383 78.24 65.9516 79.1733 66.7516 80.4C67.5516 81.6267 68.1383 83.1467 68.5116 84.96C68.8849 86.7467 69.0716 88.7733 69.0716 91.04C69.0716 93.3333 68.8849 95.3733 68.5116 97.16C68.1383 98.9467 67.5516 100.453 66.7516 101.68C65.9516 102.907 64.9383 103.853 63.7116 104.52C62.4849 105.16 61.0183 105.48 59.3116 105.48ZM59.3116 102.56C60.4316 102.56 61.3916 102.347 62.1916 101.92C62.9916 101.467 63.6316 100.84 64.1116 100.04C64.6183 99.24 64.9916 98.28 65.2316 97.16C65.4716 96.0133 65.5916 94.7333 65.5916 93.32V88.76C65.5916 87.3733 65.4716 86.1067 65.2316 84.96C64.9916 83.8133 64.6183 82.84 64.1116 82.04C63.6316 81.24 62.9916 80.6267 62.1916 80.2C61.3916 79.7467 60.4316 79.52 59.3116 79.52C58.1916 79.52 57.2316 79.7467 56.4316 80.2C55.6316 80.6267 54.9783 81.24 54.4716 82.04C53.9916 82.84 53.6316 83.8133 53.3916 84.96C53.1516 86.1067 53.0316 87.3733 53.0316 88.76V93.32C53.0316 94.7333 53.1516 96.0133 53.3916 97.16C53.6316 98.28 53.9916 99.24 54.4716 100.04C54.9783 100.84 55.6316 101.467 56.4316 101.92C57.2316 102.347 58.1916 102.56 59.3116 102.56ZM59.3116 93.4C58.3783 93.4 57.7249 93.2133 57.3516 92.84C57.0049 92.4667 56.8316 92.0133 56.8316 91.48V90.6C56.8316 90.0667 57.0049 89.6133 57.3516 89.24C57.7249 88.8667 58.3783 88.68 59.3116 88.68C60.2449 88.68 60.8849 88.8667 61.2316 89.24C61.6049 89.6133 61.7916 90.0667 61.7916 90.6V91.48C61.7916 92.0133 61.6049 92.4667 61.2316 92.84C60.8849 93.2133 60.2449 93.4 59.3116 93.4ZM83.296 105.48C81.5893 105.48 80.1226 105.16 78.896 104.52C77.6693 103.853 76.656 102.907 75.856 101.68C75.056 100.453 74.4693 98.9467 74.096 97.16C73.7226 95.3733 73.536 93.3333 73.536 91.04C73.536 88.7733 73.7226 86.7467 74.096 84.96C74.4693 83.1467 75.056 81.6267 75.856 80.4C76.656 79.1733 77.6693 78.24 78.896 77.6C80.1226 76.9333 81.5893 76.6 83.296 76.6C85.0026 76.6 86.4693 76.9333 87.696 77.6C88.9227 78.24 89.936 79.1733 90.736 80.4C91.536 81.6267 92.1227 83.1467 92.496 84.96C92.8693 86.7467 93.056 88.7733 93.056 91.04C93.056 93.3333 92.8693 95.3733 92.496 97.16C92.1227 98.9467 91.536 100.453 90.736 101.68C89.936 102.907 88.9227 103.853 87.696 104.52C86.4693 105.16 85.0026 105.48 83.296 105.48ZM83.296 102.56C84.416 102.56 85.376 102.347 86.176 101.92C86.976 101.467 87.616 100.84 88.096 100.04C88.6026 99.24 88.976 98.28 89.216 97.16C89.456 96.0133 89.576 94.7333 89.576 93.32V88.76C89.576 87.3733 89.456 86.1067 89.216 84.96C88.976 83.8133 88.6026 82.84 88.096 82.04C87.616 81.24 86.976 80.6267 86.176 80.2C85.376 79.7467 84.416 79.52 83.296 79.52C82.176 79.52 81.216 79.7467 80.416 80.2C79.616 80.6267 78.9626 81.24 78.456 82.04C77.976 82.84 77.616 83.8133 77.376 84.96C77.136 86.1067 77.016 87.3733 77.016 88.76V93.32C77.016 94.7333 77.136 96.0133 77.376 97.16C77.616 98.28 77.976 99.24 78.456 100.04C78.9626 100.84 79.616 101.467 80.416 101.92C81.216 102.347 82.176 102.56 83.296 102.56ZM83.296 93.4C82.3626 93.4 81.7093 93.2133 81.336 92.84C80.9893 92.4667 80.816 92.0133 80.816 91.48V90.6C80.816 90.0667 80.9893 89.6133 81.336 89.24C81.7093 88.8667 82.3626 88.68 83.296 88.68C84.2293 88.68 84.8693 88.8667 85.216 89.24C85.5893 89.6133 85.776 90.0667 85.776 90.6V91.48C85.776 92.0133 85.5893 92.4667 85.216 92.84C84.8693 93.2133 84.2293 93.4 83.296 93.4ZM102.04 90.76C100.28 90.76 98.8404 90.1733 97.7204 89C96.627 87.8 96.0804 86.0267 96.0804 83.68C96.0804 81.3333 96.627 79.5733 97.7204 78.4C98.8404 77.2 100.28 76.6 102.04 76.6C103.8 76.6 105.227 77.2 106.32 78.4C107.44 79.5733 108 81.3333 108 83.68C108 86.0267 107.44 87.8 106.32 89C105.227 90.1733 103.8 90.76 102.04 90.76ZM102.04 88.6C103 88.6 103.774 88.2667 104.36 87.6C104.974 86.9333 105.28 85.96 105.28 84.68V82.68C105.28 81.4 104.974 80.4267 104.36 79.76C103.774 79.0933 103 78.76 102.04 78.76C101.08 78.76 100.294 79.0933 99.6804 79.76C99.0937 80.4267 98.8004 81.4 98.8004 82.68V84.68C98.8004 85.96 99.0937 86.9333 99.6804 87.6C100.294 88.2667 101.08 88.6 102.04 88.6ZM115.68 77.08H118.56L112.16 89.08H109.28L115.68 77.08ZM102.4 93H105.28L98.8804 105H96.0004L102.4 93ZM112.52 105.48C110.76 105.48 109.32 104.893 108.2 103.72C107.107 102.52 106.56 100.747 106.56 98.4C106.56 96.0533 107.107 94.2933 108.2 93.12C109.32 91.92 110.76 91.32 112.52 91.32C114.28 91.32 115.707 91.92 116.8 93.12C117.92 94.2933 118.48 96.0533 118.48 98.4C118.48 100.747 117.92 102.52 116.8 103.72C115.707 104.893 114.28 105.48 112.52 105.48ZM112.52 103.32C113.48 103.32 114.254 102.987 114.84 102.32C115.454 101.653 115.76 100.68 115.76 99.4V97.4C115.76 96.12 115.454 95.1467 114.84 94.48C114.254 93.8133 113.48 93.48 112.52 93.48C111.56 93.48 110.774 93.8133 110.16 94.48C109.574 95.1467 109.28 96.12 109.28 97.4V99.4C109.28 100.68 109.574 101.653 110.16 102.32C110.774 102.987 111.56 103.32 112.52 103.32Z" fill="white"/>
<path d="M125.561 15.5945C127.083 11.6687 128.724 7.46701 129.848 3.38209C130.374 2.43434 130.873 1.84065 131.695 2.22022C132.669 2.67394 134.596 4.6941 135.165 5.67271C135.729 6.64741 134.694 8.21053 134.105 9.36775C130.429 16.6053 126.115 23.5648 122.434 30.7859C121.796 32.0385 121.44 33.2689 120.333 34.3207C119.796 34.833 118.685 34.6941 118.626 33.9682C118.611 33.7259 119.139 32.0065 119.261 31.6087C120.846 26.5299 123.562 20.7332 125.56 15.5903L125.561 15.5945Z" fill="#AD2A69"/>
<path d="M152.085 14.3195C152.453 14.4554 152.876 14.9443 153.136 15.2506C153.52 15.7 154.176 16.7276 154.448 17.2806C154.801 17.992 154.05 18.455 153.461 18.9497C150.677 21.2993 147.439 23.5521 144.772 26.0872C143.534 27.2648 142.457 28.6377 141.251 29.851C139.958 31.1537 138.599 32.0958 137.246 33.2472C134.115 35.9125 131.333 39.0882 128.281 41.8743C127.482 42.3153 126.942 41.9974 126.625 41.3844C126.36 40.8728 126.651 40.2714 127.092 39.7149C128.022 38.5401 130.511 36.528 131.735 35.3261C136.967 30.1952 141.728 24.4863 146.82 19.1421C148.067 17.8381 149.611 16.1084 150.9 14.9401C151.216 14.6558 151.748 14.2026 152.081 14.3239L152.085 14.3237L152.085 14.3195Z" fill="#AD2A69"/>
<path d="M159.442 29.2582C159.435 29.7493 159.171 30.1058 158.751 30.4177C157.821 31.1144 155.979 31.9531 154.898 32.6091C149.731 35.727 144.79 39.5268 139.636 42.6564C138.933 43.0829 137.934 43.6917 137.218 43.796C135.859 43.9917 135.098 43.1721 136.231 41.6741C141.184 36.7413 146.783 33.3106 152.145 29.2199C153.139 28.4604 154.094 27.6112 155.083 26.8394C155.501 26.515 156.934 25.3418 157.264 25.2914C157.669 25.2279 158.005 25.5252 158.306 25.6863C158.396 26.7542 159.462 28.2505 159.445 29.2538L159.441 29.2541L159.442 29.2582Z" fill="#AD2A69"/>
<path d="M116.58 10.3923C116.593 12.1863 115.272 15.3066 114.706 17.234C113.847 20.1698 113.718 22.5264 113.188 25.3405C112.989 26.3848 112.597 27.5799 112.352 28.6522C111.976 30.2908 111.769 32.8159 110.506 34.2509C109.687 35.1796 108.796 34.5067 108.636 33.6572C108.554 33.2304 108.679 31.8176 108.725 31.2737C108.869 29.629 109.267 27.9262 109.441 26.2796C109.868 22.2559 109.953 18.6188 110.807 14.4589C110.932 13.8428 111.789 10.1356 112.024 9.84801C112.36 9.43237 115.768 8.84624 116.138 9.09522C116.376 9.25617 116.583 10.044 116.584 10.4004L116.584 10.392L116.58 10.3923Z" fill="#AD2A69"/>
<path d="M146.593 8.34155C146.565 8.50685 144.963 10.8609 144.7 11.2383C142.99 13.6706 141.077 15.9898 139.319 18.4C136.442 22.345 133.55 26.3119 130.714 30.292C130.105 31.1443 130.085 31.5608 129.14 32.2962C128.199 33.0271 127.043 32.1698 127.379 31.2299C127.458 31.011 127.675 30.6282 127.804 30.4019C128.962 28.3068 130.674 25.7571 132.025 23.7167C135.113 19.0454 139.311 13.9133 141.635 8.97196C142.17 7.83492 142.837 5.17565 144.313 5.94968C144.837 6.22661 145.901 7.21981 146.29 7.69824C146.395 7.82574 146.622 8.14674 146.593 8.34155Z" fill="#AD2A69"/>
</svg>
