<svg width="81" height="82" viewBox="0 0 81 82" fill="none" xmlns="http://www.w3.org/2000/svg">
<g clip-path="url(#clip0_176_914)">
<path d="M53.8997 1.63632C58.0439 2.7962 62.1881 4.62692 65.9812 7.34792C74.6583 13.5674 79.7054 23.1849 80.5706 35.1661C81.6803 50.5141 78.627 62.3134 71.511 70.2319C66.395 75.9247 59.4859 79.7429 51.5298 81.2727C43.6301 82.7962 35.4546 81.9185 27.8872 78.746C8.90911 70.7774 -0.720978 60.42 0.0439122 48.7837C1.63639 24.42 14.6333 5.2288 32.3825 1.02817C38.0251 -0.30725 45.975 -0.576843 53.8997 1.63005V1.63632Z" fill="#E2E4DF"/>
<path d="M80.5705 35.1599C79.7053 23.1787 74.6583 13.5611 65.9812 7.34168C62.1818 4.62067 58.0439 2.78368 53.8997 1.63008C49.2727 0.344811 44.6458 -0.10033 40.4639 0.0187927C40.6834 9.52976 41.5172 34.4577 44.4451 40.9969C44.4451 40.9969 24.8715 46.6583 20.4263 44.6834C17.7053 43.4733 7.75548 43.8997 0.457675 44.42C0.282126 45.8495 0.137926 47.3041 0.0438818 48.7774C-0.714739 60.4138 8.90909 70.7774 27.8809 78.7398C35.4483 81.9185 43.6238 82.79 51.5235 81.2664C59.4859 79.7367 66.395 75.9185 71.5047 70.2257C78.627 62.3009 81.674 50.5016 80.5643 35.1599H80.5705Z" fill="#D6346F"/>
<path d="M18.3576 52L26.9076 32.62H16.7376V36.94H15.1176V31.06H28.7376V32.65L20.3076 52H18.3576ZM45.7959 32.62H36.3159L35.6559 41.41L35.8359 41.44C36.3759 40.7 36.9959 40.15 37.6959 39.79C38.4159 39.41 39.3359 39.22 40.4559 39.22C41.3759 39.22 42.2159 39.37 42.9759 39.67C43.7559 39.95 44.4159 40.37 44.9559 40.93C45.4959 41.47 45.9159 42.14 46.2159 42.94C46.5159 43.72 46.6659 44.61 46.6659 45.61C46.6659 46.63 46.5059 47.56 46.1859 48.4C45.8859 49.22 45.4359 49.93 44.8359 50.53C44.2559 51.11 43.5459 51.56 42.7059 51.88C41.8659 52.2 40.9259 52.36 39.8859 52.36C39.0659 52.36 38.3159 52.27 37.6359 52.09C36.9759 51.93 36.3759 51.7 35.8359 51.4C35.3159 51.08 34.8459 50.71 34.4259 50.29C34.0059 49.87 33.6359 49.42 33.3159 48.94L34.6959 47.92C35.2759 48.82 35.9559 49.53 36.7359 50.05C37.5359 50.55 38.5959 50.8 39.9159 50.8C41.4759 50.8 42.6759 50.36 43.5159 49.48C44.3759 48.6 44.8059 47.44 44.8059 46V45.52C44.8059 44.06 44.3859 42.9 43.5459 42.04C42.7259 41.18 41.5359 40.75 39.9759 40.75C39.4159 40.75 38.9259 40.8 38.5059 40.9C38.0859 40.98 37.7059 41.11 37.3659 41.29C37.0459 41.45 36.7459 41.65 36.4659 41.89C36.1859 42.11 35.9159 42.37 35.6559 42.67L34.0959 42.43L34.8459 31.06H45.7959V32.62ZM54.1241 41.08C53.5041 41.08 52.9241 40.98 52.3841 40.78C51.8641 40.56 51.4041 40.24 51.0041 39.82C50.6241 39.38 50.3241 38.84 50.1041 38.2C49.8841 37.54 49.7741 36.77 49.7741 35.89C49.7741 35.01 49.8841 34.25 50.1041 33.61C50.3241 32.95 50.6241 32.41 51.0041 31.99C51.4041 31.55 51.8641 31.23 52.3841 31.03C52.9241 30.81 53.5041 30.7 54.1241 30.7C54.7441 30.7 55.3141 30.81 55.8341 31.03C56.3541 31.23 56.8041 31.55 57.1841 31.99C57.5841 32.41 57.8941 32.95 58.1141 33.61C58.3341 34.25 58.4441 35.01 58.4441 35.89C58.4441 36.77 58.3341 37.54 58.1141 38.2C57.8941 38.84 57.5841 39.38 57.1841 39.82C56.8041 40.24 56.3541 40.56 55.8341 40.78C55.3141 40.98 54.7441 41.08 54.1241 41.08ZM54.1241 39.88C54.9041 39.88 55.5641 39.61 56.1041 39.07C56.6641 38.51 56.9441 37.66 56.9441 36.52V35.26C56.9441 34.12 56.6641 33.28 56.1041 32.74C55.5641 32.18 54.9041 31.9 54.1241 31.9C53.3241 31.9 52.6441 32.18 52.0841 32.74C51.5441 33.28 51.2741 34.12 51.2741 35.26V36.52C51.2741 37.66 51.5441 38.51 52.0841 39.07C52.6441 39.61 53.3241 39.88 54.1241 39.88ZM64.7741 31.06H66.3341L61.3241 40.06H59.7641L64.7741 31.06ZM54.6641 43H56.2241L51.2141 52H49.6541L54.6641 43ZM61.9241 52.36C61.3041 52.36 60.7241 52.25 60.1841 52.03C59.6441 51.83 59.1741 51.52 58.7741 51.1C58.3941 50.66 58.0941 50.12 57.8741 49.48C57.6541 48.82 57.5441 48.05 57.5441 47.17C57.5441 46.29 57.6541 45.53 57.8741 44.89C58.0941 44.23 58.3941 43.69 58.7741 43.27C59.1741 42.83 59.6341 42.51 60.1541 42.31C60.6941 42.09 61.2741 41.98 61.8941 41.98C62.5141 41.98 63.0841 42.09 63.6041 42.31C64.1241 42.51 64.5741 42.83 64.9541 43.27C65.3541 43.69 65.6641 44.23 65.8841 44.89C66.1041 45.53 66.2141 46.29 66.2141 47.17C66.2141 48.05 66.1041 48.82 65.8841 49.48C65.6641 50.12 65.3641 50.66 64.9841 51.1C64.6041 51.52 64.1541 51.83 63.6341 52.03C63.1141 52.25 62.5441 52.36 61.9241 52.36ZM61.8941 51.16C62.6741 51.16 63.3341 50.89 63.8741 50.35C64.4341 49.79 64.7141 48.94 64.7141 47.8V46.54C64.7141 45.4 64.4341 44.56 63.8741 44.02C63.3341 43.46 62.6741 43.18 61.8941 43.18C61.0941 43.18 60.4141 43.46 59.8541 44.02C59.3141 44.56 59.0441 45.4 59.0441 46.54V47.8C59.0441 48.94 59.3141 49.79 59.8541 50.35C60.4141 50.89 61.0941 51.16 61.8941 51.16Z" fill="#2A39A9"/>
</g>
<defs>
<clipPath id="clip0_176_914">
<rect width="80.79" height="82" fill="white"/>
</clipPath>
</defs>
</svg>
