<svg width="80" height="82" viewBox="0 0 80 82" fill="none" xmlns="http://www.w3.org/2000/svg">
<g clip-path="url(#clip0_176_936)">
<path d="M53.371 1.63852C57.4747 2.7984 61.5784 4.62912 65.3344 7.35012C73.9267 13.5696 78.9244 23.1871 79.7811 35.1683C80.88 50.5163 77.8565 62.3156 70.8101 70.2341C65.7442 75.9269 58.9026 79.7451 51.0243 81.2749C43.2019 82.7984 35.1063 81.9207 27.6129 78.7482C8.82037 70.7796 -0.71556 60.4222 0.041851 48.7859C1.61876 24.4222 14.4885 5.231 32.0642 1.03037C37.6517 -0.305053 45.5238 -0.574646 53.371 1.63225V1.63852Z" fill="#E2E4DF"/>
<path d="M43.9298 40.9969C56.7375 51.116 67.1488 60.4013 73.6241 66.4013C78.5907 58.6834 80.6457 48.2069 79.7144 35.1599C78.8577 23.1787 73.86 13.5612 65.2677 7.34173C61.5055 4.62073 57.408 2.78374 53.3044 1.63014C48.7226 0.3386 44.1409 -0.100271 40 0.018851C40.2173 9.52982 41.043 34.4577 43.9423 40.9969H43.9361H43.9298Z" fill="#D6346F"/>
<path d="M21.2376 40.24C22.7176 40.24 23.8676 39.89 24.6876 39.19C25.5076 38.47 25.9176 37.54 25.9176 36.4V36.01C25.9176 34.81 25.5176 33.89 24.7176 33.25C23.9376 32.59 22.9176 32.26 21.6576 32.26C20.4176 32.26 19.4276 32.52 18.6876 33.04C17.9476 33.54 17.3576 34.21 16.9176 35.05L15.5676 34.09C15.8076 33.65 16.1076 33.23 16.4676 32.83C16.8476 32.41 17.2776 32.04 17.7576 31.72C18.2576 31.4 18.8276 31.15 19.4676 30.97C20.1276 30.79 20.8676 30.7 21.6876 30.7C22.5676 30.7 23.3776 30.82 24.1176 31.06C24.8776 31.3 25.5276 31.65 26.0676 32.11C26.6076 32.55 27.0276 33.1 27.3276 33.76C27.6476 34.4 27.8076 35.13 27.8076 35.95C27.8076 36.65 27.6976 37.28 27.4776 37.84C27.2776 38.4 26.9876 38.88 26.6076 39.28C26.2476 39.68 25.8076 40.02 25.2876 40.3C24.7876 40.56 24.2476 40.76 23.6676 40.9V41.02C24.2876 41.12 24.8776 41.31 25.4376 41.59C25.9976 41.85 26.4776 42.2 26.8776 42.64C27.2976 43.08 27.6276 43.61 27.8676 44.23C28.1076 44.85 28.2276 45.55 28.2276 46.33C28.2276 47.23 28.0676 48.06 27.7476 48.82C27.4276 49.56 26.9676 50.19 26.3676 50.71C25.7676 51.23 25.0476 51.64 24.2076 51.94C23.3676 52.22 22.4276 52.36 21.3876 52.36C20.5476 52.36 19.7876 52.27 19.1076 52.09C18.4276 51.93 17.8176 51.7 17.2776 51.4C16.7376 51.08 16.2576 50.71 15.8376 50.29C15.4176 49.87 15.0476 49.42 14.7276 48.94L16.0776 47.92C16.6576 48.82 17.3576 49.53 18.1776 50.05C18.9976 50.55 20.0676 50.8 21.3876 50.8C22.9276 50.8 24.1376 50.42 25.0176 49.66C25.8976 48.88 26.3376 47.83 26.3376 46.51V46.03C26.3376 44.71 25.9076 43.68 25.0476 42.94C24.2076 42.18 22.9776 41.8 21.3576 41.8H18.7176V40.24H21.2376ZM39.2259 40.24C40.7059 40.24 41.8559 39.89 42.6759 39.19C43.4959 38.47 43.9059 37.54 43.9059 36.4V36.01C43.9059 34.81 43.5059 33.89 42.7059 33.25C41.9259 32.59 40.9059 32.26 39.6459 32.26C38.4059 32.26 37.4159 32.52 36.6759 33.04C35.9359 33.54 35.3459 34.21 34.9059 35.05L33.5559 34.09C33.7959 33.65 34.0959 33.23 34.4559 32.83C34.8359 32.41 35.2659 32.04 35.7459 31.72C36.2459 31.4 36.8159 31.15 37.4559 30.97C38.1159 30.79 38.8559 30.7 39.6759 30.7C40.5559 30.7 41.3659 30.82 42.1059 31.06C42.8659 31.3 43.5159 31.65 44.0559 32.11C44.5959 32.55 45.0159 33.1 45.3159 33.76C45.6359 34.4 45.7959 35.13 45.7959 35.95C45.7959 36.65 45.6859 37.28 45.4659 37.84C45.2659 38.4 44.9759 38.88 44.5959 39.28C44.2359 39.68 43.7959 40.02 43.2759 40.3C42.7759 40.56 42.2359 40.76 41.6559 40.9V41.02C42.2759 41.12 42.8659 41.31 43.4259 41.59C43.9859 41.85 44.4659 42.2 44.8659 42.64C45.2859 43.08 45.6159 43.61 45.8559 44.23C46.0959 44.85 46.2159 45.55 46.2159 46.33C46.2159 47.23 46.0559 48.06 45.7359 48.82C45.4159 49.56 44.9559 50.19 44.3559 50.71C43.7559 51.23 43.0359 51.64 42.1959 51.94C41.3559 52.22 40.4159 52.36 39.3759 52.36C38.5359 52.36 37.7759 52.27 37.0959 52.09C36.4159 51.93 35.8059 51.7 35.2659 51.4C34.7259 51.08 34.2459 50.71 33.8259 50.29C33.4059 49.87 33.0359 49.42 32.7159 48.94L34.0659 47.92C34.6459 48.82 35.3459 49.53 36.1659 50.05C36.9859 50.55 38.0559 50.8 39.3759 50.8C40.9159 50.8 42.1259 50.42 43.0059 49.66C43.8859 48.88 44.3259 47.83 44.3259 46.51V46.03C44.3259 44.71 43.8959 43.68 43.0359 42.94C42.1959 42.18 40.9659 41.8 39.3459 41.8H36.7059V40.24H39.2259ZM54.1241 41.08C53.5041 41.08 52.9241 40.98 52.3841 40.78C51.8641 40.56 51.4041 40.24 51.0041 39.82C50.6241 39.38 50.3241 38.84 50.1041 38.2C49.8841 37.54 49.7741 36.77 49.7741 35.89C49.7741 35.01 49.8841 34.25 50.1041 33.61C50.3241 32.95 50.6241 32.41 51.0041 31.99C51.4041 31.55 51.8641 31.23 52.3841 31.03C52.9241 30.81 53.5041 30.7 54.1241 30.7C54.7441 30.7 55.3141 30.81 55.8341 31.03C56.3541 31.23 56.8041 31.55 57.1841 31.99C57.5841 32.41 57.8941 32.95 58.1141 33.61C58.3341 34.25 58.4441 35.01 58.4441 35.89C58.4441 36.77 58.3341 37.54 58.1141 38.2C57.8941 38.84 57.5841 39.38 57.1841 39.82C56.8041 40.24 56.3541 40.56 55.8341 40.78C55.3141 40.98 54.7441 41.08 54.1241 41.08ZM54.1241 39.88C54.9041 39.88 55.5641 39.61 56.1041 39.07C56.6641 38.51 56.9441 37.66 56.9441 36.52V35.26C56.9441 34.12 56.6641 33.28 56.1041 32.74C55.5641 32.18 54.9041 31.9 54.1241 31.9C53.3241 31.9 52.6441 32.18 52.0841 32.74C51.5441 33.28 51.2741 34.12 51.2741 35.26V36.52C51.2741 37.66 51.5441 38.51 52.0841 39.07C52.6441 39.61 53.3241 39.88 54.1241 39.88ZM64.7741 31.06H66.3341L61.3241 40.06H59.7641L64.7741 31.06ZM54.6641 43H56.2241L51.2141 52H49.6541L54.6641 43ZM61.9241 52.36C61.3041 52.36 60.7241 52.25 60.1841 52.03C59.6441 51.83 59.1741 51.52 58.7741 51.1C58.3941 50.66 58.0941 50.12 57.8741 49.48C57.6541 48.82 57.5441 48.05 57.5441 47.17C57.5441 46.29 57.6541 45.53 57.8741 44.89C58.0941 44.23 58.3941 43.69 58.7741 43.27C59.1741 42.83 59.6341 42.51 60.1541 42.31C60.6941 42.09 61.2741 41.98 61.8941 41.98C62.5141 41.98 63.0841 42.09 63.6041 42.31C64.1241 42.51 64.5741 42.83 64.9541 43.27C65.3541 43.69 65.6641 44.23 65.8841 44.89C66.1041 45.53 66.2141 46.29 66.2141 47.17C66.2141 48.05 66.1041 48.82 65.8841 49.48C65.6641 50.12 65.3641 50.66 64.9841 51.1C64.6041 51.52 64.1541 51.83 63.6341 52.03C63.1141 52.25 62.5441 52.36 61.9241 52.36ZM61.8941 51.16C62.6741 51.16 63.3341 50.89 63.8741 50.35C64.4341 49.79 64.7141 48.94 64.7141 47.8V46.54C64.7141 45.4 64.4341 44.56 63.8741 44.02C63.3341 43.46 62.6741 43.18 61.8941 43.18C61.0941 43.18 60.4141 43.46 59.8541 44.02C59.3141 44.56 59.0441 45.4 59.0441 46.54V47.8C59.0441 48.94 59.3141 49.79 59.8541 50.35C60.4141 50.89 61.0941 51.16 61.8941 51.16Z" fill="#2A39A9"/>
</g>
<defs>
<clipPath id="clip0_176_936">
<rect width="80" height="82" fill="white"/>
</clipPath>
</defs>
</svg>
