<svg width="80" height="83" viewBox="0 0 80 83" fill="none" xmlns="http://www.w3.org/2000/svg">
<g clip-path="url(#clip0_11_249)">
<path d="M53.371 2.13852C57.4747 3.2984 61.5784 5.12912 65.3344 7.85012C73.9267 14.0696 78.9244 23.6871 79.7811 35.6683C80.88 51.0163 77.8565 62.8156 70.8101 70.7341C65.7442 76.4269 58.9026 80.2451 51.0243 81.7749C43.2019 83.2984 35.1063 82.4207 27.6129 79.2482C8.82037 71.2796 -0.71556 60.9222 0.041851 49.2859C1.61876 24.9222 14.4885 5.731 32.0642 1.53037C37.6517 0.194947 45.5238 -0.0746456 53.371 2.13225V2.13852Z" fill="#E2E4DF"/>
<path d="M43.9298 41.4968C56.7375 51.6159 67.1488 60.9012 73.6241 66.9012C78.5907 59.1833 80.6457 48.7068 79.7144 35.6598C78.8577 23.6786 73.86 14.061 65.2677 7.84161C61.5055 5.12061 57.408 3.28362 53.3044 2.13001C48.7226 0.838478 44.1409 0.399607 40 0.518729C40.2173 10.0297 41.043 34.9576 43.9423 41.4968H43.9361H43.9298Z" fill="#D6346F"/>
<path d="M21.2376 40.74C22.7176 40.74 23.8676 40.39 24.6876 39.69C25.5076 38.97 25.9176 38.04 25.9176 36.9V36.51C25.9176 35.31 25.5176 34.39 24.7176 33.75C23.9376 33.09 22.9176 32.76 21.6576 32.76C20.4176 32.76 19.4276 33.02 18.6876 33.54C17.9476 34.04 17.3576 34.71 16.9176 35.55L15.5676 34.59C15.8076 34.15 16.1076 33.73 16.4676 33.33C16.8476 32.91 17.2776 32.54 17.7576 32.22C18.2576 31.9 18.8276 31.65 19.4676 31.47C20.1276 31.29 20.8676 31.2 21.6876 31.2C22.5676 31.2 23.3776 31.32 24.1176 31.56C24.8776 31.8 25.5276 32.15 26.0676 32.61C26.6076 33.05 27.0276 33.6 27.3276 34.26C27.6476 34.9 27.8076 35.63 27.8076 36.45C27.8076 37.15 27.6976 37.78 27.4776 38.34C27.2776 38.9 26.9876 39.38 26.6076 39.78C26.2476 40.18 25.8076 40.52 25.2876 40.8C24.7876 41.06 24.2476 41.26 23.6676 41.4V41.52C24.2876 41.62 24.8776 41.81 25.4376 42.09C25.9976 42.35 26.4776 42.7 26.8776 43.14C27.2976 43.58 27.6276 44.11 27.8676 44.73C28.1076 45.35 28.2276 46.05 28.2276 46.83C28.2276 47.73 28.0676 48.56 27.7476 49.32C27.4276 50.06 26.9676 50.69 26.3676 51.21C25.7676 51.73 25.0476 52.14 24.2076 52.44C23.3676 52.72 22.4276 52.86 21.3876 52.86C20.5476 52.86 19.7876 52.77 19.1076 52.59C18.4276 52.43 17.8176 52.2 17.2776 51.9C16.7376 51.58 16.2576 51.21 15.8376 50.79C15.4176 50.37 15.0476 49.92 14.7276 49.44L16.0776 48.42C16.6576 49.32 17.3576 50.03 18.1776 50.55C18.9976 51.05 20.0676 51.3 21.3876 51.3C22.9276 51.3 24.1376 50.92 25.0176 50.16C25.8976 49.38 26.3376 48.33 26.3376 47.01V46.53C26.3376 45.21 25.9076 44.18 25.0476 43.44C24.2076 42.68 22.9776 42.3 21.3576 42.3H18.7176V40.74H21.2376ZM39.2259 40.74C40.7059 40.74 41.8559 40.39 42.6759 39.69C43.4959 38.97 43.9059 38.04 43.9059 36.9V36.51C43.9059 35.31 43.5059 34.39 42.7059 33.75C41.9259 33.09 40.9059 32.76 39.6459 32.76C38.4059 32.76 37.4159 33.02 36.6759 33.54C35.9359 34.04 35.3459 34.71 34.9059 35.55L33.5559 34.59C33.7959 34.15 34.0959 33.73 34.4559 33.33C34.8359 32.91 35.2659 32.54 35.7459 32.22C36.2459 31.9 36.8159 31.65 37.4559 31.47C38.1159 31.29 38.8559 31.2 39.6759 31.2C40.5559 31.2 41.3659 31.32 42.1059 31.56C42.8659 31.8 43.5159 32.15 44.0559 32.61C44.5959 33.05 45.0159 33.6 45.3159 34.26C45.6359 34.9 45.7959 35.63 45.7959 36.45C45.7959 37.15 45.6859 37.78 45.4659 38.34C45.2659 38.9 44.9759 39.38 44.5959 39.78C44.2359 40.18 43.7959 40.52 43.2759 40.8C42.7759 41.06 42.2359 41.26 41.6559 41.4V41.52C42.2759 41.62 42.8659 41.81 43.4259 42.09C43.9859 42.35 44.4659 42.7 44.8659 43.14C45.2859 43.58 45.6159 44.11 45.8559 44.73C46.0959 45.35 46.2159 46.05 46.2159 46.83C46.2159 47.73 46.0559 48.56 45.7359 49.32C45.4159 50.06 44.9559 50.69 44.3559 51.21C43.7559 51.73 43.0359 52.14 42.1959 52.44C41.3559 52.72 40.4159 52.86 39.3759 52.86C38.5359 52.86 37.7759 52.77 37.0959 52.59C36.4159 52.43 35.8059 52.2 35.2659 51.9C34.7259 51.58 34.2459 51.21 33.8259 50.79C33.4059 50.37 33.0359 49.92 32.7159 49.44L34.0659 48.42C34.6459 49.32 35.3459 50.03 36.1659 50.55C36.9859 51.05 38.0559 51.3 39.3759 51.3C40.9159 51.3 42.1259 50.92 43.0059 50.16C43.8859 49.38 44.3259 48.33 44.3259 47.01V46.53C44.3259 45.21 43.8959 44.18 43.0359 43.44C42.1959 42.68 40.9659 42.3 39.3459 42.3H36.7059V40.74H39.2259ZM54.1241 41.58C53.5041 41.58 52.9241 41.48 52.3841 41.28C51.8641 41.06 51.4041 40.74 51.0041 40.32C50.6241 39.88 50.3241 39.34 50.1041 38.7C49.8841 38.04 49.7741 37.27 49.7741 36.39C49.7741 35.51 49.8841 34.75 50.1041 34.11C50.3241 33.45 50.6241 32.91 51.0041 32.49C51.4041 32.05 51.8641 31.73 52.3841 31.53C52.9241 31.31 53.5041 31.2 54.1241 31.2C54.7441 31.2 55.3141 31.31 55.8341 31.53C56.3541 31.73 56.8041 32.05 57.1841 32.49C57.5841 32.91 57.8941 33.45 58.1141 34.11C58.3341 34.75 58.4441 35.51 58.4441 36.39C58.4441 37.27 58.3341 38.04 58.1141 38.7C57.8941 39.34 57.5841 39.88 57.1841 40.32C56.8041 40.74 56.3541 41.06 55.8341 41.28C55.3141 41.48 54.7441 41.58 54.1241 41.58ZM54.1241 40.38C54.9041 40.38 55.5641 40.11 56.1041 39.57C56.6641 39.01 56.9441 38.16 56.9441 37.02V35.76C56.9441 34.62 56.6641 33.78 56.1041 33.24C55.5641 32.68 54.9041 32.4 54.1241 32.4C53.3241 32.4 52.6441 32.68 52.0841 33.24C51.5441 33.78 51.2741 34.62 51.2741 35.76V37.02C51.2741 38.16 51.5441 39.01 52.0841 39.57C52.6441 40.11 53.3241 40.38 54.1241 40.38ZM64.7741 31.56H66.3341L61.3241 40.56H59.7641L64.7741 31.56ZM54.6641 43.5H56.2241L51.2141 52.5H49.6541L54.6641 43.5ZM61.9241 52.86C61.3041 52.86 60.7241 52.75 60.1841 52.53C59.6441 52.33 59.1741 52.02 58.7741 51.6C58.3941 51.16 58.0941 50.62 57.8741 49.98C57.6541 49.32 57.5441 48.55 57.5441 47.67C57.5441 46.79 57.6541 46.03 57.8741 45.39C58.0941 44.73 58.3941 44.19 58.7741 43.77C59.1741 43.33 59.6341 43.01 60.1541 42.81C60.6941 42.59 61.2741 42.48 61.8941 42.48C62.5141 42.48 63.0841 42.59 63.6041 42.81C64.1241 43.01 64.5741 43.33 64.9541 43.77C65.3541 44.19 65.6641 44.73 65.8841 45.39C66.1041 46.03 66.2141 46.79 66.2141 47.67C66.2141 48.55 66.1041 49.32 65.8841 49.98C65.6641 50.62 65.3641 51.16 64.9841 51.6C64.6041 52.02 64.1541 52.33 63.6341 52.53C63.1141 52.75 62.5441 52.86 61.9241 52.86ZM61.8941 51.66C62.6741 51.66 63.3341 51.39 63.8741 50.85C64.4341 50.29 64.7141 49.44 64.7141 48.3V47.04C64.7141 45.9 64.4341 45.06 63.8741 44.52C63.3341 43.96 62.6741 43.68 61.8941 43.68C61.0941 43.68 60.4141 43.96 59.8541 44.52C59.3141 45.06 59.0441 45.9 59.0441 47.04V48.3C59.0441 49.44 59.3141 50.29 59.8541 50.85C60.4141 51.39 61.0941 51.66 61.8941 51.66Z" fill="#2A39A9"/>
</g>
<defs>
<clipPath id="clip0_11_249">
<rect width="80" height="82" fill="white" transform="translate(0 0.5)"/>
</clipPath>
</defs>
</svg>
