<svg width="82" height="82" viewBox="0 0 82 82" fill="none" xmlns="http://www.w3.org/2000/svg">
<g clip-path="url(#clip0_11_674)">
<path d="M54.5055 1.63657C58.6497 2.79644 62.7939 4.62716 66.587 7.34817C75.2641 13.5676 80.3111 23.1852 81.1763 35.1663C82.286 50.5143 79.2328 62.3137 72.1168 70.2322C67.0008 75.925 60.0917 79.7432 52.1356 81.2729C44.2359 82.7964 36.0603 81.9187 28.4929 78.7463C9.51489 70.7776 -0.115204 60.4203 0.649686 48.7839C2.24216 24.4203 15.239 5.22904 32.9882 1.02842C38.6309 -0.307006 46.5807 -0.576599 54.5055 1.6303V1.63657Z" fill="#E2E4DF"/>
<path d="M81.1757 35.1601C80.3105 23.1789 75.2635 13.5614 66.5863 7.34192C62.787 4.62092 58.649 2.78393 54.5048 1.63032C49.8779 0.345056 45.2509 -0.100085 41.0691 0.0190368C41.2885 9.53001 42.1224 34.4579 45.0503 40.9971C45.0503 40.9971 25.4766 46.6585 21.0315 44.6836C18.3105 43.4736 8.36064 43.8999 1.06284 44.4203C0.88729 45.8498 0.743089 47.3043 0.649045 48.7777C-0.109575 60.414 9.51425 70.7777 28.486 78.74C36.0534 81.9187 44.229 82.7902 52.1287 81.2667C60.0911 79.7369 67.0001 75.9187 72.1099 70.2259C79.2321 62.3012 82.2791 50.5018 81.1694 35.1601H81.1757Z" fill="#D6346F"/>
<path d="M22.653 52.36C21.533 52.36 20.543 52.18 19.683 51.82C18.843 51.44 18.133 50.92 17.553 50.26C16.973 49.58 16.533 48.77 16.233 47.83C15.953 46.87 15.813 45.82 15.813 44.68C15.813 43.06 16.033 41.56 16.473 40.18C16.933 38.78 17.523 37.51 18.243 36.37C18.983 35.23 19.823 34.22 20.763 33.34C21.703 32.44 22.663 31.68 23.643 31.06H25.983C24.803 31.86 23.753 32.66 22.833 33.46C21.933 34.26 21.143 35.11 20.463 36.01C19.783 36.89 19.213 37.84 18.753 38.86C18.313 39.88 17.963 41 17.703 42.22L17.823 42.25C18.343 41.31 19.033 40.57 19.893 40.03C20.753 39.47 21.823 39.19 23.103 39.19C24.043 39.19 24.893 39.34 25.653 39.64C26.433 39.94 27.103 40.37 27.663 40.93C28.223 41.47 28.653 42.14 28.953 42.94C29.253 43.72 29.403 44.6 29.403 45.58C29.403 46.6 29.243 47.53 28.923 48.37C28.603 49.19 28.153 49.9 27.573 50.5C26.993 51.08 26.283 51.54 25.443 51.88C24.603 52.2 23.673 52.36 22.653 52.36ZM22.623 50.83C24.183 50.83 25.393 50.4 26.253 49.54C27.133 48.66 27.573 47.49 27.573 46.03V45.49C27.573 44.03 27.133 42.87 26.253 42.01C25.393 41.13 24.183 40.69 22.623 40.69C21.043 40.69 19.813 41.13 18.933 42.01C18.073 42.87 17.643 44.03 17.643 45.49V46.03C17.643 47.49 18.073 48.66 18.933 49.54C19.813 50.4 21.043 50.83 22.623 50.83ZM40.6413 52.36C39.5213 52.36 38.5313 52.18 37.6713 51.82C36.8313 51.44 36.1213 50.92 35.5413 50.26C34.9613 49.58 34.5213 48.77 34.2213 47.83C33.9413 46.87 33.8013 45.82 33.8013 44.68C33.8013 43.06 34.0213 41.56 34.4613 40.18C34.9213 38.78 35.5113 37.51 36.2313 36.37C36.9713 35.23 37.8113 34.22 38.7513 33.34C39.6913 32.44 40.6513 31.68 41.6313 31.06H43.9713C42.7913 31.86 41.7413 32.66 40.8213 33.46C39.9213 34.26 39.1313 35.11 38.4513 36.01C37.7713 36.89 37.2013 37.84 36.7413 38.86C36.3013 39.88 35.9513 41 35.6913 42.22L35.8113 42.25C36.3313 41.31 37.0213 40.57 37.8813 40.03C38.7413 39.47 39.8113 39.19 41.0913 39.19C42.0313 39.19 42.8813 39.34 43.6413 39.64C44.4213 39.94 45.0913 40.37 45.6513 40.93C46.2113 41.47 46.6413 42.14 46.9413 42.94C47.2413 43.72 47.3913 44.6 47.3913 45.58C47.3913 46.6 47.2313 47.53 46.9113 48.37C46.5913 49.19 46.1413 49.9 45.5613 50.5C44.9813 51.08 44.2713 51.54 43.4313 51.88C42.5913 52.2 41.6613 52.36 40.6413 52.36ZM40.6113 50.83C42.1713 50.83 43.3813 50.4 44.2413 49.54C45.1213 48.66 45.5613 47.49 45.5613 46.03V45.49C45.5613 44.03 45.1213 42.87 44.2413 42.01C43.3813 41.13 42.1713 40.69 40.6113 40.69C39.0313 40.69 37.8013 41.13 36.9213 42.01C36.0613 42.87 35.6313 44.03 35.6313 45.49V46.03C35.6313 47.49 36.0613 48.66 36.9213 49.54C37.8013 50.4 39.0313 50.83 40.6113 50.83ZM54.7296 41.08C54.1096 41.08 53.5296 40.98 52.9896 40.78C52.4696 40.56 52.0096 40.24 51.6096 39.82C51.2296 39.38 50.9296 38.84 50.7096 38.2C50.4896 37.54 50.3796 36.77 50.3796 35.89C50.3796 35.01 50.4896 34.25 50.7096 33.61C50.9296 32.95 51.2296 32.41 51.6096 31.99C52.0096 31.55 52.4696 31.23 52.9896 31.03C53.5296 30.81 54.1096 30.7 54.7296 30.7C55.3496 30.7 55.9196 30.81 56.4396 31.03C56.9596 31.23 57.4096 31.55 57.7896 31.99C58.1896 32.41 58.4996 32.95 58.7196 33.61C58.9396 34.25 59.0496 35.01 59.0496 35.89C59.0496 36.77 58.9396 37.54 58.7196 38.2C58.4996 38.84 58.1896 39.38 57.7896 39.82C57.4096 40.24 56.9596 40.56 56.4396 40.78C55.9196 40.98 55.3496 41.08 54.7296 41.08ZM54.7296 39.88C55.5096 39.88 56.1696 39.61 56.7096 39.07C57.2696 38.51 57.5496 37.66 57.5496 36.52V35.26C57.5496 34.12 57.2696 33.28 56.7096 32.74C56.1696 32.18 55.5096 31.9 54.7296 31.9C53.9296 31.9 53.2496 32.18 52.6896 32.74C52.1496 33.28 51.8796 34.12 51.8796 35.26V36.52C51.8796 37.66 52.1496 38.51 52.6896 39.07C53.2496 39.61 53.9296 39.88 54.7296 39.88ZM65.3796 31.06H66.9396L61.9296 40.06H60.3696L65.3796 31.06ZM55.2696 43H56.8296L51.8196 52H50.2596L55.2696 43ZM62.5296 52.36C61.9096 52.36 61.3296 52.25 60.7896 52.03C60.2496 51.83 59.7796 51.52 59.3796 51.1C58.9996 50.66 58.6996 50.12 58.4796 49.48C58.2596 48.82 58.1496 48.05 58.1496 47.17C58.1496 46.29 58.2596 45.53 58.4796 44.89C58.6996 44.23 58.9996 43.69 59.3796 43.27C59.7796 42.83 60.2396 42.51 60.7596 42.31C61.2996 42.09 61.8796 41.98 62.4996 41.98C63.1196 41.98 63.6896 42.09 64.2096 42.31C64.7296 42.51 65.1796 42.83 65.5596 43.27C65.9596 43.69 66.2696 44.23 66.4896 44.89C66.7096 45.53 66.8196 46.29 66.8196 47.17C66.8196 48.05 66.7096 48.82 66.4896 49.48C66.2696 50.12 65.9696 50.66 65.5896 51.1C65.2096 51.52 64.7596 51.83 64.2396 52.03C63.7196 52.25 63.1496 52.36 62.5296 52.36ZM62.4996 51.16C63.2796 51.16 63.9396 50.89 64.4796 50.35C65.0396 49.79 65.3196 48.94 65.3196 47.8V46.54C65.3196 45.4 65.0396 44.56 64.4796 44.02C63.9396 43.46 63.2796 43.18 62.4996 43.18C61.6996 43.18 61.0196 43.46 60.4596 44.02C59.9196 44.56 59.6496 45.4 59.6496 46.54V47.8C59.6496 48.94 59.9196 49.79 60.4596 50.35C61.0196 50.89 61.6996 51.16 62.4996 51.16Z" fill="#2A39A9"/>
</g>
<defs>
<clipPath id="clip0_11_674">
<rect width="80.79" height="82" fill="white" transform="translate(0.605469)"/>
</clipPath>
</defs>
</svg>
