<svg width="81" height="82" viewBox="0 0 81 82" fill="none" xmlns="http://www.w3.org/2000/svg">
<g clip-path="url(#clip0_176_913)">
<path d="M53.8997 1.63632C58.0439 2.7962 62.1881 4.62692 65.9812 7.34792C74.6583 13.5674 79.7054 23.1849 80.5706 35.1661C81.6803 50.5141 78.627 62.3134 71.511 70.2319C66.395 75.9247 59.4859 79.7429 51.5298 81.2727C43.6301 82.7962 35.4546 81.9185 27.8872 78.746C8.90911 70.7774 -0.720978 60.42 0.0439122 48.7837C1.63639 24.42 14.6333 5.2288 32.3825 1.02817C38.0251 -0.30725 45.975 -0.576843 53.8997 1.63005V1.63632Z" fill="#E2E4DF"/>
<path d="M80.5705 35.1599C79.7053 23.1787 74.6583 13.5611 65.9812 7.34168C62.1818 4.62067 58.0439 2.78368 53.8997 1.63008C49.2727 0.344811 44.6458 -0.10033 40.464 0.0187927C40.6834 9.52976 41.5172 34.4577 44.4451 40.9969C28.8381 45.511 15.8308 60.0564 5.5 63.5C11 70.5 13 72 27.8809 78.7398C35.4483 81.9185 43.6238 82.79 51.5235 81.2664C59.4859 79.7367 66.395 75.9185 71.5047 70.2257C78.627 62.3009 81.674 50.5016 80.5643 35.1599H80.5705Z" fill="#D6346F"/>
<path d="M22.0476 52.36C20.9276 52.36 19.9376 52.18 19.0776 51.82C18.2376 51.44 17.5276 50.92 16.9476 50.26C16.3676 49.58 15.9276 48.77 15.6276 47.83C15.3476 46.87 15.2076 45.82 15.2076 44.68C15.2076 43.06 15.4276 41.56 15.8676 40.18C16.3276 38.78 16.9176 37.51 17.6376 36.37C18.3776 35.23 19.2176 34.22 20.1576 33.34C21.0976 32.44 22.0576 31.68 23.0376 31.06H25.3776C24.1976 31.86 23.1476 32.66 22.2276 33.46C21.3276 34.26 20.5376 35.11 19.8576 36.01C19.1776 36.89 18.6076 37.84 18.1476 38.86C17.7076 39.88 17.3576 41 17.0976 42.22L17.2176 42.25C17.7376 41.31 18.4276 40.57 19.2876 40.03C20.1476 39.47 21.2176 39.19 22.4976 39.19C23.4376 39.19 24.2876 39.34 25.0476 39.64C25.8276 39.94 26.4976 40.37 27.0576 40.93C27.6176 41.47 28.0476 42.14 28.3476 42.94C28.6476 43.72 28.7976 44.6 28.7976 45.58C28.7976 46.6 28.6376 47.53 28.3176 48.37C27.9976 49.19 27.5476 49.9 26.9676 50.5C26.3876 51.08 25.6776 51.54 24.8376 51.88C23.9976 52.2 23.0676 52.36 22.0476 52.36ZM22.0176 50.83C23.5776 50.83 24.7876 50.4 25.6476 49.54C26.5276 48.66 26.9676 47.49 26.9676 46.03V45.49C26.9676 44.03 26.5276 42.87 25.6476 42.01C24.7876 41.13 23.5776 40.69 22.0176 40.69C20.4376 40.69 19.2076 41.13 18.3276 42.01C17.4676 42.87 17.0376 44.03 17.0376 45.49V46.03C17.0376 47.49 17.4676 48.66 18.3276 49.54C19.2076 50.4 20.4376 50.83 22.0176 50.83ZM40.0359 52.36C38.9159 52.36 37.9259 52.18 37.0659 51.82C36.2259 51.44 35.5159 50.92 34.9359 50.26C34.3559 49.58 33.9159 48.77 33.6159 47.83C33.3359 46.87 33.1959 45.82 33.1959 44.68C33.1959 43.06 33.4159 41.56 33.8559 40.18C34.3159 38.78 34.9059 37.51 35.6259 36.37C36.3659 35.23 37.2059 34.22 38.1459 33.34C39.0859 32.44 40.0459 31.68 41.0259 31.06H43.3659C42.1859 31.86 41.1359 32.66 40.2159 33.46C39.3159 34.26 38.5259 35.11 37.8459 36.01C37.1659 36.89 36.5959 37.84 36.1359 38.86C35.6959 39.88 35.3459 41 35.0859 42.22L35.2059 42.25C35.7259 41.31 36.4159 40.57 37.2759 40.03C38.1359 39.47 39.2059 39.19 40.4859 39.19C41.4259 39.19 42.2759 39.34 43.0359 39.64C43.8159 39.94 44.4859 40.37 45.0459 40.93C45.6059 41.47 46.0359 42.14 46.3359 42.94C46.6359 43.72 46.7859 44.6 46.7859 45.58C46.7859 46.6 46.6259 47.53 46.3059 48.37C45.9859 49.19 45.5359 49.9 44.9559 50.5C44.3759 51.08 43.6659 51.54 42.8259 51.88C41.9859 52.2 41.0559 52.36 40.0359 52.36ZM40.0059 50.83C41.5659 50.83 42.7759 50.4 43.6359 49.54C44.5159 48.66 44.9559 47.49 44.9559 46.03V45.49C44.9559 44.03 44.5159 42.87 43.6359 42.01C42.7759 41.13 41.5659 40.69 40.0059 40.69C38.4259 40.69 37.1959 41.13 36.3159 42.01C35.4559 42.87 35.0259 44.03 35.0259 45.49V46.03C35.0259 47.49 35.4559 48.66 36.3159 49.54C37.1959 50.4 38.4259 50.83 40.0059 50.83ZM54.1241 41.08C53.5041 41.08 52.9241 40.98 52.3841 40.78C51.8641 40.56 51.4041 40.24 51.0041 39.82C50.6241 39.38 50.3241 38.84 50.1041 38.2C49.8841 37.54 49.7741 36.77 49.7741 35.89C49.7741 35.01 49.8841 34.25 50.1041 33.61C50.3241 32.95 50.6241 32.41 51.0041 31.99C51.4041 31.55 51.8641 31.23 52.3841 31.03C52.9241 30.81 53.5041 30.7 54.1241 30.7C54.7441 30.7 55.3141 30.81 55.8341 31.03C56.3541 31.23 56.8041 31.55 57.1841 31.99C57.5841 32.41 57.8941 32.95 58.1141 33.61C58.3341 34.25 58.4441 35.01 58.4441 35.89C58.4441 36.77 58.3341 37.54 58.1141 38.2C57.8941 38.84 57.5841 39.38 57.1841 39.82C56.8041 40.24 56.3541 40.56 55.8341 40.78C55.3141 40.98 54.7441 41.08 54.1241 41.08ZM54.1241 39.88C54.9041 39.88 55.5641 39.61 56.1041 39.07C56.6641 38.51 56.9441 37.66 56.9441 36.52V35.26C56.9441 34.12 56.6641 33.28 56.1041 32.74C55.5641 32.18 54.9041 31.9 54.1241 31.9C53.3241 31.9 52.6441 32.18 52.0841 32.74C51.5441 33.28 51.2741 34.12 51.2741 35.26V36.52C51.2741 37.66 51.5441 38.51 52.0841 39.07C52.6441 39.61 53.3241 39.88 54.1241 39.88ZM64.7741 31.06H66.3341L61.3241 40.06H59.7641L64.7741 31.06ZM54.6641 43H56.2241L51.2141 52H49.6541L54.6641 43ZM61.9241 52.36C61.3041 52.36 60.7241 52.25 60.1841 52.03C59.6441 51.83 59.1741 51.52 58.7741 51.1C58.3941 50.66 58.0941 50.12 57.8741 49.48C57.6541 48.82 57.5441 48.05 57.5441 47.17C57.5441 46.29 57.6541 45.53 57.8741 44.89C58.0941 44.23 58.3941 43.69 58.7741 43.27C59.1741 42.83 59.6341 42.51 60.1541 42.31C60.6941 42.09 61.2741 41.98 61.8941 41.98C62.5141 41.98 63.0841 42.09 63.6041 42.31C64.1241 42.51 64.5741 42.83 64.9541 43.27C65.3541 43.69 65.6641 44.23 65.8841 44.89C66.1041 45.53 66.2141 46.29 66.2141 47.17C66.2141 48.05 66.1041 48.82 65.8841 49.48C65.6641 50.12 65.3641 50.66 64.9841 51.1C64.6041 51.52 64.1541 51.83 63.6341 52.03C63.1141 52.25 62.5441 52.36 61.9241 52.36ZM61.8941 51.16C62.6741 51.16 63.3341 50.89 63.8741 50.35C64.4341 49.79 64.7141 48.94 64.7141 47.8V46.54C64.7141 45.4 64.4341 44.56 63.8741 44.02C63.3341 43.46 62.6741 43.18 61.8941 43.18C61.0941 43.18 60.4141 43.46 59.8541 44.02C59.3141 44.56 59.0441 45.4 59.0441 46.54V47.8C59.0441 48.94 59.3141 49.79 59.8541 50.35C60.4141 50.89 61.0941 51.16 61.8941 51.16Z" fill="#2A39A9"/>
</g>
<defs>
<clipPath id="clip0_176_913">
<rect width="80.79" height="82" fill="white"/>
</clipPath>
</defs>
</svg>
