<svg width="161" height="163" viewBox="0 0 161 163" fill="none" xmlns="http://www.w3.org/2000/svg">
<path d="M96.0708 19.4926C103.457 21.5577 110.844 24.8173 117.605 29.662C133.071 40.7356 142.067 57.8596 143.609 79.1919C145.587 106.519 140.145 127.527 127.461 141.626C118.342 151.762 106.028 158.56 91.8467 161.284C77.7663 163.997 63.1942 162.434 49.7061 156.785C15.8796 142.597 -1.28508 124.156 0.0782615 103.438C2.91669 60.0587 26.0823 25.8889 57.7185 18.4098C67.7759 16.0321 81.9457 15.552 96.0708 19.4814V19.4926Z" fill="#D6346F"/>
<path d="M26.7272 104.579V101.659H34.7272V79.1391H34.4472L27.4072 85.6991L25.4472 83.5791L32.8472 76.6591H38.0872V101.659H45.4472V104.579H26.7272ZM59.3116 105.059C57.6049 105.059 56.1383 104.739 54.9116 104.099C53.6849 103.432 52.6716 102.486 51.8716 101.259C51.0716 100.032 50.4849 98.5258 50.1116 96.7391C49.7383 94.9524 49.5516 92.9124 49.5516 90.6191C49.5516 88.3524 49.7383 86.3258 50.1116 84.5391C50.4849 82.7258 51.0716 81.2058 51.8716 79.9791C52.6716 78.7524 53.6849 77.8191 54.9116 77.1791C56.1383 76.5124 57.6049 76.1791 59.3116 76.1791C61.0183 76.1791 62.4849 76.5124 63.7116 77.1791C64.9383 77.8191 65.9516 78.7524 66.7516 79.9791C67.5516 81.2058 68.1383 82.7258 68.5116 84.5391C68.8849 86.3258 69.0716 88.3524 69.0716 90.6191C69.0716 92.9124 68.8849 94.9524 68.5116 96.7391C68.1383 98.5258 67.5516 100.032 66.7516 101.259C65.9516 102.486 64.9383 103.432 63.7116 104.099C62.4849 104.739 61.0183 105.059 59.3116 105.059ZM59.3116 102.139C60.4316 102.139 61.3916 101.926 62.1916 101.499C62.9916 101.046 63.6316 100.419 64.1116 99.6191C64.6183 98.8191 64.9916 97.8591 65.2316 96.7391C65.4716 95.5924 65.5916 94.3124 65.5916 92.8991V88.3391C65.5916 86.9524 65.4716 85.6858 65.2316 84.5391C64.9916 83.3924 64.6183 82.4191 64.1116 81.6191C63.6316 80.8191 62.9916 80.2058 62.1916 79.7791C61.3916 79.3258 60.4316 79.0991 59.3116 79.0991C58.1916 79.0991 57.2316 79.3258 56.4316 79.7791C55.6316 80.2058 54.9783 80.8191 54.4716 81.6191C53.9916 82.4191 53.6316 83.3924 53.3916 84.5391C53.1516 85.6858 53.0316 86.9524 53.0316 88.3391V92.8991C53.0316 94.3124 53.1516 95.5924 53.3916 96.7391C53.6316 97.8591 53.9916 98.8191 54.4716 99.6191C54.9783 100.419 55.6316 101.046 56.4316 101.499C57.2316 101.926 58.1916 102.139 59.3116 102.139ZM59.3116 92.9791C58.3783 92.9791 57.7249 92.7924 57.3516 92.4191C57.0049 92.0458 56.8316 91.5924 56.8316 91.0591V90.1791C56.8316 89.6458 57.0049 89.1924 57.3516 88.8191C57.7249 88.4458 58.3783 88.2591 59.3116 88.2591C60.2449 88.2591 60.8849 88.4458 61.2316 88.8191C61.6049 89.1924 61.7916 89.6458 61.7916 90.1791V91.0591C61.7916 91.5924 61.6049 92.0458 61.2316 92.4191C60.8849 92.7924 60.2449 92.9791 59.3116 92.9791ZM83.296 105.059C81.5893 105.059 80.1226 104.739 78.896 104.099C77.6693 103.432 76.656 102.486 75.856 101.259C75.056 100.032 74.4693 98.5258 74.096 96.7391C73.7226 94.9524 73.536 92.9124 73.536 90.6191C73.536 88.3524 73.7226 86.3258 74.096 84.5391C74.4693 82.7258 75.056 81.2058 75.856 79.9791C76.656 78.7524 77.6693 77.8191 78.896 77.1791C80.1226 76.5124 81.5893 76.1791 83.296 76.1791C85.0026 76.1791 86.4693 76.5124 87.696 77.1791C88.9227 77.8191 89.936 78.7524 90.736 79.9791C91.536 81.2058 92.1227 82.7258 92.496 84.5391C92.8693 86.3258 93.056 88.3524 93.056 90.6191C93.056 92.9124 92.8693 94.9524 92.496 96.7391C92.1227 98.5258 91.536 100.032 90.736 101.259C89.936 102.486 88.9227 103.432 87.696 104.099C86.4693 104.739 85.0026 105.059 83.296 105.059ZM83.296 102.139C84.416 102.139 85.376 101.926 86.176 101.499C86.976 101.046 87.616 100.419 88.096 99.6191C88.6026 98.8191 88.976 97.8591 89.216 96.7391C89.456 95.5924 89.576 94.3124 89.576 92.8991V88.3391C89.576 86.9524 89.456 85.6858 89.216 84.5391C88.976 83.3924 88.6026 82.4191 88.096 81.6191C87.616 80.8191 86.976 80.2058 86.176 79.7791C85.376 79.3258 84.416 79.0991 83.296 79.0991C82.176 79.0991 81.216 79.3258 80.416 79.7791C79.616 80.2058 78.9626 80.8191 78.456 81.6191C77.976 82.4191 77.616 83.3924 77.376 84.5391C77.136 85.6858 77.016 86.9524 77.016 88.3391V92.8991C77.016 94.3124 77.136 95.5924 77.376 96.7391C77.616 97.8591 77.976 98.8191 78.456 99.6191C78.9626 100.419 79.616 101.046 80.416 101.499C81.216 101.926 82.176 102.139 83.296 102.139ZM83.296 92.9791C82.3626 92.9791 81.7093 92.7924 81.336 92.4191C80.9893 92.0458 80.816 91.5924 80.816 91.0591V90.1791C80.816 89.6458 80.9893 89.1924 81.336 88.8191C81.7093 88.4458 82.3626 88.2591 83.296 88.2591C84.2293 88.2591 84.8693 88.4458 85.216 88.8191C85.5893 89.1924 85.776 89.6458 85.776 90.1791V91.0591C85.776 91.5924 85.5893 92.0458 85.216 92.4191C84.8693 92.7924 84.2293 92.9791 83.296 92.9791ZM102.04 90.3391C100.28 90.3391 98.8404 89.7524 97.7204 88.5791C96.627 87.3791 96.0804 85.6058 96.0804 83.2591C96.0804 80.9124 96.627 79.1524 97.7204 77.9791C98.8404 76.7791 100.28 76.1791 102.04 76.1791C103.8 76.1791 105.227 76.7791 106.32 77.9791C107.44 79.1524 108 80.9124 108 83.2591C108 85.6058 107.44 87.3791 106.32 88.5791C105.227 89.7524 103.8 90.3391 102.04 90.3391ZM102.04 88.1791C103 88.1791 103.774 87.8458 104.36 87.1791C104.974 86.5124 105.28 85.5391 105.28 84.2591V82.2591C105.28 80.9791 104.974 80.0058 104.36 79.3391C103.774 78.6724 103 78.3391 102.04 78.3391C101.08 78.3391 100.294 78.6724 99.6804 79.3391C99.0937 80.0058 98.8004 80.9791 98.8004 82.2591V84.2591C98.8004 85.5391 99.0937 86.5124 99.6804 87.1791C100.294 87.8458 101.08 88.1791 102.04 88.1791ZM115.68 76.6591H118.56L112.16 88.6591H109.28L115.68 76.6591ZM102.4 92.5791H105.28L98.8804 104.579H96.0004L102.4 92.5791ZM112.52 105.059C110.76 105.059 109.32 104.472 108.2 103.299C107.107 102.099 106.56 100.326 106.56 97.9791C106.56 95.6324 107.107 93.8724 108.2 92.6991C109.32 91.4991 110.76 90.8991 112.52 90.8991C114.28 90.8991 115.707 91.4991 116.8 92.6991C117.92 93.8724 118.48 95.6324 118.48 97.9791C118.48 100.326 117.92 102.099 116.8 103.299C115.707 104.472 114.28 105.059 112.52 105.059ZM112.52 102.899C113.48 102.899 114.254 102.566 114.84 101.899C115.454 101.232 115.76 100.259 115.76 98.9791V96.9791C115.76 95.6991 115.454 94.7258 114.84 94.0591C114.254 93.3924 113.48 93.0591 112.52 93.0591C111.56 93.0591 110.774 93.3924 110.16 94.0591C109.574 94.7258 109.28 95.6991 109.28 96.9791V98.9791C109.28 100.259 109.574 101.232 110.16 101.899C110.774 102.566 111.56 102.899 112.52 102.899Z" fill="white"/>
<path d="M125.561 15.1738C127.084 11.248 128.724 7.04636 129.848 2.96143C130.375 2.01369 130.873 1.41999 131.695 1.79956C132.67 2.25329 134.597 4.27345 135.165 5.25205C135.73 6.22675 134.694 7.78988 134.105 8.9471C130.429 16.1846 126.115 23.1441 122.434 30.3652C121.797 31.6178 121.44 32.8483 120.334 33.9001C119.796 34.4124 118.686 34.2735 118.627 33.5475C118.611 33.3053 119.139 31.5858 119.262 31.188C120.846 26.1092 123.563 20.3125 125.561 15.1696L125.561 15.1738Z" fill="#AD2A69"/>
<path d="M152.086 13.899C152.453 14.0349 152.877 14.5237 153.137 14.8301C153.521 15.2795 154.177 16.3071 154.449 16.8601C154.802 17.5714 154.051 18.0345 153.462 18.5291C150.678 20.8788 147.44 23.1316 144.773 25.6667C143.535 26.8443 142.458 28.2172 141.252 29.4305C139.959 30.7332 138.6 31.6752 137.247 32.8267C134.116 35.492 131.334 38.6677 128.282 41.4538C127.483 41.8947 126.943 41.5768 126.625 40.9638C126.361 40.4523 126.652 39.8509 127.093 39.2943C128.023 38.1196 130.512 36.1074 131.736 34.9056C136.968 29.7747 141.729 24.0658 146.821 18.7216C148.068 17.4176 149.612 15.6879 150.901 14.5196C151.217 14.2353 151.749 13.782 152.082 13.9034L152.086 13.9031L152.086 13.899Z" fill="#AD2A69"/>
<path d="M159.442 28.8377C159.435 29.3288 159.171 29.6853 158.751 29.9972C157.821 30.6939 155.979 31.5326 154.898 32.1885C149.731 35.3065 144.79 39.1062 139.636 42.2359C138.933 42.6623 137.934 43.2712 137.218 43.3755C135.859 43.5711 135.098 42.7516 136.231 41.2535C141.184 36.3207 146.783 32.8901 152.145 28.7994C153.139 28.0399 154.094 27.1907 155.083 26.4189C155.501 26.0945 156.934 24.9213 157.264 24.8709C157.669 24.8073 158.005 25.1047 158.306 25.2658C158.396 26.3337 159.462 27.8299 159.446 28.8333L159.441 28.8335L159.442 28.8377Z" fill="#AD2A69"/>
<path d="M116.58 9.97162C116.593 11.7657 115.272 14.886 114.707 16.8133C113.847 19.7491 113.719 22.1057 113.189 24.9199C112.989 25.9642 112.597 27.1592 112.353 28.2316C111.976 29.8701 111.77 32.3952 110.506 33.8303C109.687 34.7589 108.796 34.086 108.636 33.2365C108.554 32.8098 108.679 31.3969 108.725 30.8531C108.869 29.2084 109.267 27.5056 109.441 25.859C109.868 21.8352 109.953 18.1982 110.807 14.0382C110.932 13.4222 111.789 9.71491 112.024 9.42735C112.361 9.01171 115.768 8.42558 116.139 8.67456C116.377 8.83552 116.583 9.62335 116.585 9.9797L116.584 9.97135L116.58 9.97162Z" fill="#AD2A69"/>
<path d="M146.593 7.92077C146.566 8.08607 144.964 10.4401 144.701 10.8175C142.99 13.2498 141.078 15.5691 139.319 17.9792C136.443 21.9242 133.551 25.8911 130.714 29.8712C130.106 30.7236 130.086 31.14 129.141 31.8754C128.2 32.6063 127.043 31.749 127.38 30.8092C127.459 30.5903 127.675 30.2074 127.805 29.9811C128.963 27.886 130.675 25.3363 132.026 23.2959C135.114 18.6246 139.312 13.4925 141.636 8.55118C142.171 7.41415 142.837 4.75487 144.314 5.5289C144.838 5.80583 145.901 6.79904 146.291 7.27747C146.396 7.40496 146.623 7.72597 146.593 7.92077Z" fill="#AD2A69"/>
</svg>
